<?xml version="1.0" encoding="utf-8"?>
<!-- Generator: Adobe Illustrator 19.2.1, SVG Export Plug-In . SVG Version: 6.00 Build 0)  -->
<svg version="1.1" xmlns="http://www.w3.org/2000/svg" xmlns:xlink="http://www.w3.org/1999/xlink" x="0px" y="0px"
	 viewBox="0 0 469.751 1009.965" enable-background="new 0 0 469.751 1009.965" xml:space="preserve">
<g id="Kopf">
</g>
<g id="Ebene_3">
</g>
<g id="Körper">
</g>
<g id="Ebene_5">
	<path opacity="0.74" fill="#FEE9CD" d="M76.94,211.201c-8.722,0-8.282,16.536-8.282,43.312s8.085,39.719,16.807,39.719
		l-0.108,4.083c0,0,1.699,77.243,22.795,101.359c21.096,24.116,80.597,59.058,122.248,57.09l4.251-0.227
		c41.651,1.969,101.152-32.974,122.248-57.09c21.096-24.116,23.223-102.848,23.223-102.848l0.079-4.818
		c8.722,0,14.184-7.48,14.184-29.797c0-22.317,0.116-36.72-8.606-36.72c0,0-22.816-141.834-126.889-135.499
		S104.14,128.678,102.33,174.832c-1.81,46.154-1.81,46.154-1.81,46.154L76.94,211.201z"/>
	
		<path fill="#FEE9CD" stroke="#000000" stroke-width="6" stroke-linecap="round" stroke-linejoin="round" stroke-miterlimit="10" d="
		M114.977,566.994L91.645,723.317c0,0,29.662,32.035,21.357,32.035s-8.305,0-8.305,0l-11.865-8.305c0,0-7.119,29.662-23.73,28.476
		s-18.984-40.34-8.305-61.697S86.9,548.905,86.9,548.905"/>
	
		<path fill="#FEE9CD" stroke="#000000" stroke-width="6" stroke-linecap="round" stroke-linejoin="round" stroke-miterlimit="10" d="
		M352.655,563.502l23.332,156.323c0,0-29.662,32.035-21.357,32.035s8.305,0,8.305,0l11.865-8.305c0,0,7.119,29.662,23.73,28.476
		c16.611-1.187,18.984-40.34,8.305-61.697s-26.103-164.921-26.103-164.921"/>
	<path opacity="0.74" fill="#FEE9CD" d="M189.008,438.273c0,0,20.47,66.798,38.786,71.108s45.25-71.108,45.25-71.108H189.008z"/>
	
		<path fill="#517C5D" stroke="#000000" stroke-width="6" stroke-linecap="round" stroke-linejoin="round" stroke-miterlimit="10" d="
		M286.147,450.68c0,0,20.861,8.55,43.011,17.019c57.144,21.848,59.247,96.615,59.247,96.615l-53.77,9.559l-16.443-37.959
		l11.749,185.52l-209.342-11.272l22.938-162.153l-7.413,26.152L70.853,561.63c0,0,16.333-51.121,36.754-83.347
		s54.454-35.702,54.454-35.702s25.82,13.431,32.921,13.431c7.101,0,8.822,50.82,32.813,53.369
		c18.666,2.548,41.743-51.594,41.743-51.594L286.147,450.68z"/>
	
		<polygon fill="#34455E" stroke="#000000" stroke-width="6" stroke-linecap="round" stroke-linejoin="round" stroke-miterlimit="10" points="
		141.555,711.276 117.793,885.435 190.94,895.994 229.593,745.809 259.775,886.46 335.604,880.613 318.802,719.775 	"/>
	
		<path fill="#FEE9CD" stroke="#000000" stroke-width="6" stroke-linecap="round" stroke-linejoin="round" stroke-miterlimit="10" d="
		M138.777,891.118c0,0-7.52,58.654-7.52,64.669s-61.661-21.055-66.173,0s82.42,23.995,101.971,23.995
		c4.512-37.598,13.832-85.656,13.832-85.656L138.777,891.118z"/>
	
		<path fill="#FEE9CD" stroke="#000000" stroke-width="6" stroke-linecap="round" stroke-linejoin="round" stroke-miterlimit="10" d="
		M318.708,881.804c0,0,7.52,58.654,7.52,64.669s61.661-21.055,66.173,0s-82.42,23.995-101.971,23.995
		c-4.512-37.598-13.832-85.656-13.832-85.656L318.708,881.804z"/>
	<ellipse cx="165.339" cy="249.287" rx="5.661" ry="5.935"/>
	<ellipse cx="289.524" cy="252.464" rx="5.473" ry="5.737"/>
	<path fill="none" stroke="#000000" stroke-width="6" stroke-miterlimit="10" d="M192.293,282.552l-60.569-7.88
		c-6.545-0.852-11.203-6.903-10.351-13.448l3.753-28.847c0.852-6.545,6.903-11.203,13.448-10.352l60.569,7.88
		c6.545,0.852,11.203,6.903,10.352,13.448l-3.753,28.847C204.889,278.746,198.838,283.404,192.293,282.552z"/>
	<path fill="none" stroke="#000000" stroke-width="6" stroke-miterlimit="10" d="M321.405,285.59h-61.08c-6.6,0-12-5.4-12-12V244.5
		c0-6.6,5.4-12,12-12h61.08c6.6,0,12,5.4,12,12v29.09C333.405,280.19,328.005,285.59,321.405,285.59z"/>
	
		<line fill="none" stroke="#000000" stroke-width="6" stroke-miterlimit="10" x1="208.552" y1="247.748" x2="248.631" y2="247.748"/>
	<line fill="none" stroke="#000000" stroke-width="6" stroke-miterlimit="10" x1="333.504" y1="241.461" x2="388.69" y2="227.039"/>
	<line fill="none" stroke="#000000" stroke-width="6" stroke-miterlimit="10" x1="125.125" y1="232.377" x2="72.598" y2="209.241"/>
	<path fill="none" stroke="#000000" stroke-width="6" stroke-miterlimit="10" d="M192.049,298.829c0,0,7.859,19.647,36.15,20.432
		s31.435-20.432,31.435-20.432"/>
	<polygon fill="#604C3C" points="202.265,393.133 225.055,418.281 249.417,391.561 	"/>
	<path fill="#604C3C" d="M314.839,224.731l-48.124-1.535c-6.588-0.21-12.088-3.767-12.223-7.904v0
		c-0.135-4.137,5.145-7.35,11.732-7.14l48.124,1.535c6.588,0.21,12.088,3.767,12.223,7.904v0
		C326.706,221.729,321.427,224.941,314.839,224.731z"/>
	<path fill="#604C3C" d="M192.759,219.341l-48.906-1.872c-6.568-0.251-11.419-3.564-10.781-7.362l0,0
		c0.638-3.798,6.533-6.7,13.101-6.448l48.906,1.872c6.568,0.251,11.419,3.564,10.781,7.362v0
		C205.222,216.69,199.326,219.592,192.759,219.341z"/>
	<path fill="none" stroke="#000000" stroke-width="6" stroke-miterlimit="10" d="M386.648,228.06c8.722,0,8.606,14.403,8.606,36.72
		s-5.462,29.797-14.184,29.797l-0.079,4.818c0,0-2.128,78.732-23.223,102.848c-21.096,24.116-80.597,59.058-122.248,57.09
		l-4.251,0.227c-41.651,1.969-101.152-32.974-122.248-57.09c-21.096-24.116-22.795-101.359-22.795-101.359l0.108-4.083
		c-8.722,0-16.807-12.944-16.807-39.719c0-26.776-0.44-43.312,8.282-43.312"/>
	<path fill="none" stroke="#000000" stroke-width="6" stroke-miterlimit="10" d="M176.615,355.367c0,0,59.593,20.344,98.416-6.067"
		/>
	
		<path fill="#604C3C" stroke="#000000" stroke-width="6" stroke-linecap="round" stroke-linejoin="round" stroke-miterlimit="10" d="
		M333.926,61.84c-72.168-43.301-171.857-31.049-210.05,9.512c-38.24,40.612-39.694,139.875-39.694,139.875
		s16.067,25.518,16.067,41.584c0,16.067,17.249-70.866,28.284-86.558c5.49-7.807,12.776-16.648,31.092-22.631l37.093,18.978
		l-6.985-24.763c3.53-0.342,7.271-0.619,11.249-0.823l30.078,23.679l9.425-23.562c1.019,0.044,2.029,0.089,3.032,0.137
		c0.736,0.035,1.384,0.49,1.67,1.169l12.584,29.887c0,0,10.741-18.258,23.357-27.78c20.229-2.702,67.286,22.105,74.531,59.778
		c9.451,49.145,12.055,60.995,12.055,60.995s10.463-39.108,18.936-33.258C386.648,228.06,403.918,103.835,333.926,61.84z"/>
</g>
</svg>
