<?xml version="1.0" encoding="utf-8"?>
<!-- Generator: Adobe Illustrator 21.1.0, SVG Export Plug-In . SVG Version: 6.00 Build 0)  -->
<svg version="1.1" id="Ebene_1" xmlns="http://www.w3.org/2000/svg" xmlns:xlink="http://www.w3.org/1999/xlink" x="0px" y="0px"
	 viewBox="0 0 469.8 1010" style="enable-background:new 0 0 469.8 1010;" xml:space="preserve">
<style type="text/css">
	.st0{display:none;clip-path:url(#SVGID_2_);}
	.st1{display:inline;}
	.st2{clip-path:url(#SVGID_35_);}
	.st3{clip-path:url(#SVGID_36_);}
	.st4{clip-path:url(#SVGID_37_);}
	.st5{clip-path:url(#SVGID_38_);}
	.st6{clip-path:url(#SVGID_39_);}
	.st7{clip-path:url(#SVGID_40_);}
	.st8{clip-path:url(#SVGID_41_);}
	.st9{clip-path:url(#SVGID_42_);}
	.st10{clip-path:url(#SVGID_43_);}
	.st11{clip-path:url(#SVGID_44_);}
	.st12{clip-path:url(#SVGID_45_);}
	.st13{clip-path:url(#SVGID_46_);}
	.st14{clip-path:url(#SVGID_47_);}
	.st15{clip-path:url(#SVGID_48_);}
	.st16{clip-path:url(#SVGID_49_);}
	.st17{clip-path:url(#SVGID_50_);}
	.st18{clip-path:url(#SVGID_51_);}
	.st19{clip-path:url(#SVGID_52_);}
	.st20{clip-path:url(#SVGID_53_);}
	.st21{clip-path:url(#SVGID_54_);}
	.st22{clip-path:url(#SVGID_55_);}
	.st23{clip-path:url(#SVGID_56_);}
	.st24{clip-path:url(#SVGID_57_);}
	.st25{clip-path:url(#SVGID_58_);}
	.st26{clip-path:url(#SVGID_59_);}
	.st27{clip-path:url(#SVGID_60_);}
	.st28{clip-path:url(#SVGID_61_);}
	.st29{clip-path:url(#SVGID_62_);}
	.st30{clip-path:url(#SVGID_63_);}
	.st31{clip-path:url(#SVGID_64_);}
	.st32{clip-path:url(#SVGID_65_);}
	.st33{clip-path:url(#SVGID_66_);fill:#1D1D1B;}
	.st34{display:inline;opacity:0.28;}
	.st35{opacity:0.28;}
	.st36{clip-path:url(#SVGID_68_);}
	.st37{clip-path:url(#SVGID_123_);}
	.st38{clip-path:url(#SVGID_124_);}
	.st39{clip-path:url(#SVGID_125_);}
	.st40{clip-path:url(#SVGID_126_);}
	.st41{clip-path:url(#SVGID_127_);}
	.st42{clip-path:url(#SVGID_128_);}
	.st43{clip-path:url(#SVGID_129_);}
	.st44{clip-path:url(#SVGID_130_);}
	.st45{clip-path:url(#SVGID_131_);}
	.st46{clip-path:url(#SVGID_132_);}
	.st47{clip-path:url(#SVGID_133_);}
	.st48{clip-path:url(#SVGID_134_);}
	.st49{clip-path:url(#SVGID_135_);}
	.st50{clip-path:url(#SVGID_136_);}
	.st51{clip-path:url(#SVGID_137_);}
	.st52{clip-path:url(#SVGID_138_);}
	.st53{clip-path:url(#SVGID_139_);}
	.st54{clip-path:url(#SVGID_140_);}
	.st55{clip-path:url(#SVGID_141_);}
	.st56{clip-path:url(#SVGID_142_);}
	.st57{clip-path:url(#SVGID_143_);}
	.st58{clip-path:url(#SVGID_144_);}
	.st59{clip-path:url(#SVGID_145_);}
	.st60{clip-path:url(#SVGID_146_);}
	.st61{clip-path:url(#SVGID_147_);}
	.st62{clip-path:url(#SVGID_148_);}
	.st63{clip-path:url(#SVGID_149_);}
	.st64{clip-path:url(#SVGID_150_);}
	.st65{clip-path:url(#SVGID_151_);}
	.st66{clip-path:url(#SVGID_152_);}
	.st67{clip-path:url(#SVGID_153_);}
	.st68{clip-path:url(#SVGID_154_);}
	.st69{clip-path:url(#SVGID_155_);}
	.st70{clip-path:url(#SVGID_156_);}
	.st71{clip-path:url(#SVGID_157_);}
	.st72{clip-path:url(#SVGID_158_);}
	.st73{clip-path:url(#SVGID_159_);}
	.st74{clip-path:url(#SVGID_160_);}
	.st75{clip-path:url(#SVGID_161_);}
	.st76{clip-path:url(#SVGID_162_);}
	.st77{clip-path:url(#SVGID_163_);}
	.st78{clip-path:url(#SVGID_164_);}
	.st79{clip-path:url(#SVGID_165_);}
	.st80{clip-path:url(#SVGID_166_);}
	.st81{clip-path:url(#SVGID_167_);}
	.st82{clip-path:url(#SVGID_168_);}
	.st83{clip-path:url(#SVGID_169_);}
	.st84{clip-path:url(#SVGID_170_);}
	.st85{clip-path:url(#SVGID_171_);}
	.st86{clip-path:url(#SVGID_172_);}
	.st87{clip-path:url(#SVGID_173_);}
	.st88{clip-path:url(#SVGID_174_);}
	.st89{clip-path:url(#SVGID_175_);}
	.st90{clip-path:url(#SVGID_176_);fill:#1D1D1B;}
	.st91{clip-path:url(#SVGID_2_);}
	.st92{stroke:#000000;stroke-width:6;stroke-linecap:round;stroke-linejoin:round;stroke-miterlimit:10;}
	.st93{fill:#FEE9CD;stroke:#000000;stroke-width:6;stroke-linecap:round;stroke-linejoin:round;stroke-miterlimit:10;}
	.st94{fill:#353535;stroke:#000000;stroke-width:6;stroke-linecap:round;stroke-linejoin:round;stroke-miterlimit:10;}
	.st95{fill:#24323F;stroke:#000000;stroke-width:6;stroke-linecap:round;stroke-linejoin:round;stroke-miterlimit:10;}
	.st96{fill:none;stroke:#000000;stroke-width:6;stroke-linecap:round;stroke-linejoin:round;stroke-miterlimit:10;}
	.st97{fill:#FEE9CD;}
	.st98{fill:none;stroke:#000000;stroke-width:6;stroke-miterlimit:10;}
	.st99{fill:#604C3C;}
	.st100{fill:#604C3C;stroke:#000000;stroke-width:6;stroke-miterlimit:10;}
	.st101{fill:#FFFFFF;stroke:#000000;stroke-width:6;stroke-linecap:round;stroke-linejoin:round;stroke-miterlimit:10;}
</style>
<g>
	<g id="Kopf">
	</g>
	<g id="Ebene_3">
	</g>
	<g id="Körper">
	</g>
	<g>
		<g>
			<g>
				<defs>
					<rect id="SVGID_1_" x="15.8" y="-15.6" width="462.1" height="1017.4"/>
				</defs>
				<clipPath id="SVGID_2_">
					<use xlink:href="#SVGID_1_"  style="overflow:visible;"/>
				</clipPath>
				<g id="Ebene_1_1_" class="st0">
					<g class="st1">
						<defs>
							<rect id="SVGID_3_" x="15.8" y="-15.6" width="462.1" height="1017.4"/>
						</defs>
						<defs>
							<rect id="SVGID_4_" x="15.8" y="-15.6" width="462.1" height="1017.4"/>
						</defs>
						<defs>
							<rect id="SVGID_5_" x="15.8" y="-15.6" width="462.1" height="1017.4"/>
						</defs>
						<defs>
							<rect id="SVGID_6_" x="15.8" y="-15.6" width="462.1" height="1017.4"/>
						</defs>
						<defs>
							<rect id="SVGID_7_" x="15.8" y="-15.6" width="462.1" height="1017.4"/>
						</defs>
						<defs>
							<rect id="SVGID_8_" x="15.8" y="-15.6" width="462.1" height="1017.4"/>
						</defs>
						<defs>
							<rect id="SVGID_9_" x="15.8" y="-15.6" width="462.1" height="1017.4"/>
						</defs>
						<defs>
							<rect id="SVGID_10_" x="15.8" y="-15.6" width="462.1" height="1017.4"/>
						</defs>
						<defs>
							<rect id="SVGID_11_" x="15.8" y="-15.6" width="462.1" height="1017.4"/>
						</defs>
						<defs>
							<rect id="SVGID_12_" x="15.8" y="-15.6" width="462.1" height="1017.4"/>
						</defs>
						<defs>
							<rect id="SVGID_13_" x="15.8" y="-15.6" width="462.1" height="1017.4"/>
						</defs>
						<defs>
							<rect id="SVGID_14_" x="15.8" y="-15.6" width="462.1" height="1017.4"/>
						</defs>
						<defs>
							<rect id="SVGID_15_" x="15.8" y="-15.6" width="462.1" height="1017.4"/>
						</defs>
						<defs>
							<rect id="SVGID_16_" x="15.8" y="-15.6" width="462.1" height="1017.4"/>
						</defs>
						<defs>
							<rect id="SVGID_17_" x="15.8" y="-15.6" width="462.1" height="1017.4"/>
						</defs>
						<defs>
							<rect id="SVGID_18_" x="15.8" y="-15.6" width="462.1" height="1017.4"/>
						</defs>
						<defs>
							<rect id="SVGID_19_" x="15.8" y="-15.6" width="462.1" height="1017.4"/>
						</defs>
						<defs>
							<rect id="SVGID_20_" x="15.8" y="-15.6" width="462.1" height="1017.4"/>
						</defs>
						<defs>
							<rect id="SVGID_21_" x="15.8" y="-15.6" width="462.1" height="1017.4"/>
						</defs>
						<defs>
							<rect id="SVGID_22_" x="15.8" y="-15.6" width="462.1" height="1017.4"/>
						</defs>
						<defs>
							<rect id="SVGID_23_" x="15.8" y="-15.6" width="462.1" height="1017.4"/>
						</defs>
						<defs>
							<rect id="SVGID_24_" x="15.8" y="-15.6" width="462.1" height="1017.4"/>
						</defs>
						<defs>
							<rect id="SVGID_25_" x="15.8" y="-15.6" width="462.1" height="1017.4"/>
						</defs>
						<defs>
							<rect id="SVGID_26_" x="15.8" y="-15.6" width="462.1" height="1017.4"/>
						</defs>
						<defs>
							<rect id="SVGID_27_" x="15.8" y="-15.6" width="462.1" height="1017.4"/>
						</defs>
						<defs>
							<rect id="SVGID_28_" x="15.8" y="-15.6" width="462.1" height="1017.4"/>
						</defs>
						<defs>
							<rect id="SVGID_29_" x="15.8" y="-15.6" width="462.1" height="1017.4"/>
						</defs>
						<defs>
							<rect id="SVGID_30_" x="15.8" y="-15.6" width="462.1" height="1017.4"/>
						</defs>
						<defs>
							<rect id="SVGID_31_" x="15.8" y="-15.6" width="462.1" height="1017.4"/>
						</defs>
						<defs>
							<rect id="SVGID_32_" x="15.8" y="-15.6" width="462.1" height="1017.4"/>
						</defs>
						<defs>
							<rect id="SVGID_33_" x="15.8" y="-15.6" width="462.1" height="1017.4"/>
						</defs>
						<defs>
							<rect id="SVGID_34_" x="15.8" y="-15.6" width="462.1" height="1017.4"/>
						</defs>
						<clipPath id="SVGID_35_">
							<use xlink:href="#SVGID_3_"  style="overflow:visible;"/>
						</clipPath>
						<clipPath id="SVGID_36_" class="st2">
							<use xlink:href="#SVGID_4_"  style="overflow:visible;"/>
						</clipPath>
						<clipPath id="SVGID_37_" class="st3">
							<use xlink:href="#SVGID_5_"  style="overflow:visible;"/>
						</clipPath>
						<clipPath id="SVGID_38_" class="st4">
							<use xlink:href="#SVGID_6_"  style="overflow:visible;"/>
						</clipPath>
						<clipPath id="SVGID_39_" class="st5">
							<use xlink:href="#SVGID_7_"  style="overflow:visible;"/>
						</clipPath>
						<clipPath id="SVGID_40_" class="st6">
							<use xlink:href="#SVGID_8_"  style="overflow:visible;"/>
						</clipPath>
						<clipPath id="SVGID_41_" class="st7">
							<use xlink:href="#SVGID_9_"  style="overflow:visible;"/>
						</clipPath>
						<clipPath id="SVGID_42_" class="st8">
							<use xlink:href="#SVGID_10_"  style="overflow:visible;"/>
						</clipPath>
						<clipPath id="SVGID_43_" class="st9">
							<use xlink:href="#SVGID_11_"  style="overflow:visible;"/>
						</clipPath>
						<clipPath id="SVGID_44_" class="st10">
							<use xlink:href="#SVGID_12_"  style="overflow:visible;"/>
						</clipPath>
						<clipPath id="SVGID_45_" class="st11">
							<use xlink:href="#SVGID_13_"  style="overflow:visible;"/>
						</clipPath>
						<clipPath id="SVGID_46_" class="st12">
							<use xlink:href="#SVGID_14_"  style="overflow:visible;"/>
						</clipPath>
						<clipPath id="SVGID_47_" class="st13">
							<use xlink:href="#SVGID_15_"  style="overflow:visible;"/>
						</clipPath>
						<clipPath id="SVGID_48_" class="st14">
							<use xlink:href="#SVGID_16_"  style="overflow:visible;"/>
						</clipPath>
						<clipPath id="SVGID_49_" class="st15">
							<use xlink:href="#SVGID_17_"  style="overflow:visible;"/>
						</clipPath>
						<clipPath id="SVGID_50_" class="st16">
							<use xlink:href="#SVGID_18_"  style="overflow:visible;"/>
						</clipPath>
						<clipPath id="SVGID_51_" class="st17">
							<use xlink:href="#SVGID_19_"  style="overflow:visible;"/>
						</clipPath>
						<clipPath id="SVGID_52_" class="st18">
							<use xlink:href="#SVGID_20_"  style="overflow:visible;"/>
						</clipPath>
						<clipPath id="SVGID_53_" class="st19">
							<use xlink:href="#SVGID_21_"  style="overflow:visible;"/>
						</clipPath>
						<clipPath id="SVGID_54_" class="st20">
							<use xlink:href="#SVGID_22_"  style="overflow:visible;"/>
						</clipPath>
						<clipPath id="SVGID_55_" class="st21">
							<use xlink:href="#SVGID_23_"  style="overflow:visible;"/>
						</clipPath>
						<clipPath id="SVGID_56_" class="st22">
							<use xlink:href="#SVGID_24_"  style="overflow:visible;"/>
						</clipPath>
						<clipPath id="SVGID_57_" class="st23">
							<use xlink:href="#SVGID_25_"  style="overflow:visible;"/>
						</clipPath>
						<clipPath id="SVGID_58_" class="st24">
							<use xlink:href="#SVGID_26_"  style="overflow:visible;"/>
						</clipPath>
						<clipPath id="SVGID_59_" class="st25">
							<use xlink:href="#SVGID_27_"  style="overflow:visible;"/>
						</clipPath>
						<clipPath id="SVGID_60_" class="st26">
							<use xlink:href="#SVGID_28_"  style="overflow:visible;"/>
						</clipPath>
						<clipPath id="SVGID_61_" class="st27">
							<use xlink:href="#SVGID_29_"  style="overflow:visible;"/>
						</clipPath>
						<clipPath id="SVGID_62_" class="st28">
							<use xlink:href="#SVGID_30_"  style="overflow:visible;"/>
						</clipPath>
						<clipPath id="SVGID_63_" class="st29">
							<use xlink:href="#SVGID_31_"  style="overflow:visible;"/>
						</clipPath>
						<clipPath id="SVGID_64_" class="st30">
							<use xlink:href="#SVGID_32_"  style="overflow:visible;"/>
						</clipPath>
						<clipPath id="SVGID_65_" class="st31">
							<use xlink:href="#SVGID_33_"  style="overflow:visible;"/>
						</clipPath>
						<clipPath id="SVGID_66_" class="st32">
							<use xlink:href="#SVGID_34_"  style="overflow:visible;"/>
						</clipPath>
						<path class="st33" d="M229.7,517.5c-2.2,0-5.9-4.1-13-12.9l-0.1-0.1l0.1-0.2c1.5-4.6-0.4-12.5-0.5-12.6l0.7-0.2
							c0.1,0.3,2,8,0.5,12.8c5.7,7.1,10.6,12.9,12.6,12.5c1.6-0.4,10.5-7.8,13.9-10.8c0.2-1.1,1.9-9.4,3.2-14.5l0.7,0.2
							c-1.4,5.4-3.2,14.5-3.2,14.6v0.1l-0.1,0.1c-1.2,1.1-12.2,10.6-14.3,11C230,517.5,229.8,517.5,229.7,517.5"/>
						<path class="st33" d="M272.4,685.8c-0.2,0-0.4,0-0.5,0h-0.2l-0.1-0.2c-8.6-15.2-32.6-162.8-33.7-169.1v-0.2l5.6-6.5l11,9.2
							c0.4-3.2,2-18,2.4-22.2c0.4-4.5-5.2-7.2-5.3-7.2l0.3-0.6c0.3,0.1,6.2,2.9,5.7,7.9c-0.5,4.7-2.5,22.7-2.5,22.8l-0.1,0.6
							l-11.4-9.6l-4.9,5.8c0.9,5.7,24.9,152.8,33.5,168.6c0.1,0,0.2,0,0.3,0c4.1,0,5.6-1.9,8.7-5.7c1.2-1.5,2.7-3.3,4.6-5.4
							c1.8-2-0.8-21.2-2.9-36.6c-1.5-11-2.9-21.3-2.9-26c0-5.1-0.2-18.9-0.4-33.6c-0.3-23.2-0.5-37.4-0.3-38l0.7,0.1
							c-0.1,0.8,0.1,20.5,0.4,37.9c0.2,14.7,0.4,28.5,0.4,33.6c0,4.6,1.4,15,2.9,25.9c2.9,21.1,4.6,35.1,2.8,37.1
							c-1.9,2.1-3.4,3.9-4.6,5.4C278.4,683.7,276.8,685.8,272.4,685.8"/>
						<path class="st33" d="M295.5,679h-0.3c-0.3,0-6.3-1.1-9.7-4.7l0.5-0.5c2.8,3,7.8,4.2,9,4.4l4.1-14.2c-0.5-0.2-1.4-0.4-1.8-0.6
							c-0.5-0.1-0.6-0.2,0.8-19.6c1.8-24.6,4.9-65.7,3.4-89.5c-2.6-41-9.9-44.7-13.1-46.3c-0.2-0.1-0.3-0.2-0.4-0.2h-0.1
							c-2.9-2.7-30.4-11.7-30.7-11.8l0.2-0.7c1.1,0.4,27.8,9.1,30.9,11.9c0.1,0.1,0.3,0.1,0.4,0.2c3.2,1.6,10.8,5.5,13.4,46.9
							c1.5,23.8-1.6,65-3.4,89.6c-0.7,9.8-1.3,17.7-1.2,18.9c0.7,0.2,2,0.6,2,0.6l0.3,0.1L295.5,679z"/>
						<path class="st33" d="M188.3,696.7c-0.1,0-0.2,0-0.2-0.1c-2.7-2.2-4.7-3.6-6.2-4.6c-4.1-2.9-4.5-3.2-5.5-8.7l0.7-0.1
							c1,5.2,1.2,5.4,5.2,8.3c1.4,1,3.3,2.4,5.9,4.4c23.6-39.5,24.7-99.9,23.7-112.8c-1.2-15.4-5.6-67.5-5.7-68c0-0.1,0-0.1,0-0.2
							l3.5-5.7l-1.5-5.6l-5.9,6.2c-0.1,0.1-0.3,0.1-0.5,0c-0.1-0.1-0.2-0.3-0.1-0.4l10.8-18.7l0.6,0.3l-9.3,16.2l4.3-4.6
							c0.1-0.1,0.2-0.1,0.3-0.1s0.2,0.1,0.2,0.2l1.7,6.3c0,0.1,0,0.2,0,0.3l-3.5,5.7c0.2,2.7,4.5,52.8,5.6,67.9
							c1,13-0.1,73.9-24,113.6C188.6,696.6,188.5,696.7,188.3,696.7C188.4,696.7,188.3,696.7,188.3,696.7"/>
						<path class="st33" d="M163.7,653.1c-0.1,0-0.1,0-0.2-0.1c-0.1-0.1-0.2-0.2-0.2-0.3c-5.3-78.7,8-129.6,12.2-137
							c4.8-8.4,32.4-18.6,33.6-19l0.2,0.6c-0.3,0.1-28.5,10.5-33.2,18.7c-4.2,7.3-17.3,57.8-12.1,136.1c2.3-0.9,12.5-4.7,19.2-2.5
							l-0.2,0.7c-7.1-2.4-19,2.7-19.1,2.7C163.8,653.1,163.7,653.1,163.7,653.1"/>
						<path class="st33" d="M168.5,672.7h-0.1c-6.3-2.1-6.2-18.6-6.2-19.3c0-0.1,0.1-0.3,0.2-0.3l1.2-0.6l0.3,0.6l-1,0.5
							c0,1.9,0.3,16,5.4,18.3c0.2-0.6,0.8-1.2,1.6-1.8c2.4-1.8,6.9-3.2,10.9-2.6l-0.1,0.7c-3.8-0.6-8.1,0.8-10.4,2.5
							c-0.9,0.6-1.4,1.3-1.5,1.8C168.8,672.6,168.7,672.7,168.5,672.7C168.6,672.7,168.5,672.7,168.5,672.7"/>
						<path class="st33" d="M244.6,684.5c-22.3,0-49.3-1-49.7-1v-0.7c0.6,0,61.3,2.2,75.9,0l0.1,0.7
							C265.9,684.3,255.8,684.5,244.6,684.5"/>
						<path class="st33" d="M231.3,701.6c-0.1,0-0.2,0-0.2-0.1c-0.1-0.1-0.1-0.2-0.1-0.3l0.2-17.1h0.7l-0.2,16.7
							c2-0.3,10.7-2.5,10.7-16.8h0.7c0,8.5-3.2,12.8-5.8,14.9C234.3,701.3,231.5,701.6,231.3,701.6L231.3,701.6"/>
						<path class="st33" d="M181.4,922.5c-2,0-3.7-0.5-5.1-1.4c-2.2-1.4-3.6-3.8-4-7c-0.1-0.7-0.2-1.5-0.2-2.3
							c0-4.5,4.1-10,7.5-14.5c1.8-2.4,3.3-4.4,4-6c2.1-4.6,8.4-18.9,8.4-18.9l0.6,0.3c0,0-6.3,14.3-8.4,18.9
							c-0.7,1.6-2.3,3.7-4.1,6.1c-3.3,4.4-7.3,9.9-7.3,14.1c0,0.8,0.1,1.5,0.2,2.2c0.3,2.1,1.2,4.9,3.7,6.5c2.3,1.5,5.4,1.7,9.2,0.6
							c7.8-2.2,13-6.9,16-14.4c2.3-5.8,3.7-7.2,7.2-9.1c4.6-2.5,9.2-6.3,8.3-9.7c-1.2-4.2-1.2-7.3-1.2-9.2c0-1.7-0.6-3.3-0.6-3.4
							l0.6-0.2c0,0.1,0.7,1.7,0.7,3.6c0,1.9,0,5,1.1,9c1.3,4.7-6.3,9.2-8.6,10.4c-3.4,1.8-4.7,3.2-6.9,8.7
							c-3.1,7.7-8.5,12.5-16.4,14.8C184.3,922.3,182.8,922.5,181.4,922.5"/>
						<path class="st33" d="M270.4,926.8c-1.4,0-2.5-0.1-3.2-0.2c-10.7-1.3-13.6-12.7-14.4-17.5c-0.6-3.9-3.3-7.4-6.1-11.2
							c-1.4-1.8-2.8-3.7-3.9-5.6c-3.5-5.8,1.5-18.6,1.7-19.2l0.6,0.3c-0.1,0.1-5.1,13.1-1.8,18.6c1.1,1.9,2.5,3.7,3.9,5.5
							c2.8,3.7,5.6,7.4,6.2,11.5c2.1,13.5,9.5,16.4,13.8,16.9c2.1,0.3,9.4,0.8,13.1-3.1c1.9-2,2.5-4.8,1.8-8.4
							c-1-5.5-3.9-10.3-6.4-14.4c-2.4-4.1-4.8-7.9-5-11.9c-0.5-6.8-1.4-12-1.9-14.8c-0.2-0.9-0.3-1.6-0.3-2.1l0.7-0.1
							c0.1,0.4,0.2,1.1,0.3,2c0.5,2.8,1.4,8.1,1.9,14.9c0.3,3.8,2.5,7.6,5,11.6c2.5,4.2,5.4,9,6.5,14.6c0.7,3.8,0,6.8-2,9
							C278.1,926.2,273.6,926.8,270.4,926.8"/>
						<path class="st33" d="M286.1,691.4l-0.6-0.3c0,0,1.4-2.4,2-5.7c0.7-3.4,4.6-7.6,4.8-7.8l0.5,0.5c0,0-4,4.2-4.6,7.5
							C287.5,688.9,286.1,691.3,286.1,691.4"/>
						<path class="st33" d="M208.6,877.3c-0.9,0-1.7-0.3-2.3-1c-2.1-2.7-5.4-4.7-8.2-4.8c-1.5,0-2.7,0.4-3.6,1.4
							c-0.6,0.7-1,0.9-1.5,0.9c-0.6-0.1-0.9-0.7-1.4-1.5l-0.2-0.5c-1.1-2-0.9-4.3-0.7-6.1c0.1-0.7,0.1-1.3,0.1-1.8
							c0-0.7-0.1-1.5-0.1-2.4c-0.2-3.8-0.5-8.6,0.6-13.2c1.2-4.8,1-6.8,0.4-16.8c-0.5-8.7-1.9-38.2-1.9-40.5c0-2.1,0.5-3.9,1.2-6.9
							l0.2-0.7c0.3-1.2,0.7-1.9,0.9-2.6c0.5-1.1,0.8-1.7,0.1-4.1c-2-3.4-1.2-6.9-0.4-10c0.2-0.6,0.3-1.2,0.4-1.8
							c0.5-2.6-2.3-12.3-3.6-16.9c-0.4-1.4-0.7-2.5-0.8-3c-0.1-0.6-0.5-2.6-0.9-5.3c-1-6.5-2.8-17.5-4.2-22.2
							c-2-6.4-5.9-31.8-6.3-34.1c-0.9-0.6-5-3.2-4.9-5.2c0.1-1.5-2.1-5.4-2.9-6.8l0.6-0.4c0.1,0.2,3.1,5.1,3,7.2
							c-0.1,1.3,2.8,3.6,4.7,4.7c0.1,0.1,0.1,0.1,0.2,0.2c0,0.3,4.2,27.6,6.3,34.1c1.5,4.8,3.2,15.8,4.3,22.3
							c0.4,2.6,0.7,4.6,0.9,5.3c0.1,0.5,0.4,1.6,0.8,2.9c1.5,5.1,4.2,14.5,3.6,17.3c-0.1,0.6-0.3,1.2-0.4,1.9
							c-0.7,2.9-1.5,6.3,0.4,9.6c0.9,2.7,0.5,3.5-0.1,4.7c-0.3,0.6-0.6,1.3-0.9,2.4l-0.2,0.7c-0.7,3-1.2,4.7-1.2,6.8
							c0,2.3,1.4,31.8,1.9,40.4c0.6,10,0.7,12.1-0.5,17c-1.1,4.6-0.8,9.3-0.6,13c0.1,0.8,0.1,1.7,0.1,2.4c0,0.5,0,1.2-0.1,1.9
							c-0.2,1.7-0.4,3.9,0.6,5.7l0.3,0.5c0.3,0.6,0.6,1.1,0.9,1.2c0.1,0,0.4-0.1,0.9-0.7c1-1.1,2.5-1.7,4.2-1.6c3,0.1,6.4,2.1,8.7,5
							c1,1.2,3,0.6,5.4-0.1c1.1-0.3,2.3-0.7,3.5-0.8c3.3-3,5.1-5.3,4.3-16.9c-0.5-6.3-1.4-9.9-2-12.6c-0.6-2.4-1-4.1-0.9-6.5
							c0.1-1.7,0.7-4.7,1.4-8.5c1.5-7.5,3.5-17.8,3.4-25.8c-0.1-7.8,0-12.1,0.1-14.9c0-1.4,0.1-2.5,0-3.3v-0.1
							c0.8-3.1,1.1-7.1,1.7-12.5c0.3-2.8,0.6-5.9,1-9.5c0.1-2.2,3.1-53.7,4.6-57.3l2.1-4.8c0-0.1,0.1-0.2,0.2-0.2
							c0.1,0,0.2,0,0.3,0.1c0.3,0.2,3.2,2.4,3.1,4.3c-0.2,1.8,0,14.5,2.2,21.6c1.2,4,0.7,6.9,0.1,10.4c-0.5,2.7-1,5.8-0.6,9.9
							c0.5,5.7,1.3,15.9,1.8,23.3c0.3,4.5,0.6,8,0.7,9.4c0.2,2.2-0.1,3.7-0.4,5.2c-0.2,1-0.4,2-0.4,3.2s0.2,2.9,0.4,4.4
							c0.3,2.2,0.5,4.3,0.3,5.7c-0.2,1.1,0,2.4,0.1,3.6c0.2,1.3,0.3,2.5,0.1,3.4c-0.3,1.8-0.1,21.5,0.6,32.8
							c0.4,6.2,0.5,12.3,0.6,16.7c0.1,3.6,0.1,6.2,0.3,7.2c0.4,2.6,2.6,9.5,5.5,9.6c0.5,0,1.8-0.5,3.2-1.1c2.4-1.1,5.8-2.5,9-2.8
							c3.1-0.2,6.2,0.6,8.4,1.1c1.3,0.3,2.9,0.7,3.1,0.5c0.9-1,0.4-3.4-0.1-5.5c-0.4-1.5-0.7-3-0.5-3.9c0.6-2.3,1.4-7.7,1-12.9
							c-0.1-0.8-0.2-1.9-0.3-3.1c-0.7-6.8-1.9-18.2-1.1-26.2c1-9.4,0.9-23.9,0-28.7c-0.5-3.1-0.2-5,0.1-7.3c0.2-1.3,0.4-2.7,0.5-4.5
							c0.2-4.8,2.8-19.7,4.5-26.4c1-4.2,3.3-16.6,5.3-27.6c1.2-6.8,2.4-13.3,3.1-16.5c0.5-2.4,1-4.8,1.5-6.9c1.1-4.8,2-9,1.6-9.8
							c-0.6-1.3-2.2-3.6-3.6-5.5c-2.1-3-2.7-3.8-2.6-4.2l0.7,0.2c0.1,0.3,1.4,2.2,2.5,3.7c1.4,2,3,4.2,3.7,5.6
							c0.5,1-0.2,4.2-1.6,10.3c-0.5,2.1-1,4.5-1.5,6.9c-0.7,3.2-1.8,9.7-3.1,16.5c-2,11-4.3,23.5-5.3,27.7
							c-1.7,6.8-4.3,21.5-4.4,26.3c-0.1,1.8-0.3,3.2-0.5,4.6c-0.3,2.2-0.6,4.1-0.1,7.1c0.9,4.8,1,19.4,0,28.9
							c-0.9,7.9,0.3,19.3,1.1,26.1c0.1,1.2,0.2,2.3,0.3,3.1c0.5,5.3-0.4,10.7-1,13.1c-0.2,0.8,0.1,2.1,0.5,3.6
							c0.5,2.4,1.1,4.9,0,6.1c-0.5,0.6-1.8,0.3-3.8-0.3c-2.2-0.6-5.1-1.3-8.2-1.1s-6.4,1.6-8.8,2.7c-1.6,0.7-2.7,1.2-3.4,1.2
							c0,0,0,0-0.1,0c-3.6-0.2-5.8-8-6.1-10.2c-0.2-1.1-0.2-3.7-0.3-7.3c-0.1-4.4-0.2-10.5-0.6-16.7c-0.7-10.6-0.9-31-0.6-33
							c0.2-0.9,0-2-0.1-3.2c-0.2-1.3-0.3-2.6-0.1-3.8s-0.1-3.4-0.3-5.5c-0.2-1.6-0.4-3.3-0.4-4.5c0-1.3,0.2-2.3,0.4-3.4
							c0.3-1.4,0.6-2.9,0.4-5c-0.1-1.4-0.4-4.9-0.7-9.4c-0.6-7.4-1.3-17.6-1.8-23.3c-0.4-4.2,0.2-7.3,0.6-10.1
							c0.6-3.3,1.1-6.2-0.1-10c-2.2-7.2-2.4-20-2.2-21.9c0.1-1.1-1.5-2.6-2.4-3.4l-1.9,4.4c-1.5,3.5-4.6,56.5-4.6,57.1
							c-0.4,3.6-0.7,6.7-1,9.5c-0.5,5.4-0.9,9.4-1.7,12.5c0,0.9,0,1.9,0,3.3c-0.1,2.8-0.2,7-0.1,14.8c0.1,8-1.9,18.4-3.4,25.9
							c-0.7,3.8-1.3,6.7-1.4,8.4c-0.2,2.3,0.3,3.9,0.9,6.3c0.7,2.7,1.6,6.3,2.1,12.7c0.9,12-1.2,14.5-4.6,17.6
							c-0.1,0-0.1,0.1-0.2,0.1c-1.1,0.1-2.3,0.5-3.5,0.8C211.1,876.9,209.7,877.3,208.6,877.3"/>
						<path class="st33" d="M182.9,926.3c-4.1,0-8-1.1-10-4c-2.8-4.1-0.9-10.3-0.8-10.6l0.6,0.2c0,0.1-2,6.1,0.7,10
							c3.2,4.7,12.8,4.2,18.5,2c5.4-2.1,7.2-4.5,9.9-9c3.6-6.2,8.2-13.6,11.7-16.6c2.9-2.5,3.2-4.5,3.7-7.2c0.1-0.6,0.2-1.1,0.3-1.7
							l0.7,0.1c-0.1,0.6-0.2,1.2-0.3,1.7c-0.4,2.7-0.8,5-3.9,7.6c-3.4,2.9-8,10.3-11.6,16.4c-2.7,4.7-4.6,7.1-10.2,9.3
							C189.6,925.6,186.2,926.3,182.9,926.3"/>
						<path class="st33" d="M270,929.9c-1.3,0-2.6-0.2-4-0.5c-8.3-2-16.6-10.3-15.9-19.4c-0.1-3.6-2.1-7.7-5.9-12.1
							c-3.6-4.2-2.8-10.5-2.8-10.8l0.7,0.1c0,0.1-0.8,6.2,2.6,10.2c3.9,4.6,6,8.8,6.1,12.6c-0.7,8.8,7.3,16.8,15.3,18.7
							c7,1.7,12.7-1.1,15.5-7.7l0.6,0.3C279.9,926.8,275.5,929.9,270,929.9"/>
						<path class="st33" d="M195,900.2c-5-2.7-13.2-1.2-13.3-1.2l-0.1-0.7c0.3-0.1,8.5-1.5,13.7,1.2L195,900.2z"/>
						<path class="st33" d="M196.6,893.1c-5.9-2.6-11,0-11,0l-0.3-0.6c0.2-0.1,5.4-2.8,11.6,0L196.6,893.1z"/>
						<path class="st33" d="M190.2,885.2l-0.3-0.6c0.1,0,5.2-3,10.1,0l-0.4,0.6C195.1,882.4,190.3,885.1,190.2,885.2"/>
						<path class="st33" d="M262.3,904.8l-0.3-0.6c5.2-2.8,13.4-1.3,13.7-1.2l-0.1,0.7C275.4,903.6,267.3,902.1,262.3,904.8"/>
						<path class="st33" d="M260.7,897.6l-0.3-0.6c6.2-2.8,11.4-0.1,11.6,0l-0.3,0.6C271.6,897.5,266.6,894.9,260.7,897.6"/>
						<path class="st33" d="M267,889.7c0,0-4.9-2.8-9.4,0l-0.4-0.6c4.9-3,10.1,0,10.1,0L267,889.7z"/>
						<path class="st33" d="M199.8,663.5c-1.3,0-2.4-1.1-2.4-2.4c0-1.3,1.1-2.4,2.4-2.4c1.3,0,2.4,1.1,2.4,2.4
							S201.1,663.5,199.8,663.5 M199.8,659.4c-0.9,0-1.7,0.8-1.7,1.7s0.8,1.7,1.7,1.7s1.7-0.8,1.7-1.7
							C201.5,660.1,200.8,659.4,199.8,659.4"/>
						<path class="st33" d="M206,635.9c-1.1,0-1.9-1.1-1.9-2.4c0-1.3,0.9-2.4,1.9-2.4c1.1,0,1.9,1.1,1.9,2.4
							C207.9,634.8,207,635.9,206,635.9 M206,631.8c-0.7,0-1.3,0.8-1.3,1.7s0.6,1.7,1.3,1.7s1.3-0.8,1.3-1.7
							C207.2,632.6,206.7,631.8,206,631.8"/>
						<path class="st33" d="M209.1,607.1c-1,0-1.9-1.3-1.9-3s0.8-3,1.9-3c1,0,1.9,1.3,1.9,3C210.9,605.7,210.1,607.1,209.1,607.1
							 M209.1,601.7c-0.6,0-1.2,1-1.2,2.3s0.6,2.3,1.2,2.3c0.6,0,1.2-1,1.2-2.3S209.6,601.7,209.1,601.7"/>
						<path class="st33" d="M209.9,580.9c-0.8,0-1.2-1.6-1.2-3s0.4-3,1.2-3s1.2,1.5,1.2,3S210.7,580.9,209.9,580.9 M209.9,575.6
							c-0.1,0.1-0.5,0.8-0.5,2.3s0.4,2.2,0.5,2.3c0.1-0.1,0.5-0.8,0.5-2.3C210.4,576.4,210,575.7,209.9,575.6"/>
						<path class="st33" d="M164.8,658.4c-0.9,0-1.6-1.2-1.6-2.7s0.7-2.7,1.6-2.7c0.9,0,1.6,1.2,1.6,2.7
							C166.4,657.2,165.7,658.4,164.8,658.4 M164.8,653.7c-0.4,0-0.9,0.9-0.9,2s0.5,2,0.9,2s0.9-0.9,0.9-2
							C165.7,654.6,165.2,653.7,164.8,653.7"/>
						<path class="st33" d="M177.1,683.3l-0.7-0.2c0-0.1,3.3-10.6,4-15.3c0.1-0.4,0.1-1,0.3-1.9c5.4-39.1,6.5-60.9,6.4-72.3
							c-0.1-26.9-2-50-2.1-50.3l0.7-0.1c0,0.2,1.9,23.4,2.1,50.3c0.1,11.4-1,33.2-6.4,72.4c-0.1,0.9-0.2,1.5-0.3,1.9
							C180.4,672.7,177.1,683.2,177.1,683.3"/>
						<path class="st33" d="M254.1,883.8c-4.8-5.1-4.2-11.7-4.1-11.9l0.7,0.1c0,0.1-0.6,6.5,4,11.4L254.1,883.8z"/>
						<path class="st33" d="M265.2,883.1l-0.6-0.3c2.1-5.2,3.7-11.1,2.7-11.6l0.3-0.6C269.6,871.6,266.3,880.4,265.2,883.1"/>
						<path class="st33" d="M297.4,663.5c-0.1,0-8.9-1.4-11.2-1.3l-0.1-0.7c2.5-0.2,11,1.2,11.4,1.3L297.4,663.5z"/>
						<path class="st33" d="M295.9,670.4c-0.1,0-0.1,0-0.2,0c-0.8-0.1-1.2-1.1-1-2.3c0.2-1.1,0.9-1.9,1.7-1.8c0.8,0.1,1.2,1.1,1,2.3
							c-0.1,0.5-0.3,1-0.6,1.3C296.6,670.2,296.2,670.4,295.9,670.4 M295.4,668.2c-0.1,0.8,0.1,1.4,0.5,1.5c0.1,0,0.3-0.1,0.5-0.3
							s0.4-0.6,0.4-1c0.1-0.8-0.1-1.4-0.5-1.5C296,667,295.5,667.5,295.4,668.2"/>
						<path class="st33" d="M204.4,884.3l-0.6-0.3c1.4-3.4,2.7-7.3,2.5-7.9l0.6-0.3C207.3,876.8,205.3,882.1,204.4,884.3"/>
						<path class="st33" d="M193.1,882.3c-0.1-0.3-1.6-6.3-0.2-8.9l0.6,0.3c-1.3,2.4,0.2,8.4,0.2,8.4L193.1,882.3z"/>
					</g>
					<g class="st34">
						<defs>
							<rect id="SVGID_67_" x="15.8" y="-15.6" class="st35" width="462.1" height="1017.4"/>
						</defs>
						<clipPath id="SVGID_68_">
							<use xlink:href="#SVGID_67_"  style="overflow:visible;"/>
						</clipPath>
						<g class="st36">
							<g>
								<defs>
									<rect id="SVGID_69_" x="15.8" y="-15.6" width="462.1" height="1017.4"/>
								</defs>
								<defs>
									<rect id="SVGID_70_" x="15.8" y="-15.6" width="462.1" height="1017.4"/>
								</defs>
								<defs>
									<rect id="SVGID_71_" x="15.8" y="-15.6" width="462.1" height="1017.4"/>
								</defs>
								<defs>
									<rect id="SVGID_72_" x="15.8" y="-15.6" width="462.1" height="1017.4"/>
								</defs>
								<defs>
									<rect id="SVGID_73_" x="15.8" y="-15.6" width="462.1" height="1017.4"/>
								</defs>
								<defs>
									<rect id="SVGID_74_" x="15.8" y="-15.6" width="462.1" height="1017.4"/>
								</defs>
								<defs>
									<rect id="SVGID_75_" x="15.8" y="-15.6" width="462.1" height="1017.4"/>
								</defs>
								<defs>
									<rect id="SVGID_76_" x="15.8" y="-15.6" width="462.1" height="1017.4"/>
								</defs>
								<defs>
									<rect id="SVGID_77_" x="15.8" y="-15.6" width="462.1" height="1017.4"/>
								</defs>
								<defs>
									<rect id="SVGID_78_" x="15.8" y="-15.6" width="462.1" height="1017.4"/>
								</defs>
								<defs>
									<rect id="SVGID_79_" x="15.8" y="-15.6" width="462.1" height="1017.4"/>
								</defs>
								<defs>
									<rect id="SVGID_80_" x="15.8" y="-15.6" width="462.1" height="1017.4"/>
								</defs>
								<defs>
									<rect id="SVGID_81_" x="15.8" y="-15.6" width="462.1" height="1017.4"/>
								</defs>
								<defs>
									<rect id="SVGID_82_" x="15.8" y="-15.6" width="462.1" height="1017.4"/>
								</defs>
								<defs>
									<rect id="SVGID_83_" x="15.8" y="-15.6" width="462.1" height="1017.4"/>
								</defs>
								<defs>
									<rect id="SVGID_84_" x="15.8" y="-15.6" width="462.1" height="1017.4"/>
								</defs>
								<defs>
									<rect id="SVGID_85_" x="15.8" y="-15.6" width="462.1" height="1017.4"/>
								</defs>
								<defs>
									<rect id="SVGID_86_" x="15.8" y="-15.6" width="462.1" height="1017.4"/>
								</defs>
								<defs>
									<rect id="SVGID_87_" x="15.8" y="-15.6" width="462.1" height="1017.4"/>
								</defs>
								<defs>
									<rect id="SVGID_88_" x="15.8" y="-15.6" width="462.1" height="1017.4"/>
								</defs>
								<defs>
									<rect id="SVGID_89_" x="15.8" y="-15.6" width="462.1" height="1017.4"/>
								</defs>
								<defs>
									<rect id="SVGID_90_" x="15.8" y="-15.6" width="462.1" height="1017.4"/>
								</defs>
								<defs>
									<rect id="SVGID_91_" x="15.8" y="-15.6" width="462.1" height="1017.4"/>
								</defs>
								<defs>
									<rect id="SVGID_92_" x="15.8" y="-15.6" width="462.1" height="1017.4"/>
								</defs>
								<defs>
									<rect id="SVGID_93_" x="15.8" y="-15.6" width="462.1" height="1017.4"/>
								</defs>
								<defs>
									<rect id="SVGID_94_" x="15.8" y="-15.6" width="462.1" height="1017.4"/>
								</defs>
								<defs>
									<rect id="SVGID_95_" x="15.8" y="-15.6" width="462.1" height="1017.4"/>
								</defs>
								<defs>
									<rect id="SVGID_96_" x="15.8" y="-15.6" width="462.1" height="1017.4"/>
								</defs>
								<defs>
									<rect id="SVGID_97_" x="15.8" y="-15.6" width="462.1" height="1017.4"/>
								</defs>
								<defs>
									<rect id="SVGID_98_" x="15.8" y="-15.6" width="462.1" height="1017.4"/>
								</defs>
								<defs>
									<rect id="SVGID_99_" x="15.8" y="-15.6" width="462.1" height="1017.4"/>
								</defs>
								<defs>
									<rect id="SVGID_100_" x="15.8" y="-15.6" width="462.1" height="1017.4"/>
								</defs>
								<defs>
									<rect id="SVGID_101_" x="15.8" y="-15.6" width="462.1" height="1017.4"/>
								</defs>
								<defs>
									<rect id="SVGID_102_" x="15.8" y="-15.6" width="462.1" height="1017.4"/>
								</defs>
								<defs>
									<rect id="SVGID_103_" x="15.8" y="-15.6" width="462.1" height="1017.4"/>
								</defs>
								<defs>
									<rect id="SVGID_104_" x="15.8" y="-15.6" width="462.1" height="1017.4"/>
								</defs>
								<defs>
									<rect id="SVGID_105_" x="15.8" y="-15.6" width="462.1" height="1017.4"/>
								</defs>
								<defs>
									<rect id="SVGID_106_" x="15.8" y="-15.6" width="462.1" height="1017.4"/>
								</defs>
								<defs>
									<rect id="SVGID_107_" x="15.8" y="-15.6" width="462.1" height="1017.4"/>
								</defs>
								<defs>
									<rect id="SVGID_108_" x="15.8" y="-15.6" width="462.1" height="1017.4"/>
								</defs>
								<defs>
									<rect id="SVGID_109_" x="15.8" y="-15.6" width="462.1" height="1017.4"/>
								</defs>
								<defs>
									<rect id="SVGID_110_" x="15.8" y="-15.6" width="462.1" height="1017.4"/>
								</defs>
								<defs>
									<rect id="SVGID_111_" x="15.8" y="-15.6" width="462.1" height="1017.4"/>
								</defs>
								<defs>
									<rect id="SVGID_112_" x="15.8" y="-15.6" width="462.1" height="1017.4"/>
								</defs>
								<defs>
									<rect id="SVGID_113_" x="15.8" y="-15.6" width="462.1" height="1017.4"/>
								</defs>
								<defs>
									<rect id="SVGID_114_" x="15.8" y="-15.6" width="462.1" height="1017.4"/>
								</defs>
								<defs>
									<rect id="SVGID_115_" x="15.8" y="-15.6" width="462.1" height="1017.4"/>
								</defs>
								<defs>
									<rect id="SVGID_116_" x="15.8" y="-15.6" width="462.1" height="1017.4"/>
								</defs>
								<defs>
									<rect id="SVGID_117_" x="15.8" y="-15.6" width="462.1" height="1017.4"/>
								</defs>
								<defs>
									<rect id="SVGID_118_" x="15.8" y="-15.6" width="462.1" height="1017.4"/>
								</defs>
								<defs>
									<rect id="SVGID_119_" x="15.8" y="-15.6" width="462.1" height="1017.4"/>
								</defs>
								<defs>
									<rect id="SVGID_120_" x="15.8" y="-15.6" width="462.1" height="1017.4"/>
								</defs>
								<defs>
									<rect id="SVGID_121_" x="15.8" y="-15.6" width="462.1" height="1017.4"/>
								</defs>
								<defs>
									<rect id="SVGID_122_" x="15.8" y="-15.6" width="462.1" height="1017.4"/>
								</defs>
								<clipPath id="SVGID_123_">
									<use xlink:href="#SVGID_69_"  style="overflow:visible;"/>
								</clipPath>
								<clipPath id="SVGID_124_" class="st37">
									<use xlink:href="#SVGID_70_"  style="overflow:visible;"/>
								</clipPath>
								<clipPath id="SVGID_125_" class="st38">
									<use xlink:href="#SVGID_71_"  style="overflow:visible;"/>
								</clipPath>
								<clipPath id="SVGID_126_" class="st39">
									<use xlink:href="#SVGID_72_"  style="overflow:visible;"/>
								</clipPath>
								<clipPath id="SVGID_127_" class="st40">
									<use xlink:href="#SVGID_73_"  style="overflow:visible;"/>
								</clipPath>
								<clipPath id="SVGID_128_" class="st41">
									<use xlink:href="#SVGID_74_"  style="overflow:visible;"/>
								</clipPath>
								<clipPath id="SVGID_129_" class="st42">
									<use xlink:href="#SVGID_75_"  style="overflow:visible;"/>
								</clipPath>
								<clipPath id="SVGID_130_" class="st43">
									<use xlink:href="#SVGID_76_"  style="overflow:visible;"/>
								</clipPath>
								<clipPath id="SVGID_131_" class="st44">
									<use xlink:href="#SVGID_77_"  style="overflow:visible;"/>
								</clipPath>
								<clipPath id="SVGID_132_" class="st45">
									<use xlink:href="#SVGID_78_"  style="overflow:visible;"/>
								</clipPath>
								<clipPath id="SVGID_133_" class="st46">
									<use xlink:href="#SVGID_79_"  style="overflow:visible;"/>
								</clipPath>
								<clipPath id="SVGID_134_" class="st47">
									<use xlink:href="#SVGID_80_"  style="overflow:visible;"/>
								</clipPath>
								<clipPath id="SVGID_135_" class="st48">
									<use xlink:href="#SVGID_81_"  style="overflow:visible;"/>
								</clipPath>
								<clipPath id="SVGID_136_" class="st49">
									<use xlink:href="#SVGID_82_"  style="overflow:visible;"/>
								</clipPath>
								<clipPath id="SVGID_137_" class="st50">
									<use xlink:href="#SVGID_83_"  style="overflow:visible;"/>
								</clipPath>
								<clipPath id="SVGID_138_" class="st51">
									<use xlink:href="#SVGID_84_"  style="overflow:visible;"/>
								</clipPath>
								<clipPath id="SVGID_139_" class="st52">
									<use xlink:href="#SVGID_85_"  style="overflow:visible;"/>
								</clipPath>
								<clipPath id="SVGID_140_" class="st53">
									<use xlink:href="#SVGID_86_"  style="overflow:visible;"/>
								</clipPath>
								<clipPath id="SVGID_141_" class="st54">
									<use xlink:href="#SVGID_87_"  style="overflow:visible;"/>
								</clipPath>
								<clipPath id="SVGID_142_" class="st55">
									<use xlink:href="#SVGID_88_"  style="overflow:visible;"/>
								</clipPath>
								<clipPath id="SVGID_143_" class="st56">
									<use xlink:href="#SVGID_89_"  style="overflow:visible;"/>
								</clipPath>
								<clipPath id="SVGID_144_" class="st57">
									<use xlink:href="#SVGID_90_"  style="overflow:visible;"/>
								</clipPath>
								<clipPath id="SVGID_145_" class="st58">
									<use xlink:href="#SVGID_91_"  style="overflow:visible;"/>
								</clipPath>
								<clipPath id="SVGID_146_" class="st59">
									<use xlink:href="#SVGID_92_"  style="overflow:visible;"/>
								</clipPath>
								<clipPath id="SVGID_147_" class="st60">
									<use xlink:href="#SVGID_93_"  style="overflow:visible;"/>
								</clipPath>
								<clipPath id="SVGID_148_" class="st61">
									<use xlink:href="#SVGID_94_"  style="overflow:visible;"/>
								</clipPath>
								<clipPath id="SVGID_149_" class="st62">
									<use xlink:href="#SVGID_95_"  style="overflow:visible;"/>
								</clipPath>
								<clipPath id="SVGID_150_" class="st63">
									<use xlink:href="#SVGID_96_"  style="overflow:visible;"/>
								</clipPath>
								<clipPath id="SVGID_151_" class="st64">
									<use xlink:href="#SVGID_97_"  style="overflow:visible;"/>
								</clipPath>
								<clipPath id="SVGID_152_" class="st65">
									<use xlink:href="#SVGID_98_"  style="overflow:visible;"/>
								</clipPath>
								<clipPath id="SVGID_153_" class="st66">
									<use xlink:href="#SVGID_99_"  style="overflow:visible;"/>
								</clipPath>
								<clipPath id="SVGID_154_" class="st67">
									<use xlink:href="#SVGID_100_"  style="overflow:visible;"/>
								</clipPath>
								<clipPath id="SVGID_155_" class="st68">
									<use xlink:href="#SVGID_101_"  style="overflow:visible;"/>
								</clipPath>
								<clipPath id="SVGID_156_" class="st69">
									<use xlink:href="#SVGID_102_"  style="overflow:visible;"/>
								</clipPath>
								<clipPath id="SVGID_157_" class="st70">
									<use xlink:href="#SVGID_103_"  style="overflow:visible;"/>
								</clipPath>
								<clipPath id="SVGID_158_" class="st71">
									<use xlink:href="#SVGID_104_"  style="overflow:visible;"/>
								</clipPath>
								<clipPath id="SVGID_159_" class="st72">
									<use xlink:href="#SVGID_105_"  style="overflow:visible;"/>
								</clipPath>
								<clipPath id="SVGID_160_" class="st73">
									<use xlink:href="#SVGID_106_"  style="overflow:visible;"/>
								</clipPath>
								<clipPath id="SVGID_161_" class="st74">
									<use xlink:href="#SVGID_107_"  style="overflow:visible;"/>
								</clipPath>
								<clipPath id="SVGID_162_" class="st75">
									<use xlink:href="#SVGID_108_"  style="overflow:visible;"/>
								</clipPath>
								<clipPath id="SVGID_163_" class="st76">
									<use xlink:href="#SVGID_109_"  style="overflow:visible;"/>
								</clipPath>
								<clipPath id="SVGID_164_" class="st77">
									<use xlink:href="#SVGID_110_"  style="overflow:visible;"/>
								</clipPath>
								<clipPath id="SVGID_165_" class="st78">
									<use xlink:href="#SVGID_111_"  style="overflow:visible;"/>
								</clipPath>
								<clipPath id="SVGID_166_" class="st79">
									<use xlink:href="#SVGID_112_"  style="overflow:visible;"/>
								</clipPath>
								<clipPath id="SVGID_167_" class="st80">
									<use xlink:href="#SVGID_113_"  style="overflow:visible;"/>
								</clipPath>
								<clipPath id="SVGID_168_" class="st81">
									<use xlink:href="#SVGID_114_"  style="overflow:visible;"/>
								</clipPath>
								<clipPath id="SVGID_169_" class="st82">
									<use xlink:href="#SVGID_115_"  style="overflow:visible;"/>
								</clipPath>
								<clipPath id="SVGID_170_" class="st83">
									<use xlink:href="#SVGID_116_"  style="overflow:visible;"/>
								</clipPath>
								<clipPath id="SVGID_171_" class="st84">
									<use xlink:href="#SVGID_117_"  style="overflow:visible;"/>
								</clipPath>
								<clipPath id="SVGID_172_" class="st85">
									<use xlink:href="#SVGID_118_"  style="overflow:visible;"/>
								</clipPath>
								<clipPath id="SVGID_173_" class="st86">
									<use xlink:href="#SVGID_119_"  style="overflow:visible;"/>
								</clipPath>
								<clipPath id="SVGID_174_" class="st87">
									<use xlink:href="#SVGID_120_"  style="overflow:visible;"/>
								</clipPath>
								<clipPath id="SVGID_175_" class="st88">
									<use xlink:href="#SVGID_121_"  style="overflow:visible;"/>
								</clipPath>
								<clipPath id="SVGID_176_" class="st89">
									<use xlink:href="#SVGID_122_"  style="overflow:visible;"/>
								</clipPath>
								<path class="st90" d="M254.9,285.4c0,0,0.4-0.8,1.4-2.1c1-1.3,2.5-3,4.7-4.7c1.1-0.9,2.3-1.7,3.7-2.5
									c1.4-0.8,2.9-1.6,4.5-2.2c1.6-0.7,3.4-1.2,5.2-1.7c1.8-0.4,3.7-0.7,5.6-0.8c1-0.1,1.9,0,2.9,0c1,0.1,1.9,0.1,2.9,0.3
									c1.9,0.3,3.7,0.7,5.4,1.3c1.7,0.6,3.3,1.3,4.7,2.1c1.4,0.8,2.7,1.7,3.8,2.6c1,0.9,2,1.8,2.7,2.6c0.7,0.9,1.4,1.6,1.8,2.3
									c0.5,0.6,0.8,1.2,1,1.6s0.3,0.6,0.3,0.6s-0.2-0.1-0.6-0.2c-0.4-0.2-1-0.3-1.7-0.6c-0.7-0.3-1.6-0.5-2.6-0.9
									s-2.1-0.7-3.3-1.1c-1.2-0.3-2.5-0.7-3.8-1c-0.7-0.2-1.3-0.3-2-0.4s-1.4-0.3-2.1-0.4c-1.4-0.2-2.9-0.3-4.4-0.4
									c-0.7-0.1-1.5,0-2.3-0.1c-0.8,0-1.5,0-2.3,0.1c-1.5,0-3.1,0.2-4.6,0.4c-0.8,0.1-1.5,0.2-2.3,0.3c-0.8,0.1-1.5,0.3-2.2,0.4
									c-2.9,0.6-5.7,1.3-8.1,2s-4.5,1.4-6,1.8c-0.7,0.3-1.3,0.4-1.7,0.6C255.1,285.3,254.9,285.4,254.9,285.4"/>
								<path class="st90" d="M148,288.1c0,0,0.5-0.8,1.7-2c1.1-1.2,2.9-2.8,5.2-4.4c1.2-0.8,2.5-1.6,3.9-2.3c1.5-0.7,3-1.4,4.7-2
									c3.4-1.2,7.2-1.9,11.2-1.9c2,0,3.9,0.1,5.8,0.5c1.9,0.3,3.8,0.8,5.5,1.4s3.3,1.4,4.8,2.2c0.7,0.4,1.4,0.8,2,1.3
									s1.2,0.9,1.8,1.3c1.1,0.9,2.1,1.8,2.8,2.7c0.8,0.9,1.4,1.6,1.9,2.3c0.5,0.7,0.8,1.2,1.1,1.6c0.2,0.4,0.3,0.6,0.3,0.6
									s-0.2-0.1-0.6-0.2c-0.4-0.2-1-0.4-1.8-0.7c-0.7-0.3-1.7-0.6-2.7-1s-2.2-0.7-3.4-1.1s-2.5-0.8-3.9-1.1
									c-1.4-0.3-2.8-0.6-4.3-0.9s-3-0.4-4.6-0.6c-1.6-0.1-3.2-0.2-4.8-0.2s-3.2,0.1-4.8,0.2c-0.8,0.1-1.6,0.2-2.4,0.2
									c-0.8,0.1-1.6,0.2-2.3,0.3c-3.1,0.4-6,1-8.5,1.6c-2.5,0.5-4.7,1.1-6.3,1.4c-0.8,0.2-1.4,0.3-1.8,0.4
									C148.2,288.1,148,288.1,148,288.1"/>
								<path class="st90" d="M190.5,340.9c0,0-0.1,0.4-0.3,1.3c-0.2,0.8-0.4,2-0.6,3.6c-0.1,1.5-0.2,3.5,0.4,5.6
									c0.3,1,0.9,2,1.8,2.7c1,0.7,2.2,1,3.5,0.9c1.3,0,2.6-0.5,4-0.8c1.4-0.4,2.9-0.7,4.4-1c3.1-0.5,6.5-0.6,9.8,0.3
									c1.7,0.5,3.3,1.2,4.8,2.1c1.5,1,2.9,2,4.4,3c1.5,0.9,3,1.8,4.7,2.2c1.7,0.4,3.4,0.4,5.1,0c1.7-0.4,3.3-1.2,4.8-2.1
									s2.9-2,4.5-2.9c3-1.9,6.2-3.5,9.6-4.3c1.7-0.4,3.4-0.5,5.1-0.3c0.8,0.1,1.6,0.3,2.4,0.6c0.8,0.3,1.5,0.5,2.2,0.7
									c1.5,0.3,3,0.5,4.3,0.1c1.3-0.3,2.3-1.3,2.7-2.5c0.4-1.2,0.4-2.5,0.3-3.7s-0.4-2.3-0.6-3.4c-0.6-2.1-1.2-3.9-1.8-5.3
									c-0.6-1.5-1.1-2.6-1.5-3.3c-0.4-0.8-0.5-1.2-0.5-1.2s0.2,0.4,0.6,1.1s0.9,1.9,1.6,3.3s1.4,3.2,2,5.3
									c0.3,1.1,0.6,2.2,0.8,3.4c0.2,1.2,0.2,2.6-0.2,3.9c-0.2,0.7-0.6,1.3-1.1,1.9c-0.5,0.5-1.2,0.9-2,1.1c-1.5,0.4-3.1,0.3-4.6,0
									c-0.8-0.2-1.6-0.4-2.3-0.6c-0.7-0.2-1.5-0.4-2.3-0.5c-1.6-0.2-3.2-0.1-4.8,0.3c-3.2,0.7-6.3,2.3-9.3,4.2
									c-1.5,0.9-2.9,2-4.4,3c-1.6,0.9-3.2,1.8-5.1,2.2c-1.8,0.5-3.8,0.5-5.6,0s-3.4-1.4-4.9-2.4s-2.9-2.1-4.3-3
									c-1.4-0.9-3-1.6-4.5-2.1c-3.2-0.9-6.4-0.9-9.4-0.4c-1.5,0.2-3,0.5-4.4,0.9c-1.4,0.3-2.8,0.8-4.2,0.8
									c-1.4,0.1-2.8-0.3-3.8-1.1c-1-0.8-1.6-1.9-1.9-3c-0.6-2.2-0.4-4.1-0.2-5.7s0.5-2.8,0.7-3.6
									C190.3,341.3,190.5,340.9,190.5,340.9"/>
								<path class="st90" d="M190.2,260c2.3,0.6,4.6,1.1,6.9,1.3c1.2,0.1,2.3,0.2,3.5,0c1.1-0.1,2.3-0.4,3.2-1s1.3-1.7,1.2-2.8
									c-0.1-1.1-0.5-2.2-1-3.2l-0.8-1.6l-1-1.4c-0.3-0.5-0.7-0.9-1.1-1.3c-0.4-0.4-0.7-0.9-1.2-1.3c-1.6-1.6-3.6-2.9-5.6-4
									s-4.2-1.9-6.4-2.6c-2.2-0.6-4.5-1-6.8-1.3l-1.7-0.2l-1.7-0.1c-1.2-0.1-2.3,0-3.5,0c-2.3,0.1-4.7,0.3-7,0.7s-4.6,0.9-6.9,1.5
									c-2.3,0.6-4.5,1.4-6.7,2.2c-1.1,0.4-2.2,0.9-3.2,1.4c-1.1,0.5-2.1,1-3.1,1.6c-1,0.5-2,1.1-3.1,1.7c-1,0.6-2,1.2-2.9,1.9
									c-1.9,1.3-3.8,2.7-5.5,4.3c-1.8,1.5-3.3,3.2-4.8,5c-1.4,1.8-2.6,3.8-3.5,5.9l-0.7-0.9c1.2-0.2,2.5-0.6,3.8-1
									c1.3-0.5,2.5-0.9,3.8-1.4c2.5-1,5.1-1.9,7.7-2.8l3.9-1.2l4-1.1c1.3-0.4,2.7-0.6,4-0.9c1.3-0.4,2.7-0.5,4-0.7
									c1.3-0.3,2.7-0.4,4.1-0.5c1.4-0.1,2.7-0.3,4.1-0.3c1.4,0,2.7-0.1,4.1,0l4.1,0.3c1.4,0.2,2.7,0.4,4.1,0.6
									c1.4,0.1,2.7,0.6,4,0.9s2.7,0.6,3.9,1.1L190.2,260z M190.1,260.1l-3.9-1.3c-1.3-0.5-2.6-0.7-3.9-1c-1.3-0.3-2.6-0.6-4-0.7
									c-1.3-0.1-2.7-0.3-4-0.4l-4.1-0.1c-1.4,0-2.7,0.1-4,0.2c-1.4,0.1-2.7,0.2-4,0.4c-1.3,0.2-2.7,0.3-4,0.6
									c-1.3,0.3-2.7,0.5-4,0.8s-2.6,0.6-3.9,1l-3.9,1.1l-3.9,1.3c-2.6,0.9-5.1,1.8-7.7,2.8c-1.3,0.5-2.6,0.9-3.9,1.4
									c-1.3,0.4-2.6,0.8-4.1,1.1l-1.1,0.2l0.5-1.1c1-2.2,2.3-4.3,3.8-6.1c1.6-1.8,3.2-3.6,5-5.1c1.8-1.6,3.8-2.9,5.7-4.2
									c1-0.6,2-1.2,3-1.8c1-0.5,2.1-1.1,3.1-1.6c4.3-2.1,8.7-3.8,13.2-5c2.3-0.6,4.6-1.2,6.9-1.6c2.3-0.4,4.7-0.7,7-0.9
									c1.2-0.1,2.4-0.2,3.6-0.1h1.8l1.8,0.1c2.4,0.1,4.7,0.6,7,1.1c2.3,0.7,4.6,1.4,6.7,2.6c2.1,1.2,4.1,2.5,5.8,4.3
									c0.4,0.4,0.8,0.9,1.2,1.3c0.4,0.5,0.8,0.9,1.1,1.5l1,1.6l0.8,1.6c0.5,1.1,0.9,2.3,1,3.5c0,0.6,0,1.3-0.3,1.9
									s-0.7,1.1-1.2,1.4c-1.1,0.7-2.3,0.9-3.5,1s-2.4,0-3.5-0.1C194.7,261.3,192.4,260.8,190.1,260.1"/>
								<path class="st90" d="M260.7,246.8c-1.8,1-3.6,2.1-5.2,3.4c-1.6,1.3-3,2.9-3.7,4.8c-0.8,1.9-0.2,4.1,1,5.6
									c1.3,1.6,3.2,2.2,5.2,2.2s4-0.4,6-1s3.9-1.3,5.8-2c3.9-1.5,7.7-3.1,11.7-4.5c2-0.7,4-1.2,6.1-1.6c2.1-0.4,4.1-0.7,6.2-0.9
									c1-0.1,2.1-0.1,3.1-0.2c1,0,2.1,0,3.1,0c2.1,0.1,4.2,0.3,6.2,0.6c1,0.2,2.1,0.3,3.1,0.5l3.1,0.7l3,0.9l3,1
									c1.9,0.8,3.9,1.5,5.8,2.5c1.9,0.9,3.7,1.9,5.5,2.9l-0.8,0.7c-1.4-2.9-3.1-5.7-5.1-8.2c-2-2.5-4.3-4.9-6.8-6.8
									c-1.3-1-2.6-1.8-4-2.6c-1.4-0.7-2.9-1.4-4.4-1.8l-2.4-0.7c-0.8-0.2-1.6-0.3-2.4-0.5c-0.8-0.1-1.6-0.3-2.4-0.4l-2.4-0.3
									c-0.8-0.1-1.6-0.2-2.4-0.3l-2.4-0.1c-1.6,0-3.2-0.2-4.9,0l-4.9,0.3l-4.8,0.7c-0.8,0.1-1.6,0.2-2.4,0.3l-2.4,0.5l-4.8,1.1
									c-1.6,0.4-3.1,1-4.7,1.4L260.7,246.8z M260.7,246.6l4.7-1.6c1.6-0.5,3.1-1.1,4.7-1.5l4.8-1.3l2.4-0.6
									c0.8-0.2,1.6-0.3,2.4-0.5l4.9-0.9c1.6-0.2,3.3-0.3,4.9-0.5s3.3-0.1,5-0.1h2.5c0.8,0.1,1.7,0.2,2.5,0.2l2.5,0.3
									c0.8,0.1,1.6,0.3,2.5,0.5c0.8,0.2,1.6,0.3,2.5,0.5l2.4,0.7c1.6,0.4,3.2,1.1,4.7,1.9c1.5,0.8,2.9,1.7,4.2,2.8
									c2.6,2.1,4.9,4.5,7,7.1c2,2.6,3.7,5.5,5.1,8.5l0.7,1.5l-1.5-0.8c-1.8-1-3.5-2.1-5.4-3.1c-0.9-0.5-1.8-1-2.8-1.4
									c-0.9-0.4-1.9-0.9-2.8-1.2l-2.9-1.1l-3-0.9c-1-0.3-2-0.5-3-0.7s-2-0.4-3.1-0.6c-2-0.3-4.1-0.5-6.2-0.6c-1,0-2.1,0-3.1,0
									s-2.1,0.1-3.1,0.2c-2.1,0.2-4.1,0.6-6.1,1.1s-4,1.1-5.9,1.8c-1.9,0.7-3.8,1.6-5.8,2.3l-5.8,2.3c-2,0.8-3.9,1.4-6,2
									c-2,0.5-4.1,1-6.3,0.9c-1.1-0.1-2.2-0.3-3.2-0.7c-0.5-0.2-1-0.5-1.4-0.9l-0.6-0.5c-0.2-0.2-0.3-0.4-0.5-0.6l-0.5-0.7
									l-0.3-0.7c-0.1-0.3-0.2-0.5-0.3-0.8l-0.2-0.8c-0.2-0.5,0-1.1,0-1.6c0.1-0.5,0.3-1.1,0.4-1.6c0.9-2,2.4-3.5,4-4.9
									C257,248.7,258.8,247.6,260.7,246.6L260.7,246.6z"/>
								<path class="st90" d="M113.1,317.2c-0.3,4.9-0.4,9.7-0.4,14.6c0.1,4.9,0.2,9.7,0.7,14.5c0.3,2.4,0.6,4.8,1.1,7.2
									c0.5,2.4,1.1,4.7,2,6.9c0.5,1.1,1,2.1,1.7,3.1c0.7,0.9,1.5,1.7,2.5,2.2s2.1,0.5,3.2,0.3s2.2-0.7,3.2-1.3l0.7-0.4l0.2,0.8
									c1.4,6.7,3,13.5,4.8,20.1s3.8,13.2,6.3,19.6c1.2,3.2,2.6,6.4,4,9.5c0.7,1.6,1.5,3.1,2.3,4.6s1.7,3,2.5,4.5
									c0.9,1.5,1.8,2.9,2.8,4.3s2.1,2.7,3.2,4c1.1,1.3,2.3,2.5,3.7,3.6c1.3,1.1,2.7,2.1,4.1,3h0.1l0,0c3.7,4.9,7.3,9.9,10.4,15.3
									c-1.7-2.6-3.4-5.1-5.2-7.6s-3.7-4.9-5.6-7.3l0.1,0.1c-1.5-0.9-3-1.8-4.3-3c-1.4-1.1-2.6-2.3-3.8-3.6c-1.2-1.3-2.3-2.6-3.3-4
									s-2-2.8-3-4.3c-0.9-1.5-1.8-3-2.7-4.5c-0.8-1.5-1.6-3.1-2.4-4.6c-1.5-3.1-2.9-6.3-4.1-9.5c-2.5-6.5-4.6-13.1-6.4-19.7
									c-1.8-6.7-3.3-13.4-4.7-20.2l0.9,0.4c-1.1,0.6-2.3,1.2-3.6,1.4c-1.3,0.3-2.7,0.2-3.9-0.4c-1.2-0.6-2.2-1.5-3-2.5
									s-1.3-2.2-1.8-3.3c-0.9-2.3-1.5-4.7-2-7.1c-0.4-2.4-0.7-4.8-0.9-7.3c-0.4-4.9-0.5-9.8-0.4-14.6
									C112.3,326.9,112.6,322.1,113.1,317.2"/>
								<path class="st90" d="M292.5,455.6c2.9-2.9,5.6-6,8.3-9.2c1.3-1.6,2.6-3.2,3.8-4.8l3.6-5l3.5-5.1l3.3-5.2
									c1.1-1.8,2-3.6,3.1-5.4c1-1.8,1.9-3.6,2.8-5.5c0.9-1.8,1.9-3.7,2.6-5.6l2.5-5.6l2.1-5.8c0.3-1,0.7-1.9,1-2.9l0.9-3
									c0.6-2,1.2-3.9,1.7-5.9l1.3-6c0.2-1,0.5-2,0.6-3l0.4-3l0.9-6.1l0.1-0.8l0.8,0.2c1.9,0.6,3.9,0.8,5.9,0.9c2,0,4-0.2,5.9-0.8
									c1.9-0.6,3.6-1.7,4.9-3.1c0.7-0.7,1.2-1.6,1.7-2.4c0.2-0.4,0.4-0.9,0.6-1.4s0.4-0.9,0.5-1.4c0.5-1.9,0.9-4,1.3-6
									s0.9-4.1,1.3-6.1l1.3-6.1c0.4-2,0.9-4,1.3-6.1c0.4-2,0.8-4.1,1-6.1c0.3-2,0.5-4.1,0.6-6.1c0.1-1,0.1-2.1,0.1-3.1
									s0-2.1,0-3.1c-0.1-2.1-0.1-4.2-0.1-6.2c-0.1-4.1-0.1-8.3-1-12.3c-0.5-2-1.2-4-2.3-5.7c-1.1-1.7-2.6-3.2-4.3-4.4
									c1.8,1.1,3.3,2.5,4.5,4.3c1.2,1.7,2,3.7,2.5,5.7c1,4.1,1.2,8.3,1.3,12.4c0.1,2.1,0.1,4.1,0.2,6.2c0.1,1,0.1,2.1,0.1,3.1
									s0.1,2.1,0,3.1c-0.1,2.1-0.2,4.2-0.6,6.2c-0.2,2.1-0.6,4.1-0.9,6.2c-0.7,4.1-1.6,8.2-2.4,12.2c-0.4,2-0.9,4-1.2,6.1
									c-0.4,2-0.7,4-1.3,6.1c-0.1,0.5-0.3,1-0.5,1.5s-0.4,1-0.6,1.5c-0.6,0.9-1.1,1.9-1.9,2.6c-1.5,1.6-3.4,2.8-5.4,3.5
									c-2.1,0.7-4.2,0.9-6.3,0.9c-2.1-0.1-4.2-0.3-6.3-0.9l0.9-0.6l-0.9,6.2l-0.5,3.1c-0.2,1-0.4,2-0.7,3L333,387
									c-0.5,2-1.2,4-1.7,6l-0.9,3c-0.3,1-0.7,1.9-1.1,2.9l-2.2,5.8l-2.5,5.7c-0.8,1.9-1.8,3.7-2.7,5.6c-0.9,1.8-1.9,3.7-2.9,5.5
									c-1.1,1.8-2,3.6-3.2,5.3l-3.4,5.2l-3.6,5.1L305,442c-1.3,1.6-2.6,3.2-4,4.8c-1.4,1.5-2.7,3.1-4.2,4.6
									C295.5,452.7,294,454.2,292.5,455.6"/>
								<path class="st90" d="M350.5,299.4c0,0-0.1,0.8-0.1,2.4c-0.1,1.6-0.3,3.9-0.6,6.8c-0.1,0.7-0.1,1.5-0.2,2.3
									s-0.2,1.6-0.5,2.5c-0.4,1.8-1.3,3.5-2.2,5.3c-1.8,3.6-3.1,8.1-5,12.8c-0.2,0.6-0.5,1.2-0.8,1.8c-0.1,0.1-0.2,0.3-0.3,0.4
									c-0.1,0.1-0.1,0.1-0.2,0.2s-0.2,0.2-0.5,0.2c-0.2-0.1-0.2-0.3-0.3-0.4c0-0.1,0-0.2,0-0.3c0-0.2,0-0.3,0-0.5
									c0.1-1.3,0.2-2.6,0.3-4c0.2-2.7,0.4-5.5,0.7-8.4c0.1-2.9,0.2-5.8,0.3-8.8c-0.1-3-0.2-6.1-0.4-9.2c-0.2-3.1-0.3-6.3-0.5-9.6
									c-0.1-1.6-0.2-3.2-0.3-4.9c0-1.6-0.1-3.3-0.1-4.9c-0.1-6.6-0.3-13.3-0.3-20c-0.1-6.7,0.3-13.5,0.5-20c0.3-6.6,0-13-1-19.2
									s-1.9-12.2-3.2-17.8c-0.4-1.4-0.6-2.8-1-4.1s-0.8-2.6-1.2-3.9c-0.4-1.3-1-2.5-1.4-3.7c-0.5-1.2-0.9-2.4-1.5-3.5
									s-1.1-2.2-1.6-3.3c-0.3-0.5-0.5-1.1-0.8-1.6s-0.6-1-0.9-1.5c-1.2-2-2.3-3.8-3.4-5.5s-2.1-3.3-3-4.9c-0.8-1.6-1.6-3-2.2-4.4
									c-0.3-0.7-0.5-1.3-0.8-1.9c-0.1-0.3-0.2-0.6-0.3-0.9c-0.1-0.3-0.1-0.6-0.2-0.9c-0.1-0.6-0.3-1.1-0.4-1.5
									c-0.1-0.5-0.1-0.9-0.1-1.3c-0.1-1.6,0.5-2.4,0.5-2.4l0.1,0.1c0,0-0.5,0.7-0.4,2.3c0,0.4,0.1,0.8,0.2,1.3s0.3,1,0.4,1.5
									c0.1,0.3,0.2,0.6,0.2,0.8c0.1,0.3,0.2,0.6,0.4,0.9c0.3,0.6,0.5,1.2,0.8,1.9c0.6,1.3,1.5,2.7,2.3,4.2c0.9,1.5,2,3.1,3.1,4.8
									s2.3,3.6,3.5,5.5c0.3,0.5,0.6,1,0.9,1.5s0.6,1.1,0.8,1.6c0.6,1.1,1.1,2.2,1.7,3.3s1,2.3,1.6,3.5c0.5,1.2,1.1,2.4,1.5,3.7
									s0.9,2.6,1.3,4c0.4,1.3,0.7,2.7,1.1,4.1c1.4,5.6,2.3,11.7,3.3,17.9c0.2,1.6,0.4,3.2,0.6,4.7c0.2,1.6,0.3,3.2,0.4,4.8
									c0.2,3.3,0.1,6.6,0,9.9c-0.3,6.6-0.7,13.3-0.7,20s0.1,13.4,0.1,20c0,1.7,0,3.3,0,4.9c0.1,1.6,0.2,3.3,0.2,4.9
									c0.1,3.2,0.3,6.4,0.4,9.6s0.2,6.2,0.3,9.3c0,3-0.2,6-0.3,8.9c-0.3,2.9-0.5,5.7-0.8,8.4c-0.1,1.3-0.3,2.7-0.4,4
									c0,0.2,0,0.3,0,0.5c0,0.1,0.1,0.3,0,0.2c-0.1,0-0.1,0-0.1,0l0.1-0.1c0.1-0.1,0.2-0.3,0.2-0.4c0.3-0.6,0.5-1.1,0.8-1.7
									c1.9-4.6,3.3-9.1,5.1-12.7c0.9-1.8,1.8-3.5,2.2-5.2c0.3-0.8,0.3-1.7,0.5-2.5c0.1-0.8,0.2-1.6,0.2-2.3
									c0.3-2.9,0.6-5.2,0.7-6.8c0.1-1.6,0.2-2.4,0.2-2.4L350.5,299.4z"/>
								<path class="st90" d="M320.6,157.3c1.1-5.7,0-11.5-1.6-16.9c-1.7-5.5-4.2-10.7-7.1-15.6c-1.4-2.5-3.1-4.8-4.7-7.2
									c-0.8-1.2-1.7-2.3-2.6-3.4s-1.7-2.3-2.7-3.4c-1.9-2.1-3.7-4.4-5.7-6.5s-3.9-4.2-6-6.2s-4.1-4-6.3-5.9l-3.2-2.8l-3.3-2.7
									c-2.2-1.8-4.6-3.5-6.8-5.2c-1.1-0.9-2.4-1.6-3.6-2.4s-2.4-1.6-3.6-2.3c-2.5-1.4-4.9-2.9-7.5-4.2c-2.5-1.4-5.1-2.5-7.7-3.7
									c-5.3-2.2-10.7-4-16.3-5.2S220.6,61.9,215,62c-5.7,0-11.3,1.3-16.7,3c-5.5,1.7-10.8,3.8-16,6.1c-5.2,2.3-10.3,4.9-15.4,7.6
									c-10,5.5-19.7,11.6-28.7,18.7c-4.5,3.5-8.8,7.3-12.7,11.5c-2,2.1-3.8,4.3-5.5,6.6c-1.6,2.3-3.1,4.8-4.2,7.3l-0.7-0.6
									c4.3-2.5,8.5-5,12.9-7.4c2.2-1.2,4.4-2.3,6.5-3.5c2.2-1.1,4.4-2.2,6.7-3.3c2.2-1.1,4.5-2,6.8-3l3.5-1.3l3.5-1.2
									c2.4-0.7,4.8-1.4,7.2-1.8c1.2-0.3,2.4-0.5,3.7-0.6l1.8-0.3l1.9-0.1l1.9-0.1h1.9c1.2,0,2.5,0,3.7,0.1
									c2.5,0.1,4.9,0.5,7.4,0.9c2.4,0.5,4.8,1,7.3,1.5c2.4,0.6,4.8,1.2,7.2,1.9c2.4,0.8,4.7,1.5,7,2.4c2.3,0.8,4.5,2,6.8,3
									c2.2,1.2,4.4,2.3,6.4,3.7c2.1,1.3,4.2,2.7,6.2,4c-2.1-1.3-4.1-2.7-6.3-3.9c-2.1-1.3-4.3-2.4-6.5-3.6c-2.2-1-4.5-2.1-6.8-2.9
									c-2.3-0.9-4.7-1.6-7-2.3c-2.4-0.7-4.8-1.2-7.2-1.8c-2.4-0.5-4.8-0.9-7.3-1.4c-2.4-0.4-4.9-0.7-7.3-0.8
									c-1.2-0.1-2.5-0.1-3.7-0.1h-1.8l-1.8,0.1l-1.8,0.1l-1.8,0.3c-1.2,0.2-2.4,0.3-3.6,0.6c-2.4,0.5-4.8,1.1-7.1,1.9l-3.5,1.2
									l-3.4,1.3c-2.3,1-4.5,1.9-6.8,3c-2.2,1-4.4,2.2-6.6,3.3c-2.2,1.2-4.4,2.3-6.5,3.5c-4.3,2.4-8.6,4.9-12.8,7.4l-1.3,0.8
									l0.6-1.4c1.1-2.7,2.6-5.2,4.3-7.6c1.7-2.3,3.5-4.6,5.5-6.7c3.9-4.2,8.2-8.1,12.7-11.7c9-7.2,18.7-13.4,28.8-18.9
									c5-2.8,10.2-5.3,15.5-7.6c5.3-2.3,10.6-4.4,16.2-6.1c5.5-1.7,11.2-3,17.1-2.9c5.8-0.1,11.6,0.6,17.2,1.8
									c5.6,1.2,11.1,3.1,16.4,5.3c2.6,1.2,5.3,2.3,7.8,3.7c2.6,1.3,5,2.8,7.5,4.3c1.2,0.7,2.4,1.6,3.6,2.3
									c1.2,0.8,2.4,1.5,3.6,2.4c2.3,1.7,4.7,3.4,6.9,5.2l3.3,2.7l3.2,2.9c2.2,1.9,4.2,3.9,6.3,5.9c2.1,2,4,4.1,6,6.2
									s3.8,4.3,5.7,6.5c0.9,1.1,1.7,2.3,2.6,3.4c0.8,1.2,1.8,2.3,2.6,3.5c1.6,2.4,3.2,4.8,4.6,7.3c2.9,5,5.3,10.2,6.9,15.7
									C320.8,145.8,321.8,151.6,320.6,157.3"/>
								<path class="st90" d="M209,430.4c-0.2,2.4,0.3,4.8,1.2,7c0.2,0.5,0.5,1,0.8,1.5c0.4,0.5,0.6,1,1,1.4l0.6,0.7l0.6,0.6
									c0.4,0.4,0.9,0.8,1.4,1.1c0.5,0.4,1,0.7,1.5,1l1.6,0.9l3.1,1.8c0.5,0.3,1,0.6,1.6,0.9l1.5,1.1c0.5,0.4,1,0.7,1.4,1.1
									l0.7,0.7l0.3,0.3c0.1,0.1,0.2,0.3,0.3,0.5h-0.5c0.1-0.7,0.2-1.4,0.2-2.1c0-0.4,0-0.7-0.1-1.1c0-0.4-0.2-0.7-0.3-1.1
									c0.2,0.3,0.4,0.7,0.4,1c0.1,0.4,0.2,0.7,0.2,1.1c0.1,0.7,0.1,1.5,0,2.3l-0.1,0.5l-0.5-0.5c-0.1-0.1-0.1-0.2-0.2-0.3
									l-0.3-0.3l-0.6-0.6c-0.4-0.4-1-0.7-1.5-1l-1.5-1c-0.5-0.3-1.1-0.6-1.6-0.9l-3.2-1.8c-0.5-0.3-1-0.6-1.6-0.9
									c-0.5-0.3-1.1-0.6-1.6-1s-1-0.8-1.4-1.2l-0.7-0.7l-0.6-0.7c-0.4-0.5-0.7-1-1.1-1.6c-0.3-0.6-0.6-1.1-0.8-1.7
									s-0.4-1.2-0.5-1.8c-0.1-0.6-0.3-1.2-0.3-1.8c-0.1-0.6-0.1-1.2,0-1.8C208.7,431.6,208.8,431,209,430.4"/>
								<path class="st90" d="M227,439.2c0,0.5,0.2,0.9,0.4,1.3c0.1,0.2,0.2,0.4,0.3,0.6s0.2,0.4,0.4,0.5c0.2,0.4,0.5,0.7,0.8,1
									s0.6,0.6,1,0.9l2.1,1.7c0.4,0.3,0.7,0.7,1,1c0.2,0.2,0.3,0.3,0.5,0.5s0.3,0.3,0.5,0.7l0.8,2l-1.6-1.5
									c-0.2-0.2-0.3-0.4-0.3-0.5c-0.1-0.2-0.1-0.3-0.1-0.5c0-0.3,0-0.6,0.1-0.8c0-0.3,0.2-0.5,0.2-0.7c0.1-0.2,0.2-0.5,0.3-0.7
									c0.2-0.4,0.5-0.8,0.8-1.2l0.4-0.6l0.4-0.5l0.8-1.1c0.3-0.4,0.6-0.7,0.8-1.1l0.7-1.1c0.1-0.2,0.2-0.4,0.3-0.6
									s0.2-0.4,0.2-0.6c0,0.2,0,0.5-0.1,0.7s-0.1,0.5-0.2,0.7l-0.5,1.3c-0.2,0.5-0.5,0.8-0.7,1.2l-0.7,1.2l-0.4,0.6l-0.4,0.6
									c-0.3,0.4-0.5,0.8-0.6,1.2c-0.1,0.2-0.2,0.4-0.3,0.6s-0.2,0.4-0.2,0.6s-0.1,0.4-0.1,0.5c0,0.2,0.1,0.3,0,0.3l-0.8,0.5
									l-0.3-0.4c-0.1-0.2-0.3-0.3-0.4-0.5c-0.3-0.3-0.6-0.6-0.9-0.9l-1-0.9l-0.5-0.5l-0.5-0.5c-0.3-0.3-0.7-0.7-0.9-1
									c-0.3-0.4-0.6-0.7-0.8-1.2c-0.1-0.2-0.2-0.4-0.3-0.6s-0.2-0.4-0.2-0.7C227,440.2,226.9,439.7,227,439.2"/>
								<path class="st90" d="M229.3,452.5c2.1,0.2,4.1,0.6,6.2,1c1,0.2,2,0.5,3,0.9c0.5,0.2,1,0.4,1.5,0.6c0.2,0.1,0.5,0.3,0.7,0.5
									s0.5,0.4,0.6,0.8l-0.8-0.1c0.6-1.3,1.3-2.6,2-3.9c0.8-1.2,1.5-2.5,2.4-3.6c1.6-2.4,3.5-4.6,5.2-6.9c0.9-1.1,1.7-2.3,2.6-3.4
									c0.4-0.6,0.8-1.2,1.2-1.8c0.4-0.6,0.7-1.2,1-1.9c0.1-0.3,0.2-0.7,0.3-1c0-0.3,0.1-0.7,0-1l-0.2-2.1c0-0.7-0.3-1.4-0.4-2.1
									c-0.1-0.4-0.2-0.7-0.3-1s-0.2-0.7-0.4-1c0.2,0.3,0.3,0.6,0.5,1c0.2,0.3,0.3,0.7,0.4,1c0.2,0.7,0.5,1.4,0.6,2.1l0.4,2.1
									c0.1,0.4,0,0.8,0,1.2c-0.1,0.4-0.2,0.7-0.3,1.1c-0.3,0.7-0.6,1.4-0.9,2c-0.3,0.7-0.7,1.3-1.1,1.9c-0.8,1.2-1.7,2.4-2.5,3.5
									c-1.7,2.3-3.5,4.6-5.2,6.9c-0.8,1.2-1.6,2.3-2.4,3.5c-0.4,0.6-0.7,1.2-1.1,1.8l-1,1.9l-0.6,1.1l-0.2-1.2
									c0-0.2-0.5-0.6-0.9-0.8c-0.4-0.3-0.9-0.5-1.4-0.7c-1-0.4-1.9-0.7-2.9-1C233.4,453.4,231.3,452.9,229.3,452.5"/>
								<path class="st90" d="M174,455.6c1,1.4,1.9,2.8,2.8,4.2c0.9,1.4,1.7,2.9,2.5,4.4s1.5,3,2.2,4.6c0.3,0.8,0.6,1.6,0.9,2.4
									c0.1,0.4,0.2,0.8,0.3,1.3c0.1,0.4,0.1,0.9,0.2,1.3l-0.4-0.3c1.6-0.2,3.2-0.3,4.8-0.4c-1.6,0.4-3.2,0.7-4.7,1l-0.3,0.1
									l-0.1-0.4c-0.1-0.4-0.1-0.8-0.3-1.2c-0.1-0.4-0.2-0.8-0.4-1.2c-0.3-0.8-0.6-1.5-1-2.3c-0.7-1.5-1.4-3-2.2-4.5l-2.2-4.5
									C175.5,458.6,174.8,457.1,174,455.6"/>
								<path class="st90" d="M185.3,472.6c0.8,0.8,1.6,1.6,2.5,2.3c0.9,0.7,1.7,1.5,2.6,2.2c0.9,0.7,1.8,1.4,2.7,2.1l2.8,1.9
									c0.9,0.7,1.9,1.2,2.9,1.8c1,0.6,1.9,1.2,2.9,1.8l3,1.6c1,0.5,2,1.1,3.1,1.5c2.1,0.9,4.2,1.8,6.3,2.6l3.2,1.3
									c1.1,0.4,2.1,1,3.1,1.4c1,0.5,2.1,1,3.1,1.5c1,0.6,2,1.1,3,1.7s1.9,1.2,2.8,2c0.5,0.3,0.9,0.7,1.3,1.2
									c0.4,0.4,0.8,0.8,1.2,1.4l-0.7-0.2l5.7-3.4c1.9-1.1,3.8-2.3,5.7-3.4l5.8-3.3c1.9-1.1,3.9-2.1,5.9-3.2l2.9-1.6
									c0.9-0.5,2-1,2.8-1.7c0.9-0.6,1.7-1.3,2.6-2c0.8-0.7,1.6-1.5,2.3-2.3c1.5-1.6,2.8-3.4,3.9-5.3c1.2-1.9,2.2-3.8,3-5.9
									c-0.8,2.1-1.7,4.1-2.8,6c-1.1,1.9-2.4,3.8-3.8,5.5c-0.7,0.9-1.5,1.7-2.3,2.4c-0.8,0.7-1.7,1.5-2.6,2.1
									c-0.9,0.7-1.9,1.2-2.9,1.7l-2.9,1.6c-1.9,1.1-3.9,2.1-5.8,3.2l-5.7,3.4c-1.9,1.1-3.8,2.3-5.7,3.4l-5.7,3.5l-0.4,0.2
									l-0.3-0.4c-0.3-0.4-0.6-0.8-1-1.2c-0.4-0.4-0.8-0.8-1.2-1.1c-0.8-0.7-1.8-1.3-2.7-2s-2-1.1-2.9-1.7c-1-0.6-2-1-3-1.5
									s-2-1-3.1-1.4l-3.2-1.3c-2.1-0.8-4.2-1.8-6.3-2.7c-1.1-0.4-2.1-1-3.1-1.6l-3-1.7c-1-0.6-1.9-1.2-2.9-1.8
									c-1-0.6-2-1.2-2.9-1.9l-2.7-2.1c-0.9-0.7-1.8-1.5-2.6-2.2c-0.9-0.7-1.7-1.5-2.6-2.3C186.9,474.2,186.1,473.4,185.3,472.6"/>
								<path class="st90" d="M262.7,484.3c1.6,1.1,3.1,2.3,4.6,3.4H267c2.5-2.5,4.8-5.2,7.2-7.8c2.4-2.6,4.7-5.3,7-8
									c1.1-1.4,2.2-2.7,3.3-4.1c1.1-1.4,2.1-2.8,3.1-4.3s1.9-3,2.6-4.6c0.4-0.8,0.7-1.6,0.9-2.5c0.2-0.9,0.3-1.7,0-2.6
									c0.3,0.8,0.3,1.8,0.2,2.7c-0.2,0.9-0.4,1.8-0.7,2.6c-0.6,1.7-1.5,3.3-2.4,4.8c-1.8,3.1-4,5.9-6.3,8.7
									c-2.2,2.8-4.6,5.4-7.1,8c-1.2,1.3-2.5,2.6-3.7,3.8c-1.3,1.2-2.5,2.5-3.8,3.7l-0.2,0.1L267,488
									C265.6,486.8,264.2,485.6,262.7,484.3"/>
								<path class="st90" d="M180.2,391.5c0.7-0.9,1.7-1.4,2.7-1.8c0.5-0.2,1-0.4,1.5-0.6l1.6-0.5c2.1-0.6,4.3-1,6.5-1.3
									s4.4-0.5,6.6-0.6c2.2-0.2,4.4-0.2,6.6-0.2c2.2,0,4.4,0,6.6,0.1l3.3,0.1l3.3,0.2c2.2,0.2,4.4,0.2,6.5,0.3h3.3l3.3-0.2
									l3.3-0.3l3.3-0.4l6.5-1c4.3-0.6,8.7-1.2,13.1-1.6c4.4-0.4,8.8-0.6,13.2-0.4c2.2,0.1,4.4,0.4,6.5,1c1.1,0.3,2.1,0.8,3,1.4
									s1.7,1.5,2,2.6v0.1v0.1c-1.1,2.2-2.6,4.2-4.2,6s-3.4,3.5-5.3,5c-1.9,1.6-3.9,2.9-6,4.2c-2.1,1.3-4.2,2.4-6.5,3.5
									c-2.2,1-4.5,1.9-6.8,2.8c-1.2,0.4-2.3,0.8-3.5,1.2L247,412c-2.4,0.5-4.8,1-7.2,1.3c-2.4,0.4-4.9,0.6-7.3,0.7
									c-2.4,0.1-4.9,0.1-7.3-0.2c-2.4-0.2-4.9-0.6-7.2-1.2c-1.2-0.3-2.4-0.6-3.5-1c-1.2-0.4-2.3-0.8-3.5-1.2
									c-2.3-0.9-4.5-1.9-6.7-3c-4.3-2.2-8.7-4.4-13-6.7c-2.1-1.1-4.3-2.3-6.3-3.7c-1-0.7-2-1.4-2.9-2.2
									C181.1,393.9,180.4,392.8,180.2,391.5L180.2,391.5L180.2,391.5z M180.2,391.6c0.2,1.2,0.9,2.2,1.8,3
									c0.9,0.8,1.9,1.5,2.9,2.2c2.1,1.3,4.2,2.4,6.4,3.5c4.3,2.2,8.7,4.4,13,6.6c2.2,1.1,4.4,2.1,6.6,2.9c1.1,0.5,2.3,0.8,3.4,1.2
									c1.2,0.3,2.3,0.6,3.5,0.9c2.4,0.5,4.7,1,7.1,1.2c2.4,0.3,4.8,0.3,7.2,0.2c2.4-0.1,4.8-0.3,7.2-0.7c2.4-0.4,4.8-0.8,7.1-1.3
									l3.6-0.8c1.1-0.3,2.3-0.8,3.4-1.1c2.3-0.8,4.5-1.7,6.7-2.7c1.1-0.5,2.2-1.1,3.3-1.6c1.1-0.6,2.1-1.2,3.2-1.8
									c2.1-1.3,4.1-2.6,6-4.1s3.7-3.1,5.3-4.9c1.6-1.8,3.1-3.7,4.2-5.9v0.1c-0.3-1-1-1.9-1.9-2.5s-1.9-1.1-2.9-1.4
									c-2.1-0.6-4.3-0.9-6.4-1.1c-4.4-0.3-8.8,0.1-13.1,0.5c-4.4,0.4-8.7,1.1-13,1.8l-6.5,1l-3.3,0.5l-3.3,0.4l-3.3,0.2h-3.3
									c-2.2,0-4.4-0.1-6.6-0.3l-3.3-0.3l-3.3-0.1c-2.2-0.1-4.4-0.1-6.6-0.2c-2.2,0-4.4,0-6.6,0.1c-2.2,0.1-4.4,0.3-6.5,0.5
									c-2.2,0.3-4.3,0.6-6.4,1.2l-1.6,0.5c-0.5,0.2-1,0.4-1.5,0.6C182,390.3,181,390.7,180.2,391.6"/>
								<path class="st90" d="M325,160.7c0,0,0.5,0.1,1.5,0.5s2.4,1,4,2c3.3,2.1,7.5,6,10.9,11.8c1.7,2.9,3.2,6.2,4.8,9.7
									c1.6,3.4,3.6,6.9,5.6,10.6c1.9,3.7,3.9,7.6,4.9,12c1,4.3,1.2,8.9,1,13.4s-0.9,8.9-1.4,13.2s-1,8.6-1.5,12.7
									c-0.3,2.1-0.4,4.1-0.6,6.1c-0.1,1-0.2,2-0.3,2.9c0,1-0.1,1.9-0.1,2.9c0,0.5,0,1-0.1,1.4c0,0.5,0,0.9-0.1,1.4
									c-0.1,1-0.3,1.9-0.6,2.8c-0.6,1.7-1,3.3-1.1,5c0,0.8-0.1,1.7-0.1,2.4c0.1,0.8,0.1,1.6,0.2,2.3c0.3,1.4,0.8,2.8,1.2,4.1
									c0.8,2.6,1,5.1,0.7,7c-0.1,2-0.6,3.4-0.8,4.4c-0.2,1-0.4,1.6-0.4,1.6s0.1-0.5,0.3-1.6c0.2-1,0.5-2.5,0.6-4.4
									c0.2-1.9-0.1-4.3-1-6.8c-0.4-1.3-1-2.6-1.4-4.2c-0.2-0.8-0.2-1.5-0.3-2.3c-0.1-0.9,0-1.6,0-2.5c0.1-1.7,0.5-3.5,1-5.2
									c0.3-0.8,0.4-1.7,0.5-2.6c0.1-0.4,0-0.9,0.1-1.4c0-0.5,0-0.9,0-1.4c0-1,0-1.9,0-2.9s0.1-2,0.2-3c0.1-2,0.3-4.1,0.6-6.1
									c0.5-4.1,0.9-8.4,1.4-12.8c0.5-4.3,1.1-8.8,1.3-13.1c0.2-4.4,0.1-8.8-0.9-13c-0.9-4.2-2.8-8.1-4.7-11.7
									c-1.9-3.7-3.8-7.2-5.4-10.7s-2.9-6.8-4.5-9.7c-1.7-2.9-3.4-5.3-5.2-7.3c-1.8-2-3.6-3.5-5.2-4.6s-3-1.8-3.9-2.2
									C325.5,160.8,325,160.7,325,160.7"/>
								<path class="st90" d="M124.5,117.3c-1.4,1-2.6,2.2-3.8,3.4c-0.6,0.6-1.2,1.2-1.7,1.9c-0.5,0.7-1.1,1.3-1.6,2s-1,1.3-1.5,2.1
									c-0.5,0.7-1,1.4-1.4,2.1l-1.3,2.2l-1.1,2.3c-0.4,0.8-0.6,1.6-1,2.3c-0.3,0.8-0.6,1.6-0.9,2.4l-0.8,2.4
									c-0.2,0.8-0.4,1.6-0.6,2.5c-0.2,0.8-0.4,1.6-0.5,2.5l-0.4,2.5c-0.2,0.8-0.1,1.7-0.2,2.5l-0.2,2.5l-0.7-0.5
									c9.5-4.9,19.2-9.4,29.1-13.3c9.9-3.9,20.2-7.2,30.8-8.8c5.3-0.7,10.7-1,16.1-0.2c2.7,0.4,5.3,1.2,7.8,2.3l7.1,3.7
									c1.2,0.7,2.4,1.2,3.6,1.7l3.6,1.6c1.2,0.5,2.5,0.9,3.7,1.4s2.5,0.9,3.8,1.2c1.3,0.4,2.5,0.8,3.8,1.1l3.9,0.9l3.9,0.7l4,0.5
									l-4-0.4c-1.3-0.1-2.6-0.4-4-0.5l-3.9-0.8c-1.3-0.3-2.6-0.6-3.9-1c-1.3-0.3-2.6-0.7-3.8-1.1c-1.3-0.4-2.5-0.8-3.8-1.3
									l-3.7-1.5c-1.2-0.5-2.5-1-3.7-1.6l-7.1-3.6c-2.4-1.1-4.9-1.7-7.5-2.1c-5.2-0.8-10.5-0.5-15.7,0.3s-10.4,2-15.5,3.6
									c-5.1,1.5-10.1,3.3-15.1,5.2c-9.9,3.8-19.5,8.3-29.1,13l-0.8,0.4l0.1-0.9l0.2-2.6c0.1-0.9,0.1-1.7,0.3-2.6l0.4-2.5
									c0.1-0.9,0.3-1.7,0.6-2.5c0.2-0.8,0.4-1.7,0.6-2.5l0.8-2.4c0.3-0.8,0.6-1.6,0.9-2.4c0.4-0.8,0.6-1.6,1.1-2.3l1.2-2.3
									l1.3-2.2c0.4-0.7,1-1.4,1.4-2.1c0.5-0.7,1-1.4,1.6-2c0.5-0.7,1.1-1.3,1.7-1.9s1.2-1.2,1.8-1.8
									C121.8,119.4,123.1,118.3,124.5,117.3"/>
								<path class="st90" d="M119.5,146.6c-0.8,1.6-1.5,3.3-2.2,4.9c-0.7,1.7-1.4,3.3-2.1,5s-1.3,3.4-1.9,5.1
									c-0.6,1.7-1.1,3.4-1.7,5.1c-0.5,1.7-1,3.4-1.5,5.2c-0.4,1.7-0.9,3.5-1.3,5.2c-0.3,1.8-0.8,3.5-1,5.3
									c-0.3,1.8-0.6,3.5-0.7,5.3l-0.3,2.7c-0.1,0.9,0,1.8-0.1,2.7c0,0.9-0.1,1.8,0,2.7l0.2,2.7c0,1.8,0.4,3.5,0.7,5.3
									c0.1,0.4,0.1,0.9,0.2,1.3l0.4,1.3l0.8,2.6c0.5,1.7,1,3.5,1.6,5.2l1.7,5.1c0.6,1.7,1.2,3.4,1.8,5c0.3,0.8,0.6,1.7,1,2.4
									c0.2,0.4,0.4,0.8,0.6,1.2l0.3,0.5c0.1,0.1,0.1,0.1,0.1,0.2l0.1,0.1c0,0,0.1,0.1,0,0c-0.1,0-0.2-0.1-0.3-0.1l-0.7,0.5
									c0.8-4,1.8-7.9,3-11.8c1.1-3.9,2.4-7.8,3.7-11.6c0.7-1.9,1.4-3.8,2.1-5.7s1.5-3.8,2.3-5.6c0.8-1.9,1.6-3.7,2.5-5.5
									s1.8-3.6,2.8-5.4c1-1.8,2-3.5,3.1-5.3c1-1.7,2.2-3.4,3.3-5.1l1.8-2.5l1.9-2.4c0.6-0.8,1.3-1.6,2-2.3
									c0.7-0.8,1.3-1.5,2.1-2.2c1.4-1.5,2.9-2.8,4.4-4.2c1.6-1.3,3.2-2.5,4.9-3.6c0.8-0.6,1.7-1.1,2.6-1.6c0.9-0.5,1.8-1,2.7-1.4
									s1.8-0.9,2.8-1.2l2.9-1l-2.8,1.1c-0.9,0.3-1.8,0.9-2.7,1.3c-0.9,0.4-1.8,0.9-2.6,1.5c-0.9,0.5-1.7,1-2.5,1.6
									c-1.7,1.1-3.2,2.4-4.7,3.7c-1.5,1.4-2.9,2.8-4.3,4.3c-0.7,0.7-1.4,1.5-2,2.3s-1.3,1.5-1.9,2.3l-1.8,2.4l-1.7,2.5
									c-1.1,1.7-2.2,3.4-3.2,5.1c-1,1.7-2,3.5-3,5.3c-0.9,1.8-1.8,3.6-2.7,5.4c-0.9,1.8-1.7,3.7-2.5,5.5c-0.8,1.9-1.6,3.7-2.3,5.6
									c-0.7,1.9-1.4,3.8-2.1,5.7c-1.3,3.8-2.6,7.6-3.7,11.5s-2.1,7.8-2.9,11.7l-0.1,0.6h-0.5c-0.1,0-0.3-0.1-0.4-0.1
									c-0.1-0.1-0.1-0.1-0.1-0.1l-0.2-0.2c-0.1-0.1-0.2-0.2-0.3-0.3l-0.4-0.6c-0.3-0.4-0.4-0.8-0.6-1.3c-0.4-0.8-0.7-1.7-1.1-2.5
									c-0.7-1.7-1.2-3.4-1.8-5.1l-1.6-5.2c-0.6-1.7-1-3.5-1.5-5.2l-0.8-2.6l-0.4-1.3c-0.1-0.5-0.2-0.9-0.2-1.4
									c-0.3-1.8-0.7-3.6-0.7-5.4l-0.1-2.7c0-0.9,0.1-1.8,0.1-2.7s0-1.8,0.1-2.7l0.3-2.7c0.2-1.8,0.5-3.6,0.8-5.4
									c0.3-1.8,0.7-3.5,1.1-5.3s0.9-3.5,1.4-5.2s1.1-3.5,1.6-5.2C113.4,159.7,116.1,153,119.5,146.6"/>
								<path class="st90" d="M290.4,138.5c0,0-0.4-0.2-1-0.6c-0.7-0.4-1.7-1-2.9-1.8c-1.2-0.8-2.7-1.8-4.4-3
									c-1.7-1.1-3.5-2.6-5.5-4.1s-4-3.4-6.2-5.2c-2.2-1.9-4.3-4-6.6-6.2c-2.2-2.2-4.4-4.6-6.7-7c-2.3-2.4-4.4-4.9-6.7-7.4
									c-4.4-5.1-8.6-10.2-12.9-14.7c-2.2-2.2-4.3-4.4-6.5-6.1c-2.2-1.9-4.4-3.3-6.6-4.4c-1.1-0.5-2.2-1-3.3-1.4
									c-1.1-0.3-2.1-0.7-3.1-0.9c-1-0.2-1.9-0.4-2.8-0.5c-0.9-0.1-1.7-0.1-2.4-0.2s-1.4-0.1-1.9,0c-0.6,0-1,0-1.4,0
									c-0.8,0-1.2,0-1.2,0s0.4,0,1.2-0.1c0.4,0,0.9-0.1,1.4-0.1c0.3,0,0.6-0.1,0.9-0.1c0.3,0,0.7,0,1,0c0.7,0,1.5,0,2.4,0
									c0.9,0.1,1.8,0.2,2.8,0.4c1,0.2,2.1,0.5,3.2,0.8c1.1,0.4,2.2,0.8,3.4,1.3c2.3,1.1,4.7,2.5,6.9,4.4c2.3,1.8,4.5,3.9,6.7,6.1
									c4.4,4.5,8.7,9.6,13.1,14.6c2.2,2.5,4.3,5.1,6.6,7.5c2.2,2.4,4.4,4.8,6.6,7c2.3,2.2,4.3,4.4,6.4,6.3s4.1,3.8,6,5.4
									c1.9,1.6,3.6,3.1,5.3,4.3c1.6,1.3,3,2.3,4.2,3.2C289,137.7,290.4,138.5,290.4,138.5"/>
								<path class="st90" d="M109,216.4c0,0-0.4,3.4-0.7,9.4c-0.1,1.5-0.2,3.2-0.2,5c0,0.9,0,1.8,0.1,2.8c0.1,0.9,0.5,1.9,0.8,2.8
									c0.7,2,1.4,4.1,1.8,6.5c0.4,2.3,0.4,4.9,0.3,7.5s-0.3,5.3-0.4,8c0,1.4,0.1,2.8,0.1,4.2c0,1.5,0.2,2.9,0.2,4.4
									c-0.1,1.5-0.1,3-0.2,4.5s0.1,3,0.1,4.6c0,0.8,0.1,1.6,0.1,2.4s-0.1,1.6-0.1,2.4c-0.2,1.6-0.5,3.2-0.7,4.8
									c-0.3,1.6-0.5,3.1-0.3,4.7c0.2,1.5,0.8,2.9,1.7,4.3c0.8,1.4,1.8,3,2,4.8s0.1,3.4,0.4,5c0.5,3.3,1.5,6.6,2.5,9.8
									c0.5,1.6,1,3.3,1.6,4.9s1.2,3.3,2.1,4.5c0.1,0.1,0.3,0.2,0.1,0.2c-0.3,0.1-0.1,0.1-0.1-0.1s0.1-0.3,0.1-0.5s0-0.4,0-0.6
									l0.1-2.6c0.1-1.7,0-3.4,0-5.1c0-3.4-0.2-6.9-0.1-10.2c0.1-6.8,0.4-13.5-0.1-19.9c-0.4-6.4-1.3-12.6-1.8-18.5
									c-0.3-3,0.1-5.9,0-8.6c0-2.8-0.2-5.5-0.3-8c-0.1-2.6-0.2-5.1-0.1-7.4c0.1-2.4,0.3-4.6,1-6.6c1.6-3.9,2.6-7.4,3.3-10.3
									c0.7-2.9,1.1-5.3,1.4-6.8c0.3-1.6,0.4-2.4,0.4-2.4h0.1c0,0-0.1,0.9-0.4,2.4c-0.3,1.6-0.7,3.9-1.3,6.9
									c-0.6,2.9-1.6,6.5-3.2,10.4c-1.2,4-1,8.8-0.7,13.9c0.1,2.6,0.3,5.3,0.4,8.1c0.1,2.8-0.2,5.7,0.1,8.6
									c0.5,5.9,1.4,12.1,1.9,18.5c0.6,6.5,0.3,13.2,0.3,19.9c0,3.4,0.1,6.8,0.2,10.2c0,1.7,0.2,3.5,0.1,5.2l-0.1,2.6
									c0,0.2,0,0.5,0,0.7s-0.1,0.5-0.1,0.7c-0.1,0.2-0.1,0.3-0.2,0.4s-0.1,0.2-0.2,0.3c-0.1,0.1-0.3,0.2-0.5,0.2
									c-0.7-0.1-0.7-0.4-1-0.6c-0.6-0.8-0.9-1.6-1.3-2.4s-0.7-1.6-1-2.4c-0.6-1.6-1.2-3.3-1.7-4.9c-1-3.3-2-6.5-2.6-10
									c-0.3-1.7-0.2-3.5-0.5-5s-1-2.9-1.9-4.3s-1.7-3.1-1.9-4.8c-0.2-1.7,0-3.4,0.3-5.1c0.3-1.6,0.6-3.2,0.7-4.7
									c0.1-0.8,0.1-1.5,0.1-2.3s0-1.5-0.1-2.3c0-1.6-0.1-3.1-0.1-4.7c0.1-1.5,0.2-3,0.2-4.5s-0.1-3-0.1-4.3c0-1.5-0.1-2.9,0-4.3
									c0.1-2.8,0.4-5.5,0.5-8c0.1-2.6,0.2-5-0.2-7.3c-0.3-2.3-1-4.4-1.6-6.4c-0.3-1-0.7-1.9-0.8-3c-0.1-1-0.1-2-0.1-2.9
									c0.1-1.8,0.2-3.5,0.3-5c0.6-6,1.1-9.4,1.1-9.4L109,216.4z"/>
								<path class="st90" d="M237.7,106.6c0,0-0.8-0.8-2.2-2.2c-1.4-1.4-3.6-3.3-6.2-5.4c-1.3-1.1-2.8-2.2-4.4-3.3
									c-1.6-1.1-3.3-2.2-5.1-3.4c-1.8-1.1-3.7-2.2-5.7-3.2s-4.1-1.9-6.2-2.7c-2.1-0.8-4.3-1.5-6.4-2c-1.1-0.3-2.1-0.5-3.2-0.7
									c-1.1-0.2-2.1-0.3-3.2-0.5c-2.1-0.3-4.1-0.4-6.1-0.4c-1.9,0-3.8,0.1-5.5,0.4c-1.7,0.2-3.2,0.6-4.6,0.8
									c-1.3,0.4-2.5,0.7-3.4,1c-1.9,0.7-2.9,1-2.9,1s1.1-0.4,2.9-1.2c0.9-0.3,2.1-0.7,3.4-1.1c1.4-0.3,2.9-0.8,4.6-0.9
									c1.7-0.3,3.5-0.4,5.5-0.5c2,0,4,0,6.2,0.3c1.1,0.1,2.1,0.2,3.2,0.5c1.1,0.2,2.2,0.4,3.3,0.7c2.2,0.5,4.4,1.2,6.5,2
									s4.2,1.8,6.2,2.8s3.9,2.1,5.7,3.2c3.6,2.3,6.8,4.7,9.4,6.9C234.8,103.1,237.7,106.6,237.7,106.6"/>
								<path class="st90" d="M176.3,447.9c2.7,1.3,5.4,2.8,8,4.4c1.3,0.8,2.6,1.6,3.8,2.5l1.9,1.3c0.6,0.4,1.2,1,1.8,1.4
									c0.6,0.5,1.2,1,1.8,1.5l1.6,1.6c0.6,0.6,1,1.1,1.6,1.6l1.5,1.7c0.5,0.5,1,1.1,1.5,1.7l1.6,1.5c0.5,0.5,1.1,1,1.7,1.5
									c0.6,0.5,1.2,1,1.8,1.3l-0.6,0.2c0.3-0.4,0.5-0.8,0.8-1.1c0.3-0.3,0.6-0.7,1-1c0.3-0.3,0.7-0.6,1-0.9
									c0.4-0.3,0.7-0.6,1.1-0.8c0.8-0.5,1.5-1,2.3-1.3l2.4-1.2c0.8-0.4,1.5-0.8,2.3-1.2l1.1-0.7c0.4-0.2,0.7-0.5,1-0.8
									c0.4-0.3,0.7-0.6,0.9-0.9c0.3-0.3,0.6-0.6,0.8-1c0.3-0.3,0.4-0.8,0.6-1.1c0.2-0.4,0.2-0.8,0.3-1.3c-0.1,0.4-0.1,0.9-0.2,1.3
									c-0.1,0.4-0.3,0.9-0.5,1.2c-0.2,0.4-0.5,0.8-0.8,1.1c-0.3,0.4-0.6,0.7-0.9,1c-0.3,0.3-0.6,0.6-1,0.9l-1.1,0.8
									c-0.8,0.5-1.5,1-2.3,1.4l-2.3,1.3c-0.8,0.4-1.5,0.9-2.2,1.4l-1,0.8c-0.3,0.3-0.6,0.6-1,0.9c-0.3,0.3-0.6,0.6-0.9,0.9
									c-0.3,0.3-0.5,0.7-0.7,1l-0.2,0.4l-0.4-0.2c-0.7-0.4-1.3-0.9-1.9-1.4c-0.6-0.5-1.2-1-1.8-1.5l-1.7-1.6
									c-0.6-0.5-1-1.1-1.5-1.7L196,463c-0.5-0.6-1-1.1-1.5-1.7l-1.5-1.6c-0.6-0.5-1.1-1-1.7-1.5c-0.6-0.5-1.1-1-1.7-1.4l-1.8-1.4
									c-1.2-0.9-2.5-1.8-3.7-2.6l-1.9-1.3c-0.6-0.4-1.3-0.8-1.9-1.2C178.9,449.5,177.6,448.7,176.3,447.9"/>
								<path class="st90" d="M179.2,393.9c0,0,1.3,1.7,3.5,4.8c1.1,1.5,2.5,3.3,4,5.4c0.8,1.1,1.6,2.2,2.5,3.3
									c0.9,1.1,1.8,2.4,2.9,3.6c2.2,2.3,4.8,4.6,7.8,6.7s6.4,3.9,10.2,5.4c3.7,1.4,7.8,2.3,12,2.8s8.4,0.7,12.7,0.6
									s8.5-0.6,12.6-1.5s8.1-2.2,11.5-4.2c3.5-2,6.4-4.5,9-7.2c2.5-2.6,4.7-5.4,6.5-8s3.4-5.1,4.7-7.4c1.4-2.2,2.6-4.2,3.4-5.8
									c0.8-1.7,1.4-3,1.8-4c0.4-0.9,0.6-1.4,0.6-1.4s-0.2,0.5-0.6,1.4s-0.9,2.3-1.8,4c-0.4,0.8-0.9,1.8-1.4,2.8
									c-0.6,1-1.2,2-1.9,3.1c-1.3,2.3-2.8,4.8-4.6,7.5c-1.8,2.7-3.9,5.4-6.5,8.1c-2.5,2.7-5.5,5.3-9,7.3
									c-3.5,2.1-7.5,3.4-11.6,4.3s-8.4,1.4-12.7,1.6c-4.3,0.1-8.6-0.1-12.8-0.6s-8.3-1.5-12.1-2.9c-3.8-1.5-7.2-3.4-10.2-5.5
									s-5.7-4.4-7.8-6.8c-1.1-1.2-2-2.5-2.9-3.6c-0.9-1.2-1.7-2.3-2.5-3.4c-1.5-2.1-2.8-4-3.9-5.5
									C180.4,395.7,179.2,393.9,179.2,393.9"/>
								<path class="st90" d="M177.5,390.5c0,0,1.3-1.2,3.9-2.9c2.6-1.7,6.4-3.9,11.4-5.7c5-1.8,11.1-3,17.7-3
									c3.3-0.1,6.7,0.5,10.2,0.7c3.4,0.3,6.9,0.3,10.4,0.1c3.5-0.1,7-0.5,10.4-0.9c3.4-0.5,6.8-1.1,10.1-1.5s6.5-0.5,9.5-0.2
									c3,0.2,5.9,0.7,8.4,1.4c5.1,1.3,9.1,3.5,11.6,5.3c1.3,0.9,2.2,1.7,2.8,2.2c0.6,0.6,0.9,0.9,0.9,0.9s-0.3-0.3-0.9-0.8
									s-1.6-1.3-2.8-2.1c-2.5-1.7-6.5-3.7-11.6-5c-2.5-0.7-5.4-1.1-8.4-1.3c-3-0.2-6.2-0.1-9.4,0.3c-3.3,0.4-6.6,1.1-10,1.6
									s-6.9,0.9-10.5,1c-3.5,0.1-7.1,0.1-10.5-0.2c-3.5-0.3-6.8-0.9-10.1-0.8c-6.6-0.1-12.7,1.1-17.6,2.8c-5,1.7-8.9,3.8-11.5,5.4
									C178.8,389.3,177.5,390.5,177.5,390.5"/>
								<path class="st90" d="M244.8,461.5c-0.4,0.2-0.6,0.6-0.6,1.1c0,0.4,0.2,0.8,0.5,1.1c0.3,0.3,0.6,0.6,0.9,0.9
									c0.3,0.3,0.7,0.5,1.1,0.7c0.7,0.4,1.5,0.8,2.3,1.2l2.3,1.1c0.4,0.2,0.8,0.4,1.2,0.6l1.1,0.7c0.4,0.2,0.8,0.4,1.1,0.7
									l1.1,0.7c0.4,0.2,0.7,0.5,1,0.8s0.7,0.5,1,0.8s0.6,0.6,0.9,0.9s0.6,0.7,0.9,1.1l-0.8,0.3c0-0.3,0-0.5,0-0.7s0.1-0.5,0.1-0.7
									c0.1-0.4,0.2-0.9,0.5-1.3c0.3-0.8,0.9-1.5,1.4-2.2s1.2-1.3,1.8-1.9c0.6-0.6,1.4-1.1,2-1.6c0.7-0.5,1.4-0.9,2.2-1.3
									c0.8-0.4,1.5-0.8,2.3-1.2c1.5-0.7,3-1.5,4.5-2.2c3-1.6,6-3.1,8.7-5c0.7-0.5,1.4-1,2-1.5c0.7-0.5,1.3-1,1.9-1.6
									s1.2-1.2,1.7-1.9c0.5-0.7,0.9-1.4,1.2-2.2c-0.2,0.8-0.5,1.6-1,2.3c-0.5,0.7-1,1.4-1.6,2s-1.2,1.2-1.9,1.8
									c-0.6,0.6-1.3,1.1-2,1.6c-1.4,1-2.8,1.9-4.2,2.8c-1.4,0.9-2.9,1.7-4.4,2.5s-3,1.6-4.5,2.3c-0.7,0.4-1.5,0.8-2.2,1.2
									c-0.7,0.4-1.5,0.8-2.1,1.3s-1.4,0.9-2,1.5s-1.2,1.1-1.7,1.8c-0.5,0.7-1,1.3-1.3,2c-0.4,0.7-0.6,1.5-0.6,2.2l-0.1,1.4
									l-0.8-1.2c-0.2-0.3-0.5-0.6-0.7-0.9c-0.3-0.3-0.6-0.6-0.9-0.9s-0.6-0.6-0.9-0.8c-0.3-0.3-0.6-0.6-1-0.8l-1-0.8
									c-0.3-0.3-0.7-0.5-1.1-0.7l-1.1-0.7c-0.4-0.2-0.7-0.4-1.1-0.6l-2.3-1.2c-0.8-0.4-1.5-0.8-2.2-1.3c-0.4-0.2-0.7-0.5-1-0.8
									s-0.6-0.6-0.9-1c-0.3-0.4-0.5-0.8-0.4-1.2C244.1,462.1,244.4,461.8,244.8,461.5"/>
								<path class="st90" d="M211.9,471.3c-0.4,1-0.1,2,0.5,2.8c0.3,0.4,0.7,0.7,1.1,1c0.4,0.3,0.8,0.5,1.3,0.7
									c0.9,0.4,1.8,0.7,2.8,0.9l0.7,0.2l0.8,0.2l1.5,0.4c0.5,0.1,1,0.3,1.5,0.5l1.4,0.6c0.5,0.2,0.9,0.5,1.4,0.7
									c0.4,0.3,0.9,0.5,1.3,0.8l1.3,0.9c0.4,0.3,0.8,0.7,1.2,1s0.7,0.7,1.1,1.1c0.4,0.4,0.7,0.8,1,1.2l-0.6-0.2
									c0.5-0.3,1.1-0.6,1.6-1c0.3-0.2,0.5-0.4,0.8-0.6s0.5-0.4,0.8-0.6c0.5-0.4,1-0.8,1.4-1.3l0.7-0.7c0.2-0.2,0.4-0.5,0.6-0.8
									l0.5-0.8l0.4-0.9c0.3-0.6,0.5-1.2,0.7-1.8c0.4-1.2,0.8-2.5,1.3-3.7c-0.3,1.3-0.6,2.5-0.9,3.8l-0.2,1
									c-0.1,0.3-0.2,0.6-0.3,0.9l-0.4,0.9l-0.5,0.9c-0.2,0.3-0.3,0.6-0.5,0.8l-0.6,0.8c-0.4,0.5-0.9,1-1.4,1.4
									c-0.2,0.2-0.5,0.4-0.8,0.6s-0.5,0.4-0.8,0.6c-0.6,0.4-1.1,0.7-1.7,1.1l-0.3,0.2l-0.3-0.3c-0.3-0.4-0.6-0.8-0.9-1.1
									c-0.3-0.4-0.7-0.7-1.1-1c-0.4-0.3-0.7-0.7-1.1-1l-1.2-0.9c-0.4-0.3-0.8-0.5-1.3-0.8c-0.4-0.3-0.8-0.5-1.3-0.7l-1.3-0.6
									c-0.4-0.2-0.9-0.4-1.4-0.5l-1.4-0.5l-0.7-0.2l-0.7-0.2c-1-0.3-2-0.7-2.9-1.1c-0.4-0.3-0.9-0.5-1.3-0.9
									c-0.4-0.3-0.8-0.7-1.1-1.2c-0.3-0.4-0.5-0.9-0.5-1.5C211.5,472.3,211.6,471.8,211.9,471.3"/>
								<path class="st90" d="M180.9,343.6c0,0-1.8,1.8-4.3,4.5c-1.3,1.3-2.8,2.9-4.3,4.7c-1.6,1.7-3.2,3.6-4.7,5.5s-3,3.9-4,6
									c-0.5,1-0.9,2.1-0.8,3.1c0,1.1,0.1,2.1,0.1,3s0.2,1.8,0.3,2.5c0.1,0.8,0.2,1.4,0.3,1.9c0.2,1.1,0.4,1.7,0.4,1.7
									s-0.2-0.6-0.5-1.6c-0.2-0.5-0.3-1.2-0.4-1.9c-0.1-0.8-0.4-1.6-0.4-2.5c-0.1-0.9-0.1-1.9-0.2-3c-0.1-1.1,0.2-2.3,0.7-3.4
									c1-2.1,2.5-4.2,4-6.2c1.6-1.9,3.2-3.8,4.8-5.5s3.2-3.2,4.5-4.5C179,345.2,180.9,343.6,180.9,343.6"/>
								<path class="st90" d="M275.4,337.4c0,0,1.9,1.4,4.5,3.6c1.3,1.1,2.9,2.4,4.5,3.9s3.3,3,4.9,4.7s3.2,3.4,4.4,5.2
									c0.6,0.9,1.1,2,1.1,3c0,0.5,0.1,1,0.1,1.4c0,0.5-0.1,0.9-0.1,1.4c-0.1,0.9-0.2,1.7-0.4,2.3c-0.2,0.7-0.4,1.3-0.5,1.7
									c-0.4,0.9-0.6,1.5-0.6,1.5s0.2-0.5,0.5-1.5c0.1-0.5,0.3-1.1,0.4-1.8c0.2-0.7,0.2-1.5,0.3-2.3c0-0.4,0-0.9,0-1.3
									c0-0.5-0.1-0.9-0.1-1.4c0-1-0.5-1.8-1.1-2.7c-1.2-1.8-2.8-3.4-4.4-5.1s-3.3-3.3-4.8-4.7c-1.6-1.5-3.1-2.9-4.3-4
									C277.1,339,275.4,337.4,275.4,337.4"/>
								<path class="st90" d="M177.5,390.5c0,0,1.3-1.2,3.9-2.9c2.6-1.7,6.4-3.9,11.4-5.7c5-1.8,11.1-3,17.7-3
									c3.3-0.1,6.7,0.5,10.2,0.7c3.4,0.3,6.9,0.3,10.4,0.1c3.5-0.1,7-0.5,10.4-0.9c3.4-0.5,6.8-1.1,10.1-1.5s6.5-0.5,9.5-0.2
									c3,0.2,5.9,0.7,8.4,1.4c5.1,1.3,9.1,3.5,11.6,5.3c1.3,0.9,2.2,1.7,2.8,2.2c0.6,0.6,0.9,0.9,0.9,0.9s-0.3-0.3-0.9-0.8
									s-1.6-1.3-2.8-2.1c-2.5-1.7-6.5-3.7-11.6-5c-2.5-0.7-5.4-1.1-8.4-1.3c-3-0.2-6.2-0.1-9.4,0.3c-3.3,0.4-6.6,1.1-10,1.6
									s-6.9,0.9-10.5,1c-3.5,0.1-7.1,0.1-10.5-0.2c-3.5-0.3-6.8-0.9-10.1-0.8c-6.6-0.1-12.7,1.1-17.6,2.8c-5,1.7-8.9,3.8-11.5,5.4
									C178.8,389.3,177.5,390.5,177.5,390.5"/>
								<path class="st90" d="M288.7,368.9c0,0,0.5,0.4,1.1,1.2c0.6,0.7,1.3,1.8,1.9,3c0.3,0.6,0.5,1.2,0.7,1.7
									c0.2,0.6,0.3,1.2,0.4,1.6c0.1,0.5,0,0.9,0,1.2c0,0.3,0,0.4,0,0.4s-0.1-0.2-0.2-0.4c-0.1-0.3-0.2-0.6-0.4-1.1
									c-0.2-0.4-0.4-0.9-0.7-1.4c-0.3-0.5-0.5-1.1-0.8-1.6c-0.5-1.1-1.1-2.2-1.5-3.1C288.9,369.6,288.7,368.9,288.7,368.9"/>
								<path class="st90" d="M172.4,373.1c0,0-0.3,0.7-0.7,1.8c-0.5,1.1-1.1,2.5-1.8,3.9s-1.3,2.8-1.7,3.8c-0.2,0.5-0.4,1-0.5,1.3
									s-0.1,0.5-0.1,0.5s0-0.2-0.1-0.5c0-0.2,0-0.4,0-0.6c0-0.3,0-0.5,0.1-0.8c0.2-1.2,0.7-2.7,1.4-4.1s1.5-2.8,2.2-3.7
									C171.9,373.7,172.4,373.1,172.4,373.1"/>
								<path class="st90" d="M257.4,364.1c0,0,0.3,0.4,0.7,0.9c0.4,0.6,0.8,1.4,1.1,2.2c0.3,0.8,0.5,1.7,0.7,2.4
									c0.1,0.7,0.1,1.1,0.1,1.1s-0.3-0.4-0.7-0.9c-0.4-0.6-0.8-1.4-1.1-2.2c-0.3-0.8-0.5-1.7-0.7-2.4
									C257.4,364.6,257.4,364.1,257.4,364.1"/>
								<path class="st90" d="M217,365.5c0,0-0.5,0.5-1.2,1.3c-0.8,0.7-1.8,1.6-2.9,2.5c-1.1,0.9-2.1,1.7-2.9,2.5
									c-0.2,0.2-0.3,0.3-0.5,0.5c-0.1,0.2-0.2,0.3-0.3,0.4c-0.1,0.2-0.2,0.4-0.2,0.4s0-0.2,0-0.5c0.1-0.3,0.2-0.8,0.5-1.2
									c0.6-0.9,1.6-2,2.7-2.9c1.1-0.9,2.3-1.7,3.2-2.2C216.3,365.8,217,365.5,217,365.5"/>
								<path class="st90" d="M206.5,363.7c0,0-0.3,0.6-0.8,1.5s-1.1,2-1.8,3.1s-1.3,2.2-1.7,3.1c-0.2,0.4-0.4,0.8-0.4,1.1
									c-0.1,0.3-0.1,0.4-0.1,0.4s0-0.2-0.1-0.5c0-0.2,0-0.3,0-0.5s0-0.4,0.1-0.7c0.2-1,0.7-2.3,1.4-3.4s1.5-2.2,2.2-2.9
									C205.9,364.1,206.5,363.7,206.5,363.7"/>
								<path class="st90" d="M198.7,363.7c0,0,0,0.6-0.2,1.5c-0.1,0.9-0.4,2-0.7,3.2c-0.3,1.1-0.7,2.2-1,3.1
									c-0.2,0.4-0.3,0.8-0.3,1c-0.1,0.2-0.1,0.4-0.1,0.4s0-0.1-0.1-0.4c0-0.3-0.1-0.7,0-1.1c0-0.9,0.2-2.1,0.5-3.2
									s0.7-2.3,1.1-3.1C198.4,364.2,198.7,363.7,198.7,363.7"/>
								<path class="st90" d="M192.8,365.5c0,0,0,0.5-0.1,1.3s-0.3,1.8-0.6,2.8c-0.1,0.5-0.3,1-0.4,1.5c-0.2,0.5-0.3,0.9-0.4,1.2
									c-0.3,0.7-0.5,1.2-0.5,1.2s-0.1-0.5-0.1-1.3s0.2-1.8,0.5-2.9c0.3-1,0.7-2,1-2.7C192.5,366,192.8,365.5,192.8,365.5"/>
								<path class="st90" d="M187.1,368.9c0,0,0.1,0.5,0.2,1.1c0.1,0.7,0.1,1.5,0.1,2.4s-0.1,1.7-0.2,2.4c0,0.3,0,0.6,0,0.8
									c0,0.2,0,0.3,0,0.3s-0.1-0.1-0.2-0.3c-0.1-0.2-0.3-0.4-0.3-0.8c-0.1-0.3-0.2-0.7-0.2-1.2c-0.1-0.4-0.1-0.9,0-1.3
									c0-0.9,0.2-1.8,0.4-2.4C186.8,369.3,187.1,368.9,187.1,368.9"/>
								<path class="st90" d="M181.1,371.2c0,0,0.1,0.4,0.2,1.1c0.1,0.6,0.1,1.5,0.1,2.3s-0.2,1.7-0.3,2.3c-0.1,0.6-0.3,1.1-0.3,1.1
									s-0.2-0.4-0.3-1c-0.1-0.3-0.2-0.7-0.2-1.1s0-0.8,0-1.3c0-0.9,0.2-1.7,0.4-2.3C180.9,371.7,181.1,371.2,181.1,371.2"/>
								<path class="st90" d="M175.9,373.3c0,0,0,0.5-0.1,1.3c-0.1,0.7-0.3,1.7-0.6,2.6s-0.6,1.8-0.9,2.5c-0.1,0.3-0.2,0.6-0.3,0.8
									c-0.1,0.2-0.1,0.3-0.1,0.3s0-0.1-0.1-0.3c0-0.2-0.1-0.6-0.1-0.9c0-0.8,0.2-1.8,0.5-2.7c0.3-1,0.7-1.9,1-2.5
									C175.5,373.7,175.9,373.3,175.9,373.3"/>
								<path class="st90" d="M220.8,368.1c0,0-0.1,0.4-0.2,1c-0.2,0.6-0.5,1.4-0.9,2.1s-0.9,1.4-1.3,1.9c-0.4,0.5-0.8,0.8-0.8,0.8
									s0.1-0.4,0.2-1c0.2-0.6,0.5-1.4,0.9-2.1s0.9-1.4,1.3-1.9C220.5,368.4,220.8,368.1,220.8,368.1"/>
								<path class="st90" d="M224.3,368.4c0,0,0.1,0.4,0.1,1s0,1.3-0.1,2.1c-0.1,0.7-0.3,1.5-0.5,2s-0.4,0.9-0.4,0.9
									s-0.1-0.4-0.1-1s0-1.3,0.1-2.1c0.1-0.7,0.3-1.5,0.5-2C224.1,368.7,224.3,368.4,224.3,368.4"/>
								<path class="st90" d="M228.2,368.9c0,0,0.2,0.3,0.5,0.8c0.2,0.5,0.5,1.2,0.6,1.8c0.1,0.7,0.2,1.4,0.2,1.9s-0.1,0.9-0.1,0.9
									s-0.2-0.3-0.5-0.8c-0.2-0.5-0.5-1.2-0.6-1.8c-0.1-0.7-0.2-1.4-0.2-1.9C228.1,369.3,228.2,368.9,228.2,368.9"/>
								<path class="st90" d="M284.1,367.8c0,0,0.3,0.5,0.8,1.2c0.4,0.7,0.9,1.8,1.3,2.8c0.4,1.1,0.7,2.1,0.9,3
									c0.2,0.8,0.2,1.4,0.2,1.4s-0.4-0.5-0.8-1.2s-0.9-1.8-1.3-2.8c-0.4-1.1-0.7-2.1-0.9-3C284.1,368.4,284.1,367.8,284.1,367.8"
									/>
								<path class="st90" d="M277.2,365.1c0,0,0.5,0.5,1,1.3c0.6,0.8,1.3,1.9,1.9,3.1s1.1,2.5,1.3,3.4c0.1,0.5,0.1,0.9,0.2,1.2
									c0,0.3,0,0.5,0,0.5s-0.1-0.2-0.2-0.4c-0.1-0.3-0.3-0.6-0.5-1.1c-0.4-0.9-1.1-2-1.6-3.2c-0.6-1.2-1.1-2.4-1.4-3.3
									C277.4,365.7,277.2,365.1,277.2,365.1"/>
								<path class="st90" d="M272.9,364.1c0,0,0.2,0.4,0.5,1.1c0.2,0.7,0.5,1.6,0.6,2.5s0.2,1.9,0.2,2.6s-0.1,1.2-0.1,1.2
									s-0.2-0.5-0.5-1.1c-0.2-0.7-0.4-1.6-0.6-2.4c-0.1-0.9-0.2-1.8-0.2-2.5C272.8,364.6,272.9,364.1,272.9,364.1"/>
								<path class="st90" d="M266,363c0,0,0.3,0.4,0.6,1.1c0.3,0.6,0.7,1.5,1,2.4s0.5,1.9,0.6,2.6s0.1,1.2,0.1,1.2
									s-0.3-0.4-0.6-1.1c-0.3-0.6-0.7-1.5-1-2.4s-0.5-1.9-0.6-2.6S266,363,266,363"/>
								<path class="st90" d="M231.8,368c0,0,0.4,0.2,0.8,0.6c0.5,0.4,1,0.9,1.5,1.5s0.9,1.3,1.2,1.8s0.4,0.9,0.4,0.9
									s-0.4-0.2-0.8-0.6c-0.5-0.4-1-0.9-1.5-1.5s-0.9-1.3-1.2-1.8S231.8,368,231.8,368"/>
								<path class="st90" d="M237.5,366.2c0,0,0.3,0.3,0.8,0.8c0.4,0.5,0.9,1.2,1.3,1.9c0.4,0.7,0.7,1.5,0.9,2.1s0.2,1.1,0.2,1.1
									s-0.3-0.3-0.8-0.8c-0.4-0.5-0.9-1.2-1.3-1.9c-0.4-0.7-0.7-1.5-0.9-2.1C237.6,366.6,237.5,366.2,237.5,366.2"/>
								<path class="st90" d="M243.4,364.4c0,0,0.3,0.4,0.8,0.9c0.4,0.6,0.9,1.4,1.3,2.3c0.4,0.9,0.7,1.8,0.9,2.4
									c0.2,0.7,0.2,1.2,0.2,1.2s-0.3-0.4-0.8-0.9c-0.4-0.6-0.9-1.4-1.3-2.3c-0.4-0.9-0.7-1.8-0.9-2.4
									C243.5,364.9,243.4,364.4,243.4,364.4"/>
								<path class="st90" d="M250.1,363.9c0,0,0.3,0.5,0.6,1.2c0.3,0.8,0.7,1.8,1,2.8c0.3,1.1,0.5,2.1,0.6,3
									c0.1,0.8,0.1,1.4,0.1,1.4s-0.3-0.5-0.6-1.2c-0.3-0.8-0.7-1.8-1-2.8c-0.3-1.1-0.5-2.1-0.6-3
									C250.1,364.5,250.1,363.9,250.1,363.9"/>
								<path class="st90" d="M212.4,364.6c0,0-0.4,0.5-1,1.3c-0.6,0.7-1.5,1.7-2.4,2.6s-1.8,1.8-2.4,2.5c-0.3,0.4-0.5,0.7-0.7,0.9
									c-0.1,0.2-0.1,0.4-0.1,0.4s0,0,0-0.1s0-0.2,0-0.4c0-0.3,0.1-0.7,0.4-1.2c0.4-0.9,1.3-2,2.2-2.9s1.9-1.8,2.7-2.3
									C211.8,364.9,212.4,364.6,212.4,364.6"/>
								<path class="st90" d="M253.9,363.2c0,0,0.3,0.5,0.6,1.2c0.3,0.8,0.7,1.8,1,2.8c0.3,1.1,0.5,2.1,0.6,3
									c0.1,0.8,0.1,1.4,0.1,1.4s-0.3-0.5-0.6-1.2c-0.3-0.8-0.7-1.8-1-2.8c-0.3-1.1-0.5-2.1-0.6-3
									C253.9,363.8,253.9,363.2,253.9,363.2"/>
								<path class="st90" d="M261.7,363.7c0,0,0.3,0.4,0.6,1.1c0.3,0.6,0.7,1.5,1,2.4s0.5,1.9,0.6,2.6s0.1,1.2,0.1,1.2
									s-0.3-0.4-0.6-1.1c-0.3-0.6-0.7-1.5-1-2.4s-0.5-1.9-0.6-2.6S261.7,363.7,261.7,363.7"/>
							</g>
						</g>
					</g>
				</g>
				<g id="Ebene_3_1_" class="st91">
				</g>
				<g id="Ebene_2" class="st91">
					<path class="st92" d="M202.9,858.5c0,0-11.7,31.5-13.7,37.9c-1.3,4.2-44.8-15.3-48,0c-3.3,15.3,59.8,17.4,74,17.4
						c3.3-27.3,3-49.8,3-49.8L202.9,858.5z"/>
					<path class="st92" d="M262,847.6c0,0,15,41.2,15,45.6c0,4.4,44.8-15.3,48,0s-59.8,17.4-74,17.4c-3.3-27.3-5.6-62-5.6-62
						L262,847.6z"/>
					<path class="st93" d="M309.1,582.2l17.5,117.6c0,0-22.3,24.1-16.1,24.1c6.2,0,6.2,0,6.2,0l8.9-6.2c0,0,5.4,22.3,17.8,21.4
						c12.5-0.9,14.3-30.3,6.2-46.4S323.7,589,323.7,589"/>
					<polygon class="st94" points="182.7,677 188,891.5 222.7,892.7 230.4,722.1 239.7,722 245.6,890.9 283.2,886.8 284.4,676.4 
											"/>
					<path class="st95" d="M283.1,507h-31.9l3.1,10.1l10.1,186.8l24.1,0.8l-7.8-161.9l33.5,146.3l37.4-9.3
						c0,0-37.4-168.1-52.9-170.4C283.1,507,283.1,507,283.1,507"/>
					<path class="st93" d="M175.4,600l-29,116.9c0,0,20.2,26.5,13.9,25.9s-6.3-0.6-6.3-0.6l-8.4-7.2c0,0-7.6,22-20.1,19.9
						s-11.5-32-1.8-47.4s31.8-123.2,31.8-123.2"/>
					<path class="st95" d="M196.8,498.1c0,0-27.1,8.2-31.4,20.5c-4.3,12.3-41.7,168.8-41.7,168.8l33.8,11l33.1-135.6L178,713.3h42.9
						l2.5-209.1l-26.7-8.9"/>
					<polyline class="st96" points="220.4,506.5 212.4,521.5 192.8,504.8 198.6,497.3 					"/>
					<path class="st97" d="M106.6,282c0,0-22.2,59.1,0.9,90.6c9.6,5.9,9.6,5.9,9.6,5.9S127.9,489,237.9,509.3
						c50.8,7.4,121.5-19.6,140.7-128.1c13.6-6.8,34,3.3,16.4-117.7C377.4,142.5,349.9,96,262.2,87.4s-156.5,92.9-156.5,92.9
						L106.6,282"/>
					<circle cx="176.5" cy="277" r="7.3"/>
					<circle cx="309.7" cy="272.4" r="7.3"/>
					<path class="st98" d="M187.4,413.6c0,0,60.4,33.7,116.6-8.4"/>
					<path class="st98" d="M102.3,282.8c0,0-17.4,95.7,14.9,95.7c7,28.1,16.9,78.7,56.2,104c0,0,74.5,56,144.7,5.6
						c0,0,59-52,60.4-106.8c14.1-1.4,31.4-10.4,14.4-112.7"/>
					<path class="st99" d="M346.1,253.2l-65.4-8.1c-4.7-0.6-8.1-4.9-7.5-9.6l0.5-3.8c0.6-4.7,4.9-8.1,9.6-7.5l65.4,8.1
						c4.7,0.6,8.1,4.9,7.5,9.6l-0.5,3.8C355.1,250.4,350.8,253.7,346.1,253.2z"/>
					<path class="st99" d="M199.9,248l-64.7,12.7c-4.6,0.9-9.2-2.1-10.1-6.8l-0.8-3.8c-0.9-4.6,2.1-9.2,6.8-10.1l64.7-12.7
						c4.6-0.9,9.2,2.1,10.1,6.8l0.8,3.8C207.5,242.6,204.5,247.1,199.9,248z"/>
					<path class="st98" d="M204.1,353.2c0,0,8.3,18,40.1,18s34.6-20.8,34.6-20.8"/>
					<circle cx="113.5" cy="362.5" r="4.5"/>
					<circle cx="384.4" cy="361" r="5.2"/>
					<path class="st100" d="M349.5,122.9c-16-46.1-87.4-157.3-240.9-50.1c-72.9,63.3-9.1,146.3-7.1,143.6
						c-1.2,22.1-4.3,47.9,10.1,104.6l2.7-127.6c36.2-43.9,134.1-141.6,232.1-56.7c0,0,49,11.9,31.2,194.7
						C394.8,286.6,417.8,154.8,349.5,122.9z"/>
					<path class="st99" d="M192.8,394.4"/>
					<ellipse class="st99" cx="139" cy="349" rx="7.5" ry="2.6"/>
					<ellipse class="st99" cx="133.4" cy="370.8" rx="1.9" ry="6.4"/>
					
						<ellipse transform="matrix(0.7071 -0.7071 0.7071 0.7071 -239.3224 218.6389)" class="st99" cx="144.3" cy="398.2" rx="7.5" ry="3"/>
					<ellipse class="st99" cx="152.6" cy="416.7" rx="1.5" ry="7.1"/>
					<ellipse class="st99" cx="165.3" cy="429.8" rx="1.5" ry="6"/>
					<ellipse class="st99" cx="166.8" cy="452" rx="5.3" ry="1.9"/>
					<ellipse class="st99" cx="146.9" cy="438.8" rx="1.1" ry="6.8"/>
					<ellipse class="st99" cx="181.9" cy="432.8" rx="4.5" ry="1.5"/>
					
						<ellipse transform="matrix(0.9843 -0.1764 0.1764 0.9843 -77.5883 39.4302)" class="st99" cx="183" cy="456.1" rx="1.1" ry="6.8"/>
					<ellipse class="st99" cx="189" cy="476.8" rx="5.6" ry="2.6"/>
					<ellipse class="st99" cx="211.5" cy="461.7" rx="1.9" ry="5.6"/>
					<ellipse class="st99" cx="199.5" cy="447.5" rx="4.9" ry="1.9"/>
					<ellipse class="st99" cx="221.7" cy="447.1" rx="2.3" ry="5.3"/>
					<ellipse class="st99" cx="128.5" cy="384.7" rx="1.5" ry="3.8"/>
					<ellipse class="st99" cx="142.8" cy="410.3" rx="4.5" ry="2.3"/>
					<ellipse class="st99" cx="171.3" cy="399" rx="3" ry="3.8"/>
					<ellipse class="st99" cx="164.7" cy="382.9" rx="1.5" ry="5.3"/>
					<ellipse class="st99" cx="234.8" cy="463.2" rx="3.4" ry="4.1"/>
					<ellipse class="st99" cx="356.1" cy="367.9" rx="1.9" ry="6.4"/>
					
						<ellipse transform="matrix(0.7071 -0.7071 0.7071 0.7071 -183.77 347.9895)" class="st99" cx="328.2" cy="395.8" rx="7.5" ry="3"/>
					<ellipse class="st99" cx="312.4" cy="382.3" rx="1.5" ry="3.8"/>
					<ellipse class="st99" cx="347" cy="401.7" rx="3" ry="3.8"/>
					
						<ellipse transform="matrix(0.6815 -0.7318 0.7318 0.6815 -232.8593 350.8991)" class="st99" cx="286.7" cy="443" rx="1.1" ry="6.8"/>
					
						<ellipse transform="matrix(0.7999 -0.6001 0.6001 0.7999 -202.5996 278.4742)" class="st99" cx="316.3" cy="443.1" rx="1.9" ry="5.6"/>
					
						<ellipse transform="matrix(0.7999 -0.6001 0.6001 0.7999 -203.725 266.7179)" class="st99" cx="298.1" cy="438.9" rx="4.9" ry="1.9"/>
					
						<ellipse transform="matrix(0.7999 -0.6001 0.6001 0.7999 -192.0274 274.4479)" class="st99" cx="315.6" cy="425.2" rx="2.3" ry="5.3"/>
					
						<ellipse transform="matrix(0.7999 -0.6001 0.6001 0.7999 -191.0334 287.615)" class="st99" cx="335.8" cy="430.3" rx="3.4" ry="4.1"/>
					<ellipse class="st99" cx="261.7" cy="462.6" rx="1.9" ry="5.6"/>
					<ellipse class="st99" cx="249.7" cy="448.3" rx="4.9" ry="1.9"/>
					<ellipse class="st99" cx="271.8" cy="447.9" rx="2.3" ry="5.3"/>
					<ellipse class="st99" cx="272.7" cy="464.8" rx="3.4" ry="4.1"/>
					
						<ellipse transform="matrix(0.6815 -0.7318 0.7318 0.6815 -246.1139 377.4846)" class="st99" cx="310.6" cy="471.5" rx="1.1" ry="6.8"/>
					
						<ellipse transform="matrix(0.7999 -0.6001 0.6001 0.7999 -209.0741 282.148)" class="st99" cx="318.6" cy="454.6" rx="4.9" ry="1.9"/>
					<ellipse class="st99" cx="292.4" cy="463.7" rx="2.3" ry="5.3"/>
					<ellipse class="st99" cx="305.5" cy="479.8" rx="3.4" ry="4.1"/>
					<ellipse class="st99" cx="148" cy="375.3" rx="1.9" ry="5.6"/>
					<ellipse class="st99" cx="173.1" cy="383.6" rx="4.9" ry="1.9"/>
					<ellipse class="st99" cx="214.9" cy="392" rx="2.3" ry="5.3"/>
					
						<ellipse transform="matrix(0.6815 -0.7318 0.7318 0.6815 -194.6714 328.3164)" class="st99" cx="279.9" cy="387.8" rx="1.1" ry="6.8"/>
					
						<ellipse transform="matrix(0.7999 -0.6001 0.6001 0.7999 -165.3018 259.3737)" class="st99" cx="306.3" cy="377.6" rx="4.9" ry="1.9"/>
					<ellipse class="st99" cx="358.2" cy="352.8" rx="1.9" ry="5.6"/>
					<ellipse class="st99" cx="242.9" cy="393.2" rx="4.9" ry="1.9"/>
					<ellipse class="st99" cx="265" cy="392.8" rx="2.3" ry="5.3"/>
					<path class="st99" d="M191.5,399.4l11.7-18.2c0,0,60.4,4,81.5-4.2c6.4,12.2,11.1,17.5,11.1,17.5s-21.8,7.9-51.1,7.9
						C244.8,402.4,218.5,403.7,191.5,399.4z"/>
					<ellipse class="st99" cx="330.4" cy="365.1" rx="1.9" ry="6.4"/>
					
						<ellipse transform="matrix(0.7071 -0.7071 0.7071 0.7071 -177.5762 356.2801)" class="st99" cx="341.3" cy="392.5" rx="7.5" ry="3"/>
					<path class="st99" d="M349.5,418.1c-0.8,0-1.5-3.2-1.5-7.1s0.7-7.1,1.5-7.1s1.5,3.2,1.5,7.1S350.4,418.1,349.5,418.1"/>
					<ellipse class="st99" cx="333.6" cy="416.3" rx="4.5" ry="2.3"/>
					<ellipse class="st99" cx="368.3" cy="393.3" rx="3" ry="3.8"/>
					<ellipse class="st99" cx="361.7" cy="377.2" rx="1.5" ry="5.3"/>
					<ellipse class="st99" cx="343.3" cy="379.3" rx="4.9" ry="1.9"/>
					<ellipse class="st99" cx="146.7" cy="248.6" rx="1.2" ry="4.3"/>
					<ellipse class="st99" cx="148.8" cy="248.1" rx="4" ry="1.5"/>
					<polyline class="st96" points="256.6,522.5 262.1,524.9 286.3,507.8 					"/>
					<polyline class="st101" points="256,526.7 260.5,695.2 224.2,696.6 222.2,507.1 					"/>
					<path class="st99" d="M205.5,479.2c0,10.9,43.5,50.7,43.5,50.7l36.2-52.5L205.5,479.2z"/>
				</g>
			</g>
		</g>
	</g>
</g>
</svg>
