<?xml version="1.0" encoding="utf-8"?>
<!-- Generator: Adobe Illustrator 21.1.0, SVG Export Plug-In . SVG Version: 6.00 Build 0)  -->
<svg version="1.1" id="Ebene_1" xmlns="http://www.w3.org/2000/svg" xmlns:xlink="http://www.w3.org/1999/xlink" x="0px" y="0px"
	 viewBox="0 0 469.8 1383.5" style="enable-background:new 0 0 469.8 1383.5;" xml:space="preserve">
<style type="text/css">
	.st0{fill:#FEE9CD;stroke:#000000;stroke-width:6;stroke-linecap:round;stroke-linejoin:round;stroke-miterlimit:10;}
	.st1{fill:#24323F;stroke:#000000;stroke-width:6;stroke-linecap:round;stroke-linejoin:round;stroke-miterlimit:10;}
	.st2{display:none;}
	.st3{stroke:#000000;stroke-width:6;stroke-linecap:round;stroke-linejoin:round;stroke-miterlimit:10;}
	.st4{fill:#353535;stroke:#000000;stroke-width:6;stroke-linecap:round;stroke-linejoin:round;stroke-miterlimit:10;}
	.st5{fill:#FEE9CD;}
	.st6{fill:none;stroke:#000000;stroke-width:6;stroke-miterlimit:10;}
	.st7{fill:#604C3C;}
	.st8{fill:#604C3C;stroke:#000000;stroke-width:6;stroke-miterlimit:10;}
	.st9{fill:none;stroke:#000000;stroke-width:6;stroke-linecap:round;stroke-linejoin:round;stroke-miterlimit:10;}
	.st10{fill:#FFFFFF;stroke:#000000;stroke-width:6;stroke-linecap:round;stroke-linejoin:round;stroke-miterlimit:10;}
</style>
<g id="Ebene_1_1_">
	<path class="st0" d="M342.5,479.8c0,0,65.1-61.3,80.8-69.9c15.8-8.6,31.2-33.7,21.5-41.6s-26.9,7.3-26.9,7.3l-3.7-10.2
		c0,0,0,0-5.1-3.6s-0.6,28.9-0.6,28.9L326.6,477"/>
	<polyline class="st1" points="275.8,578.7 426,436.2 390.2,398.7 269,527.6 	"/>
	<g id="Kopf">
	</g>
	<g id="Ebene_3" class="st2">
	</g>
	<path class="st3" d="M193.1,874c0,0-11.7,31.5-13.7,37.9c-1.3,4.2-44.8-15.3-48,0c-3.3,15.3,59.8,17.4,74,17.4
		c3.3-27.3,3-49.8,3-49.8L193.1,874z"/>
	<path class="st3" d="M252.2,863.1c0,0,15,41.2,15,45.6s44.8-15.3,48,0c3.3,15.3-59.8,17.4-74,17.4c-3.3-27.3-5.6-62-5.6-62
		L252.2,863.1z"/>
	<polygon class="st4" points="172.9,692.5 178.2,907 212.9,908.2 220.6,737.7 229.9,737.5 235.8,906.5 273.4,902.3 274.6,692 	"/>
	<polyline class="st1" points="273.2,522.6 241.4,522.6 244.6,532.7 254.7,719.4 285.2,719.7 281.6,573.5 	"/>
	<path class="st0" d="M105.6,505.9c0,0-63.6-89.8-78.6-100.1s-28-37.2-17.4-44.1s26.3,10.1,26.3,10.1l4.8-9.9c0,0,0,0,5.5-3.1
		s-2.3,29.3-2.3,29.3l73.6,95.4"/>
	<path class="st5" d="M96.9,297.6c0,0-22.2,59.1,0.9,90.6c9.6,5.9,9.6,5.9,9.6,5.9S118.1,504.6,228.1,525
		c50.8,7.4,121.5-19.6,140.7-128.1c13.6-6.8,34,3.3,16.4-117.7S340,111.7,252.3,103.1S95.8,196,95.8,196L96.9,297.6"/>
	<circle cx="166.7" cy="292.5" r="7.3"/>
	<circle cx="302" cy="277.3" r="7.3"/>
	<path class="st6" d="M92.5,298.3c0,0-17.4,95.7,14.9,95.7c7,28.1,16.9,78.7,56.2,104c0,0,74.5,56,144.7,5.6
		c0,0,58.4-42.8,60.4-106.8c14.1-1.4,31.4-10.4,14.4-112.7"/>
	<path class="st7" d="M336.2,268.7l-65.4-8.1c-4.7-0.6-8.1-4.9-7.5-9.6l0.5-3.8c0.6-4.7,4.9-8.1,9.6-7.5l65.4,8.1
		c4.7,0.6,8.1,4.9,7.5,9.6l-0.5,3.8C345.2,265.9,341,269.3,336.2,268.7z"/>
	<path class="st7" d="M190.1,263.6l-64.7,12.7c-4.6,0.9-9.2-2.1-10.1-6.8l-0.8-3.8c-0.9-4.6,2.1-9.2,6.8-10.1l64.7-12.7
		c4.6-0.9,9.2,2.1,10.1,6.8l0.8,3.8C197.8,258.1,194.7,262.7,190.1,263.6z"/>
	<path class="st6" d="M194.3,368.8c0,0,8.3,18,40.1,18S269,366,269,366"/>
	<circle cx="103.7" cy="378.1" r="4.5"/>
	<circle cx="374.6" cy="376.6" r="5.2"/>
	<path class="st8" d="M339.7,138.4c-16-46.1-87.4-157.3-240.9-50.1c-72.9,63.3-9.1,146.3-7.1,143.6c-1.2,22.1-4.3,47.9,10.1,104.6
		l2.7-127.6c36.1-43.8,134-141.6,232-56.7c0,0,49,11.9,31.2,194.7C385,302.1,408,170.3,339.7,138.4z"/>
	<path class="st7" d="M183,410"/>
	<ellipse class="st7" cx="129.2" cy="364.6" rx="7.5" ry="2.6"/>
	<ellipse class="st7" cx="123.6" cy="386.4" rx="1.9" ry="6.4"/>
	<ellipse transform="matrix(0.7071 -0.7071 0.7071 0.7071 -253.208 216.2601)" class="st7" cx="134.4" cy="413.8" rx="7.5" ry="3"/>
	<ellipse class="st7" cx="142.8" cy="432.2" rx="1.5" ry="7.1"/>
	<ellipse class="st7" cx="155.5" cy="445.4" rx="1.5" ry="6"/>
	<ellipse class="st7" cx="157" cy="467.5" rx="5.3" ry="1.9"/>
	<ellipse class="st7" cx="137.1" cy="454.4" rx="1.1" ry="6.8"/>
	<ellipse class="st7" cx="172.1" cy="448.4" rx="4.5" ry="1.5"/>
	<ellipse transform="matrix(0.9843 -0.1764 0.1764 0.9843 -80.49 37.9401)" class="st7" cx="173.1" cy="471.7" rx="1.1" ry="6.8"/>
	<ellipse class="st7" cx="179.2" cy="492.3" rx="5.6" ry="2.6"/>
	<ellipse class="st7" cx="201.7" cy="477.3" rx="1.9" ry="5.6"/>
	<ellipse class="st7" cx="189.7" cy="463" rx="4.9" ry="1.9"/>
	<ellipse class="st7" cx="211.9" cy="462.6" rx="2.3" ry="5.3"/>
	<ellipse class="st7" cx="118.7" cy="400.3" rx="1.5" ry="3.8"/>
	<ellipse class="st7" cx="133" cy="425.8" rx="4.5" ry="2.3"/>
	<ellipse class="st7" cx="161.5" cy="414.6" rx="3" ry="3.8"/>
	<ellipse class="st7" cx="154.9" cy="398.5" rx="1.5" ry="5.3"/>
	<ellipse class="st7" cx="225" cy="478.8" rx="3.4" ry="4.1"/>
	<ellipse class="st7" cx="346.2" cy="383.4" rx="1.9" ry="6.4"/>
	<ellipse transform="matrix(0.7071 -0.7071 0.7071 0.7071 -197.6632 345.593)" class="st7" cx="318.3" cy="411.4" rx="7.5" ry="3"/>
	<ellipse class="st7" cx="302.6" cy="397.9" rx="1.5" ry="3.8"/>
	<ellipse class="st7" cx="337.2" cy="417.3" rx="3" ry="3.8"/>
	
		<ellipse transform="matrix(0.6815 -0.7318 0.7318 0.6815 -247.3372 348.6062)" class="st7" cx="276.8" cy="458.5" rx="1.1" ry="6.8"/>
	
		<ellipse transform="matrix(0.7999 -0.6001 0.6001 0.7999 -213.8772 275.6553)" class="st7" cx="306.4" cy="458.6" rx="1.9" ry="5.6"/>
	
		<ellipse transform="matrix(0.7999 -0.6001 0.6001 0.7999 -215.0026 263.8917)" class="st7" cx="288.2" cy="454.4" rx="4.9" ry="1.9"/>
	
		<ellipse transform="matrix(0.7999 -0.6001 0.6001 0.7999 -203.3409 271.6719)" class="st7" cx="305.7" cy="440.8" rx="2.3" ry="5.3"/>
	
		<ellipse transform="matrix(0.7999 -0.6001 0.6001 0.7999 -202.2976 284.7862)" class="st7" cx="325.9" cy="445.8" rx="3.4" ry="4.1"/>
	<ellipse class="st7" cx="251.9" cy="478.1" rx="1.9" ry="5.6"/>
	<ellipse class="st7" cx="239.9" cy="463.8" rx="4.9" ry="1.9"/>
	<ellipse class="st7" cx="262" cy="463.5" rx="2.3" ry="5.3"/>
	<ellipse class="st7" cx="262.9" cy="480.3" rx="3.4" ry="4.1"/>
	
		<ellipse transform="matrix(0.6815 -0.7318 0.7318 0.6815 -260.5985 375.1718)" class="st7" cx="300.7" cy="487" rx="1.1" ry="6.8"/>
	
		<ellipse transform="matrix(0.7999 -0.6001 0.6001 0.7999 -220.3949 279.3557)" class="st7" cx="308.7" cy="470.2" rx="4.9" ry="1.9"/>
	<ellipse class="st7" cx="282.6" cy="479.2" rx="2.3" ry="5.3"/>
	<ellipse class="st7" cx="295.7" cy="495.4" rx="3.4" ry="4.1"/>
	<ellipse class="st7" cx="138.2" cy="390.8" rx="1.9" ry="5.6"/>
	<ellipse class="st7" cx="163.3" cy="399.2" rx="4.9" ry="1.9"/>
	<ellipse class="st7" cx="205.1" cy="407.5" rx="2.3" ry="5.3"/>
	
		<ellipse transform="matrix(0.6815 -0.7318 0.7318 0.6815 -209.1919 326.0905)" class="st7" cx="270" cy="403.4" rx="1.1" ry="6.8"/>
	
		<ellipse transform="matrix(0.7999 -0.6001 0.6001 0.7999 -176.5764 256.5454)" class="st7" cx="296.4" cy="393.1" rx="4.9" ry="1.9"/>
	<ellipse class="st7" cx="348.4" cy="368.3" rx="1.9" ry="5.6"/>
	<ellipse class="st7" cx="233.1" cy="408.7" rx="4.9" ry="1.9"/>
	<ellipse class="st7" cx="255.2" cy="408.3" rx="2.3" ry="5.3"/>
	<path class="st7" d="M181.8,415l11.7-18.2c0,0,60.4,4,81.5-4.2c6.4,12.2,11.1,17.5,11.1,17.5S264.3,418,235,418
		C235,417.9,208.7,419.3,181.8,415z"/>
	<ellipse class="st7" cx="320.6" cy="380.6" rx="1.9" ry="6.4"/>
	
		<ellipse transform="matrix(0.7071 -0.7071 0.7071 0.7071 -191.4818 353.9044)" class="st7" cx="331.5" cy="408.1" rx="7.5" ry="3"/>
	<path class="st7" d="M339.8,433.6c-0.8,0-1.5-3.2-1.5-7.1s0.7-7.1,1.5-7.1s1.5,3.2,1.5,7.1S340.6,433.6,339.8,433.6"/>
	<ellipse class="st7" cx="323.8" cy="431.8" rx="4.5" ry="2.3"/>
	<ellipse class="st7" cx="358.5" cy="408.8" rx="3" ry="3.8"/>
	<ellipse class="st7" cx="351.9" cy="392.8" rx="1.5" ry="5.3"/>
	<ellipse class="st7" cx="333.5" cy="394.9" rx="4.9" ry="1.9"/>
	<ellipse class="st7" cx="136.9" cy="264.2" rx="1.2" ry="4.3"/>
	<ellipse class="st7" cx="139" cy="263.6" rx="4" ry="1.5"/>
	<polyline class="st9" points="246.8,538.1 252.3,540.5 276.5,523.3 	"/>
	<polyline class="st10" points="246.2,542.2 250.7,710.8 214.4,712.1 212.4,522.7 	"/>
	<path class="st7" d="M195.7,494.8c0,10.9,43.5,50.7,43.5,50.7l36.2-52.5L195.7,494.8z"/>
	<polyline class="st1" points="187.2,526.9 72.2,400.8 33.2,418.9 177.9,598.3 	"/>
	<polyline class="st1" points="176.8,597 168.2,728.9 211.1,728.9 213.6,519.8 187,510.8 	"/>
	<polyline class="st9" points="210.6,522.1 202.6,537 183,520.3 188.8,512.8 	"/>
	<ellipse class="st6" cx="217.2" cy="436.4" rx="24.6" ry="13"/>
	<path class="st6" d="M143,975.2c0,0,148.1-42.8,172.5,21.4s-227.5,77.9-180.2,41.2c47.3-36.6,193.9-26,175.6,24.4
		c-18.3,50.4-177.1,55-180.2,44.3s113-73.3,174.1,6.1s-146.7,70.7-166,56.2s120.2-114.2,156.9,7.9s-206.8,43.5-155.3,25.4
		c64.8-22.9,159.9-19.3,159.9,46.4"/>
</g>
<g id="Ebene_2">
</g>
</svg>
