<?xml version="1.0" encoding="utf-8"?>
<!-- Generator: Adobe Illustrator 21.1.0, SVG Export Plug-In . SVG Version: 6.00 Build 0)  -->
<svg version="1.1" id="Ebene_1" xmlns="http://www.w3.org/2000/svg" xmlns:xlink="http://www.w3.org/1999/xlink" x="0px" y="0px"
	 viewBox="0 0 469.8 1383.5" style="enable-background:new 0 0 469.8 1383.5;" xml:space="preserve">
<style type="text/css">
	.st0{fill:#24323F;stroke:#000000;stroke-width:6;stroke-linecap:round;stroke-linejoin:round;stroke-miterlimit:10;}
	.st1{fill:#010202;}
	.st2{stroke:#000000;stroke-width:6;stroke-miterlimit:10;}
	.st3{fill:#FEE9CD;stroke:#000000;stroke-width:6;stroke-linecap:round;stroke-linejoin:round;stroke-miterlimit:10;}
	.st4{display:none;}
	.st5{stroke:#000000;stroke-width:6;stroke-linecap:round;stroke-linejoin:round;stroke-miterlimit:10;}
	.st6{fill:#353535;stroke:#000000;stroke-width:6;stroke-linecap:round;stroke-linejoin:round;stroke-miterlimit:10;}
	.st7{fill:#FEE9CD;}
	.st8{fill:none;stroke:#000000;stroke-width:6;stroke-miterlimit:10;}
	.st9{fill:#604C3C;}
	.st10{fill:#604C3C;stroke:#000000;stroke-width:6;stroke-miterlimit:10;}
	.st11{fill:none;stroke:#000000;stroke-width:6;stroke-linecap:round;stroke-linejoin:round;stroke-miterlimit:10;}
	.st12{fill:#FFFFFF;stroke:#000000;stroke-width:6;stroke-linecap:round;stroke-linejoin:round;stroke-miterlimit:10;}
</style>
<g id="Körper">
	<g>
		<path class="st0" d="M182,89.4c-57.4,12.8-42.1,199.1-42.1,199.1s-21.7-34.1-53-22.2c-31.3,11.9-35.6,29.2-35.6,29.2
			s-14.4-91.2,24.4-141.2S182,89.4,182,89.4z"/>
		<path class="st0" d="M51.4,298.7c-0.1,0-0.1,0-0.1,0c-1.4-0.1-2.6-1.1-2.9-2.5c-0.1-0.9-3.6-23.4-2.4-52.5
			c0.7-17.1,3-32.8,6.7-46.8c4.6-17.6,11.6-32.5,20.7-44.3c39-50.2,105-65.4,108-66.1c0,0,0,0,0,0c1.6-0.4,3.3,0.7,3.6,2.3
			c0.4,1.6-0.7,3.3-2.3,3.6c0,0,0,0,0,0c-0.1,0-0.3,0.1-0.6,0.1C160.4,98,146.7,133,142.5,194c-3.3,47.4,0.5,93.8,0.5,94.3
			c0.1,1.4-0.7,2.7-2.1,3.1c-1.3,0.4-2.8-0.1-3.5-1.3c-0.8-1.3-20.8-31.9-49.4-21c-29.2,11.1-33.7,27-33.7,27.2
			C53.9,297.7,52.7,298.7,51.4,298.7z M162.1,98.8c-22.8,8.4-59.5,25.8-84,57.5c-30.4,39.1-27.3,105.2-24.9,129.5
			c4.9-6.5,14.4-15.3,32.6-22.3c23.1-8.8,41.4,5.8,50.4,15.6c-0.9-16.2-2.3-50.6,0.1-85.5C139.7,146.9,148.3,115.2,162.1,98.8z"/>
	</g>
	<g>
		<path class="st0" d="M271.3,280.6c0,0,28.7-154.2-35.1-191.7c71.3,5,255,31.3,193.8,223.8c-40-43.8-40-58.8-85-56.3
			C300,258.9,271.3,280.6,271.3,280.6z"/>
		<path class="st0" d="M430,315.7c-0.8,0-1.7-0.4-2.2-1c-8.5-9.3-15-17.1-20.8-24c-21.3-25.5-27.8-33.1-61.8-31.3
			c-43.6,2.4-71.7,23.3-72,23.5c-1,0.8-2.4,0.8-3.4,0.2c-1.1-0.7-1.6-1.9-1.4-3.1c0.3-1.5,27.5-152.5-33.6-188.5
			c-1.2-0.7-1.8-2.2-1.4-3.5c0.4-1.3,1.7-2.3,3.1-2.1c91.3,6.4,155.9,34,187,79.8c25.5,37.6,28.7,87.4,9.4,148c-0.3,1-1.2,1.8-2.2,2
			C430.4,315.7,430.2,315.7,430,315.7z M353.8,253.1c29.6,0,38,10.1,57.8,33.7c4.9,5.9,10.4,12.4,17.1,19.9
			c16.9-56.4,13.5-102.7-10.2-137.6c-28.8-42.4-88-68.7-171.6-76.3c21.5,18.7,32.9,54.3,33.9,105.9c0.6,32.3-3.3,62.4-5.3,75.5
			c10.7-6.5,35.4-18.9,69.4-20.8C348,253.2,351,253.1,353.8,253.1z"/>
	</g>
</g>
<g id="Ebene_5">
	<g>
		<path d="M344.8,876c-0.1,0-0.3,0-0.4,0c-1.7-0.2-2.8-1.8-2.6-3.4l81-552.4c0.2-1.7,1.8-2.8,3.4-2.6c1.7,0.2,2.8,1.8,2.6,3.4
			l-81,552.4C347.6,874.9,346.3,876,344.8,876z"/>
	</g>
	<g>
		<path d="M137.2,872.6c-1.5,0-2.8-1.1-3-2.6L48.3,296.1c-0.2-1.7,0.9-3.2,2.6-3.5c1.7-0.2,3.2,0.9,3.5,2.6l85.8,573.9
			c0.2,1.7-0.9,3.2-2.6,3.5C137.5,872.5,137.3,872.6,137.2,872.6z"/>
	</g>
	<g>
		<path class="st1" d="M274,280.2l-6-1.1c0.3-1.5,28.5-155.2-32.3-187.8l2.9-5.4c27.4,14.7,41.6,52,42.3,110.9
			C281.5,240.2,274.1,279.8,274,280.2z"/>
	</g>
	<g>
		<path class="st2" d="M425.8,323.6c-0.2,0-0.3,0-0.5,0c-1.1-0.2-2.1-1-2.4-2.1c-9-29.3-24.7-48.4-46.5-56.8
			c-45.4-17.3-103.1,17.2-103.7,17.5c-1.2,0.7-2.7,0.5-3.7-0.4c-25.1-23.7-46.8-34.6-66.4-33.4c-23.7,1.5-43,21.1-60.3,42
			c-0.6,0.7-1.4,1.1-2.2,1.1c-0.9,0-1.7-0.3-2.3-0.9c-15.6-16.1-31-23.3-45.8-21.5c-23.4,2.9-37.8,27.7-38,28
			c-0.6,1.1-1.9,1.7-3.2,1.5c-1.3-0.2-2.3-1.2-2.5-2.5c-0.2-1-4.4-25.5-1.8-57.9c2.5-30.1,11.6-72.7,41.3-105.1
			c34.8-38,89.4-53.9,162.4-47.5c50.8,4.5,92.8,16.4,124.8,35.5c27.6,16.4,47.8,38,60,64.2c14.1,30,14.6,59.3,12.5,78.7
			c-2.4,22.4-9.6,44.2-19.4,58.4C427.7,323.2,426.8,323.6,425.8,323.6z M348,253.8c11.1,0,21.3,1.7,30.5,5.2
			c22.1,8.4,38.2,26.7,48.1,54.5c15-26.5,24.9-78.9,3-125.6c-32.5-69.3-115.8-90.5-179.9-96.2c-71-6.3-123.9,9.1-157.4,45.5
			C76.7,154.4,57,185.9,52.7,238.6c-1.7,21.1-0.4,39.1,0.7,48.8c6.5-8.4,19.5-22,37.9-24.3c16-2,32.3,5,48.6,20.9
			c17.7-21,37.5-40.1,62.5-41.6c20.8-1.3,43.5,9.7,69.3,33.5c4.7-2.7,17.5-9.4,34.1-14.8C320.6,256.3,334.9,253.8,348,253.8z"/>
	</g>
</g>
<g id="Ebene_1_1_">
	<path class="st3" d="M354.4,882.5c0,0,65.1-61.3,80.8-69.9c15.8-8.6,31.2-33.7,21.5-41.6c-9.7-7.9-26.9,7.3-26.9,7.3l-3.7-10.2
		c0,0,0,0-5.1-3.6c-5.1-3.6-0.6,28.9-0.6,28.9l-81.9,86.3"/>
	<polyline class="st0" points="287.7,981.4 437.9,838.9 402.1,801.4 280.9,930.3 	"/>
	<g id="Kopf">
	</g>
	<g id="Ebene_3" class="st4">
	</g>
	<path class="st5" d="M205,1276.7c0,0-11.7,31.5-13.7,37.9c-1.3,4.2-44.8-15.3-48,0c-3.3,15.3,59.8,17.4,74,17.4
		c3.3-27.3,3-49.8,3-49.8L205,1276.7z"/>
	<path class="st5" d="M264.1,1265.8c0,0,15,41.2,15,45.6c0,4.4,44.8-15.3,48,0c3.3,15.3-59.8,17.4-74,17.4c-3.3-27.3-5.6-62-5.6-62
		L264.1,1265.8z"/>
	<polygon class="st6" points="184.8,1095.2 190.1,1309.7 224.8,1310.9 232.5,1140.4 241.8,1140.2 247.7,1309.2 285.3,1305 
		286.5,1094.7 	"/>
	<polyline class="st0" points="285.1,925.3 253.3,925.3 256.5,935.4 266.6,1122.1 297.1,1122.4 293.5,976.2 	"/>
	<path class="st3" d="M117.5,908.6c0,0-63.6-89.8-78.6-100.1s-28-37.2-17.4-44.1c10.6-6.9,26.3,10.1,26.3,10.1l4.8-9.9
		c0,0,0,0,5.5-3.1c5.5-3.1-2.3,29.3-2.3,29.3l73.6,95.4"/>
	<path class="st7" d="M108.8,700.3c0,0-22.2,59.1,0.9,90.6c9.6,5.9,9.6,5.9,9.6,5.9S130,907.3,240,927.7
		c50.8,7.4,121.5-19.6,140.7-128.1c13.6-6.8,34,3.3,16.4-117.7s-45.2-167.5-132.9-176.1s-156.5,92.9-156.5,92.9L108.8,700.3"/>
	<circle cx="178.6" cy="695.2" r="7.3"/>
	<circle cx="313.9" cy="680" r="7.3"/>
	<path class="st8" d="M104.4,701c0,0-17.4,95.7,14.9,95.7c7,28.1,16.9,78.7,56.2,104c0,0,74.5,56,144.7,5.6
		c0,0,58.4-42.8,60.4-106.8c14.1-1.4,31.4-10.4,14.4-112.7"/>
	<path class="st9" d="M348.1,671.4l-65.4-8.1c-4.7-0.6-8.1-4.9-7.5-9.6l0.5-3.8c0.6-4.7,4.9-8.1,9.6-7.5l65.4,8.1
		c4.7,0.6,8.1,4.9,7.5,9.6l-0.5,3.8C357.1,668.6,352.9,672,348.1,671.4z"/>
	<path class="st9" d="M202,666.3L137.3,679c-4.6,0.9-9.2-2.1-10.1-6.8l-0.8-3.8c-0.9-4.6,2.1-9.2,6.8-10.1l64.7-12.7
		c4.6-0.9,9.2,2.1,10.1,6.8l0.8,3.8C209.7,660.8,206.6,665.4,202,666.3z"/>
	<path class="st8" d="M206.2,771.5c0,0,8.3,18,40.1,18s34.6-20.8,34.6-20.8"/>
	<circle cx="115.6" cy="780.8" r="4.5"/>
	<circle cx="386.5" cy="779.3" r="5.2"/>
	<path class="st10" d="M351.6,541.1c-16-46.1-87.4-157.3-240.9-50.1c-72.9,63.3-9.1,146.3-7.1,143.6c-1.2,22.1-4.3,47.9,10.1,104.6
		l2.7-127.6c36.1-43.8,134-141.6,232-56.7c0,0,49,11.9,31.2,194.7C396.9,704.8,419.9,573,351.6,541.1z"/>
	<path class="st9" d="M194.9,812.7"/>
	<ellipse class="st9" cx="141.1" cy="767.3" rx="7.5" ry="2.6"/>
	<ellipse class="st9" cx="135.5" cy="789.1" rx="1.9" ry="6.4"/>
	<ellipse transform="matrix(0.7071 -0.7071 0.7071 0.7071 -534.5207 342.627)" class="st9" cx="146.3" cy="816.5" rx="7.5" ry="3"/>
	<ellipse class="st9" cx="154.7" cy="834.9" rx="1.5" ry="7.1"/>
	<ellipse class="st9" cx="167.4" cy="848.1" rx="1.5" ry="6"/>
	<ellipse class="st9" cx="168.9" cy="870.2" rx="5.3" ry="1.9"/>
	<ellipse class="st9" cx="149" cy="857.1" rx="1.1" ry="6.8"/>
	<ellipse class="st9" cx="184" cy="851.1" rx="4.5" ry="1.5"/>
	<ellipse transform="matrix(0.9843 -0.1764 0.1764 0.9843 -151.348 46.3477)" class="st9" cx="185" cy="874.4" rx="1.1" ry="6.8"/>
	<ellipse class="st9" cx="191.1" cy="895" rx="5.6" ry="2.6"/>
	<ellipse class="st9" cx="213.6" cy="880" rx="1.9" ry="5.6"/>
	<ellipse class="st9" cx="201.6" cy="865.7" rx="4.9" ry="1.9"/>
	<ellipse class="st9" cx="223.8" cy="865.3" rx="2.3" ry="5.3"/>
	<ellipse class="st9" cx="130.6" cy="803" rx="1.5" ry="3.8"/>
	<ellipse class="st9" cx="144.9" cy="828.5" rx="4.5" ry="2.3"/>
	<ellipse class="st9" cx="173.4" cy="817.3" rx="3" ry="3.8"/>
	<ellipse class="st9" cx="166.8" cy="801.2" rx="1.5" ry="5.3"/>
	<ellipse class="st9" cx="236.9" cy="881.5" rx="3.4" ry="4.1"/>
	<ellipse class="st9" cx="358.1" cy="786.1" rx="1.9" ry="6.4"/>
	
		<ellipse transform="matrix(0.7071 -0.7071 0.7071 0.7071 -478.9655 471.9493)" class="st9" cx="330.2" cy="814.1" rx="7.5" ry="3"/>
	<ellipse class="st9" cx="314.5" cy="800.6" rx="1.5" ry="3.8"/>
	<ellipse class="st9" cx="349.1" cy="820" rx="3" ry="3.8"/>
	
		<ellipse transform="matrix(0.6815 -0.7318 0.7318 0.6815 -538.2932 485.5916)" class="st9" cx="288.7" cy="861.2" rx="1.1" ry="6.8"/>
	
		<ellipse transform="matrix(0.7999 -0.6001 0.6001 0.7999 -453.2047 363.3669)" class="st9" cx="318.3" cy="861.3" rx="1.9" ry="5.6"/>
	
		<ellipse transform="matrix(0.7999 -0.6001 0.6001 0.7999 -454.3258 351.6019)" class="st9" cx="300.1" cy="857.1" rx="4.9" ry="1.9"/>
	
		<ellipse transform="matrix(0.7999 -0.6001 0.6001 0.7999 -442.663 359.3818)" class="st9" cx="317.6" cy="843.5" rx="2.3" ry="5.3"/>
	
		<ellipse transform="matrix(0.7999 -0.6001 0.6001 0.7999 -441.6165 372.5039)" class="st9" cx="337.8" cy="848.5" rx="3.4" ry="4.1"/>
	<ellipse class="st9" cx="263.8" cy="880.8" rx="1.9" ry="5.6"/>
	<ellipse class="st9" cx="251.8" cy="866.5" rx="4.9" ry="1.9"/>
	<ellipse class="st9" cx="273.9" cy="866.2" rx="2.3" ry="5.3"/>
	<ellipse class="st9" cx="274.8" cy="883" rx="3.4" ry="4.1"/>
	
		<ellipse transform="matrix(0.6815 -0.7318 0.7318 0.6815 -551.5421 512.1457)" class="st9" cx="312.6" cy="889.7" rx="1.1" ry="6.8"/>
	
		<ellipse transform="matrix(0.7999 -0.6001 0.6001 0.7999 -459.7086 367.0579)" class="st9" cx="320.6" cy="872.9" rx="4.9" ry="1.9"/>
	<ellipse class="st9" cx="294.5" cy="881.9" rx="2.3" ry="5.3"/>
	<ellipse class="st9" cx="307.6" cy="898.1" rx="3.4" ry="4.1"/>
	<ellipse class="st9" cx="150.1" cy="793.5" rx="1.9" ry="5.6"/>
	<ellipse class="st9" cx="175.2" cy="801.9" rx="4.9" ry="1.9"/>
	<ellipse class="st9" cx="217" cy="810.2" rx="2.3" ry="5.3"/>
	
		<ellipse transform="matrix(0.6815 -0.7318 0.7318 0.6815 -500.147 463.0614)" class="st9" cx="281.9" cy="806.1" rx="1.1" ry="6.8"/>
	
		<ellipse transform="matrix(0.7999 -0.6001 0.6001 0.7999 -415.8978 344.257)" class="st9" cx="308.3" cy="795.8" rx="4.9" ry="1.9"/>
	<ellipse class="st9" cx="360.3" cy="771" rx="1.9" ry="5.6"/>
	<ellipse class="st9" cx="245" cy="811.4" rx="4.9" ry="1.9"/>
	<ellipse class="st9" cx="267.1" cy="811" rx="2.3" ry="5.3"/>
	<path class="st9" d="M193.7,817.7l11.7-18.2c0,0,60.4,4,81.5-4.2c6.4,12.2,11.1,17.5,11.1,17.5s-21.8,7.9-51.1,7.9
		C246.9,820.6,220.6,822,193.7,817.7z"/>
	<ellipse class="st9" cx="332.5" cy="783.3" rx="1.9" ry="6.4"/>
	
		<ellipse transform="matrix(0.7071 -0.7071 0.7071 0.7071 -472.7318 480.2874)" class="st9" cx="343.4" cy="810.8" rx="7.5" ry="3"/>
	<path class="st9" d="M351.7,836.3c-0.8,0-1.5-3.2-1.5-7.1c0-3.9,0.7-7.1,1.5-7.1s1.5,3.2,1.5,7.1
		C353.2,833.1,352.5,836.3,351.7,836.3"/>
	<ellipse class="st9" cx="335.7" cy="834.5" rx="4.5" ry="2.3"/>
	<ellipse class="st9" cx="370.4" cy="811.5" rx="3" ry="3.8"/>
	<ellipse class="st9" cx="363.8" cy="795.5" rx="1.5" ry="5.3"/>
	<ellipse class="st9" cx="345.4" cy="797.6" rx="4.9" ry="1.9"/>
	<ellipse class="st9" cx="148.8" cy="666.9" rx="1.2" ry="4.3"/>
	<ellipse class="st9" cx="150.9" cy="666.3" rx="4" ry="1.5"/>
	<polyline class="st11" points="258.7,940.8 264.2,943.2 288.4,926 	"/>
	<polyline class="st12" points="258.1,944.9 262.6,1113.5 226.3,1114.8 224.3,925.4 	"/>
	<path class="st9" d="M207.6,897.5c0,10.9,43.5,50.7,43.5,50.7l36.2-52.5L207.6,897.5z"/>
	<polyline class="st0" points="199.1,929.6 84.1,803.5 45.1,821.6 189.8,1001 	"/>
	<polyline class="st0" points="188.7,999.7 180.1,1131.6 223,1131.6 225.5,922.5 198.9,913.5 	"/>
	<polyline class="st11" points="222.5,924.8 214.5,939.7 194.9,923 200.7,915.5 	"/>
	<ellipse class="st8" cx="229.1" cy="839.1" rx="24.6" ry="13"/>
</g>
<g id="Ebene_2">
</g>
</svg>
