<?xml version="1.0" encoding="utf-8"?>
<!-- Generator: Adobe Illustrator 21.1.0, SVG Export Plug-In . SVG Version: 6.00 Build 0)  -->
<svg version="1.1" id="Ebene_1" xmlns="http://www.w3.org/2000/svg" xmlns:xlink="http://www.w3.org/1999/xlink" x="0px" y="0px"
	 viewBox="0 0 306 813.4" style="enable-background:new 0 0 306 813.4;" xml:space="preserve">
<style type="text/css">
	.st0{opacity:0.31;}
	.st1{display:none;opacity:0.31;}
	.st2{fill:#FEE9CD;stroke:#000000;stroke-width:6;stroke-miterlimit:10;}
</style>
<g id="Ebene_1_1_">
	<g id="Kopf" class="st0">
	</g>
	<g id="Ebene_3" class="st1">
	</g>
	<g id="Körper" class="st0">
	</g>
</g>
<g id="Ebene_2">
	<path class="st2" d="M234,269.3c-10.7-84.4-24.9-271-98.6-225.7c-21.3,16-25.5,33.9-25.5,33.9s-20.6,39.2,3.3,119.2
		c31.9,106.9,44.7,110.9,44.7,165.6s-5,236.7-11.6,241.7s-39.7,29.8-38.1,102.6c1.7,13.2,14.1,18.1,21.8-39.4
		c0.2,5.4,0.7,12.5,1.1,20.3c-0.4,2.6-0.6,5.3-0.6,8.1c0,3.9,0.4,7.6,1.1,11.1c-0.1,17-2.1,33.7-9.4,41.9c-9.4,10.3,6,13.7,10.3,7.7
		c0.6-0.9,1.5-2.3,2.5-4.3c0.1-0.1,0.1-0.2,0.2-0.3c3.3,1,8.5,1.4,14-2.1c2.8-1.8,5.6-3.2,8.1-5.6l-1.7,3.1c0,0,14.3-2,22-22.6
		c3.8-4.6,10.1-15,12.3-35.3c3.2-30.1,6.8-108.3,20.1-162.5C223.3,472.7,244.6,353.7,234,269.3z"/>
	<path class="st2" d="M135.1,752.2c0,0,17.7-25.6,15.4-70.3"/>
	<path class="st2" d="M152.3,747.9c0,0,17.1-40.4,12.8-68.2"/>
	<path class="st2" d="M161.7,742c0,0,20.8-40.4,16.9-68.6"/>
</g>
</svg>
