<?xml version="1.0" encoding="utf-8"?>
<!-- Generator: Adobe Illustrator 21.1.0, SVG Export Plug-In . SVG Version: 6.00 Build 0)  -->
<svg version="1.1" id="Ebene_1" xmlns="http://www.w3.org/2000/svg" xmlns:xlink="http://www.w3.org/1999/xlink" x="0px" y="0px"
	 viewBox="0 0 474 980.7" style="enable-background:new 0 0 474 980.7;" xml:space="preserve">
<style type="text/css">
	.st0{display:none;}
	.st1{fill:#1D1912;stroke:#000000;stroke-width:6;stroke-linecap:round;stroke-linejoin:round;stroke-miterlimit:10;}
	.st2{fill:#FEE9CD;stroke:#000000;stroke-width:6;stroke-linecap:round;stroke-linejoin:round;stroke-miterlimit:10;}
	.st3{opacity:0.74;fill:#E0CEC5;enable-background:new    ;}
	.st4{fill:#772F32;stroke:#000000;stroke-width:6;stroke-linecap:round;stroke-linejoin:round;stroke-miterlimit:10;}
	.st5{fill:#33435E;stroke:#000000;stroke-width:6;stroke-linecap:round;stroke-linejoin:round;stroke-miterlimit:10;}
</style>
<g id="Kopf">
</g>
<g id="Ebene_3" class="st0">
</g>
<g id="Körper">
</g>
<g id="Ebene_5">
	<path class="st1" d="M330.8,845c0,0,7.5,58.7,7.5,64.7s61.7-21.1,66.2,0s-82.4,24-102,24c-4.5-37.6-13.8-85.7-13.8-85.7L330.8,845z
		"/>
	<path class="st1" d="M150.9,854.3c0,0-7.5,58.7-7.5,64.7s-61.7-21.1-66.2,0s82.4,24,102,24c4.5-37.6,13.8-85.7,13.8-85.7
		L150.9,854.3z"/>
	<path class="st2" d="M127.1,530.2l-23.3,156.3c0,0,29.7,32,21.4,32s-8.3,0-8.3,0l-11.9-8.3c0,0-7.1,29.7-23.7,28.5
		s-19-40.3-8.3-61.7s26-164.9,26-164.9"/>
	<path class="st2" d="M364.8,526.7L388.1,683c0,0-29.7,32-21.4,32s8.3,0,8.3,0l11.9-8.3c0,0,7.1,29.7,23.7,28.5s19-40.3,8.3-61.7
		s-26.1-164.9-26.1-164.9"/>
	<path class="st3" d="M201.1,401.5c0,0,20.5,66.8,38.8,71.1c18.3,4.3,45.3-71.1,45.3-71.1H201.1z"/>
	<path class="st4" d="M298.3,413.9c0,0,20.9,8.5,43,17c57.1,21.8,59.2,96.6,59.2,96.6l-53.8,9.6l-16.4-38L342,684.6l-209.3-11.3
		l22.9-162.2l-7.4,26.2L83,524.8c0,0,16.3-51.1,36.8-83.3s54.5-35.7,54.5-35.7s25.8,13.4,32.9,13.4S216,470,240,472.6
		c18.7,2.5,41.7-51.6,41.7-51.6L298.3,413.9z"/>
	<polygon class="st5" points="153.7,674.5 137.9,914.6 186.6,932.4 241.7,709 289.1,917.6 344,903.7 330.9,683 	"/>
</g>
<image style="overflow:visible;enable-background:new    ;" width="129" height="207" xlink:href="../../../../Downloads/eeaeiebjfnebmdkl.png"  transform="matrix(1.9323 0 0 1.9323 125.9019 50.9177)">
</image>
</svg>
