<?xml version="1.0" encoding="utf-8"?>
<!-- Generator: Adobe Illustrator 21.1.0, SVG Export Plug-In . SVG Version: 6.00 Build 0)  -->
<svg version="1.1" id="Ebene_1" xmlns="http://www.w3.org/2000/svg" xmlns:xlink="http://www.w3.org/1999/xlink" x="0px" y="0px"
	 viewBox="0 0 444.4 293.5" style="enable-background:new 0 0 444.4 293.5;" xml:space="preserve">
<style type="text/css">
	.st0{display:none;}
	.st1{fill:#1D1D1B;}
	.st2{fill:none;stroke:#1D1D1B;stroke-width:9;stroke-miterlimit:10;}
	.st3{fill:#FFFFFF;}
	.st4{fill:none;stroke:#FFFFFF;stroke-width:3;stroke-miterlimit:10;}
</style>
<g id="Kopf">
</g>
<g id="Ebene_3" class="st0">
</g>
<g id="Körper">
</g>
<path class="st1" d="M355.5,102.3c0,38.4-82,69.6-183.2,69.6S25.9,146.1,25.9,107.6s45.2-74.9,146.4-74.9S355.5,63.9,355.5,102.3z"
	/>
<ellipse class="st1" cx="346.2" cy="110.8" rx="64.7" ry="62.9"/>
<path class="st2" d="M67.7,133.8c0,0-46.2,50.5-38.1,132.7"/>
<path class="st2" d="M156.7,146.9c0,0-22,82.2-11.6,121.5"/>
<path class="st2" d="M244.5,148.8c0,0-17.3,93.5-5.8,123.4"/>
<path class="st2" d="M67.7,133.8c0,0-46.2,50.5-38.1,132.7"/>
<path class="st2" d="M156.7,146.9c0,0-22,82.2-11.6,121.5"/>
<path class="st2" d="M244.5,148.8c0,0-17.3,93.5-5.8,123.4"/>
<circle class="st3" cx="343.8" cy="96.5" r="6.7"/>
<path class="st2" d="M266.7,261.9c0,0,46.2-50.5,38.1-132.7"/>
<path class="st2" d="M177.6,248.8c0,0,22-82.2,11.6-121.5"/>
<path class="st2" d="M89.8,247c0,0,17.3-93.5,5.8-123.4"/>
<ellipse transform="matrix(0.9975 -7.088035e-02 7.088035e-02 0.9975 -4.8694 27.3822)" class="st3" cx="383.4" cy="82.3" rx="6.7" ry="6.7"/>
<path class="st4" d="M345.4,140.3c0,0,22.9-21,37.1-3.7"/>
</svg>
